<svg width="95" height="97" viewBox="0 0 95 97" fill="none" xmlns="http://www.w3.org/2000/svg">
<g id="Group 1171275105">
<g id="Group">
<path id="Vector" fill-rule="evenodd" clip-rule="evenodd" d="M69.8232 81.164V3.63523C69.8232 -1.21174 75.4448 -1.21174 75.4448 3.63523C75.4448 14.8779 75.4448 10.2141 75.4448 10.2141C75.4448 10.2141 75.7367 65.9823 75.7367 81.164C75.7367 89.3085 69.8232 89.3085 69.8232 81.164Z" fill="white"/>
</g>
<g id="Group_2">
<path id="Vector_2" fill-rule="evenodd" clip-rule="evenodd" d="M47.3511 82.8423V26.6215C47.3511 23.1066 52.9726 23.1066 52.9726 26.6215C52.9726 34.7742 52.9726 31.3922 52.9726 31.3922C52.9726 31.3922 53.2645 71.8332 53.2645 82.8423C53.2645 88.7484 47.3511 88.7484 47.3511 82.8423Z" fill="white"/>
</g>
<g id="Group_3">
<path id="Vector_3" fill-rule="evenodd" clip-rule="evenodd" d="M4.7745 9.67285C16.2946 9.67285 42.6359 9.68462 45.1428 9.68462C47.6499 9.68462 47.7627 11.4021 46.917 12.1145C31.1677 25.3785 15.7008 52.5721 14.2361 63.1322C14.283 60.3465 38.7949 31.0949 94.6148 33.9105C91.9829 38.6872 20.5964 35.0073 4.74923 94.8952C4.24653 96.7947 1.6344 98.7109 0.0459712 94.3661C-0.455976 92.993 2.58324 44.8335 38.0467 14.5444C38.0467 14.5444 14.4527 14.5327 4.7745 14.5327C0.224914 14.5327 0.224914 9.67285 4.7745 9.67285Z" fill="white"/>
</g>
</g>
</svg>
