<svg width="195" height="193" viewBox="0 0 195 193" fill="none" xmlns="http://www.w3.org/2000/svg">
<g id="Group 1171275170">
<g id="Group 1171275168">
<g id="Group">
<path id="Vector" d="M101.341 168.896C101.51 147.983 102.384 151.192 97.9021 147.487C97.406 147.077 96.8304 147.282 96.3505 147.719C92.1539 151.542 93.1892 145.142 93.3375 184.396C93.3416 185.434 93.5937 186.645 92.5813 186.855C91.1536 187.153 92.3629 154.199 91.5392 152.605C91.4826 152.494 91.0579 152.258 90.8099 152.41C86.7846 154.881 86.368 154.96 86.3464 155.837C85.6171 184.989 66.8843 183.357 64.7153 184.922C63.556 185.758 62.5395 184.555 62.8469 183.498C62.9979 182.981 63.7285 182.495 64.2192 182.681C65.5619 183.191 66.8614 182.932 68.2055 182.688C84.7072 179.697 86.6861 155.713 84.0561 156.358C83.3982 156.518 79.4416 158.103 78.9226 158.314C78.0774 158.656 78.2836 159.455 78.3173 161.243C78.6449 178.969 51.8641 186.576 39.6547 172.799C35.0146 167.563 35.5538 163.253 35.1265 161.464C34.9661 160.79 34.0373 160.539 33.254 160.326C17.7849 156.116 11.4409 148.63 5.13059 142.756C4.4242 142.098 3.67063 141.488 3.16106 140.646C2.98312 140.351 3.08961 139.732 3.36462 139.617C38.9078 124.817 29.6142 144.003 3.29991 98.5079C1.97746 96.2202 1.64853 94.6753 4.29614 94.7158C11.7415 94.8304 24.6008 94.7212 35.2317 96.51C39.013 97.1463 36.9545 96.8835 33.0666 79.8789C32.549 77.6141 26.0944 43.6306 27.0677 41.6261C27.3953 40.952 28.1408 40.9844 28.8391 41.2459C39.1775 45.1068 44.3999 46.653 53.2486 52.4875C65.6994 60.6972 65.6616 63.3987 66.7239 60.6015C75.2707 38.0874 91.279 18.3516 96.3963 11.7299C97.6797 10.0677 97.8333 11.6207 103.387 18.4473C122.317 41.7137 127.078 63.0873 129.09 61.5856C129.63 61.1825 130.18 60.7889 130.695 60.3562C145.094 48.2694 166.751 39.5379 167.379 41.4805C168.465 44.8385 161.815 80.7215 157.921 93.4499C157.667 94.2763 157.484 95.1229 157.274 95.9627C157.224 96.1609 157.558 96.5653 157.771 96.5653C157.836 96.5653 183.115 93.6656 191.859 94.9261C195.261 95.4168 179.455 117.481 168.441 129.884C168.185 130.173 167.953 130.481 167.717 130.786C167.5 131.066 167.654 131.657 167.988 131.77C190.852 139.496 193.247 138.961 190.849 141.394C180.833 151.567 175.796 155.72 161.534 160.274C160.403 160.635 159.548 160.732 159.436 161.542C155.643 189.077 115.746 183.009 116.201 160.878C116.266 157.738 116.677 158.852 111.844 156.794C109.799 155.924 109.562 156.293 109.584 158.436C109.758 174.381 121.655 185.035 130.302 182.685C131.523 182.354 132.335 184.342 131.147 185.045C130.695 185.311 130.044 185.092 129.806 184.896C128.17 183.559 115.134 184.898 109.828 168.071C105.288 153.672 112.368 157.584 103.751 152.392C103.44 152.204 102.885 152.479 102.862 152.838C102.219 163.293 103.505 191.691 101.465 186.802C100.702 184.976 101.708 168.901 101.341 168.896ZM97.5192 130.095C98.4454 125.339 99.0102 114.009 108.594 90.9034C114.405 76.8902 120.377 70.9277 126.706 63.8894C129.051 61.2836 112.979 34.6592 111.159 31.7029C107.008 24.9585 103.639 20.8267 98.3577 14.1537C98.0531 13.7695 97.4316 13.0079 97.042 13.3085C93.2027 16.2743 73.5168 44.5797 67.3885 62.9728C67.5624 63.3947 67.3912 63.4648 68.8202 64.8938C94.8972 90.9614 96.6133 134.743 97.5192 130.095ZM134.125 95.9614C133.518 102.873 133.01 103.532 135.494 102.613C156.631 94.7791 154.455 99.8088 156.162 94.4893C161.272 78.5591 166.05 46.2931 166.342 43.7547C166.486 42.5077 165.207 42.8771 164.114 43.2896C157.933 45.6258 143.199 50.2497 129.742 63.0496C127.782 64.9153 134.707 74.3451 134.125 95.9614ZM65.3004 64.4745C65.4473 63.6387 65.2289 63.3394 64.0224 62.3055C50.9569 51.1124 42.4762 47.5562 29.3689 42.9647C27.3266 42.2489 28.6477 46.7096 29.5077 51.8606C32.3535 68.9016 33.5452 79.1456 38.2729 94.0781C40.0699 99.7535 37.6636 95.0312 57.3279 101.974C66.2534 105.127 54.4336 101.819 65.3004 64.4745ZM50.446 161.056C66.6107 160.503 82.1459 158.586 94.176 147.95C103.099 140.061 72.6676 162.588 41.5528 142.803C29.4943 135.135 30.264 132.037 26.9855 133.171C25.9232 133.537 17.4317 135.87 8.24598 139.234C4.10875 140.75 4.62372 140.307 9.35409 144.776C13.0168 148.237 15.2276 150.778 20.1737 153.436C29.6237 158.516 38.4724 161.163 50.446 161.056ZM143.918 161.017C154.826 161.177 162.333 158.997 169.547 155.849C179.095 151.683 182.604 147.21 188.258 141.955C189.844 140.48 188.967 140.201 186.717 139.375C181.221 137.355 169.312 133.506 166.569 132.97C164.017 132.471 151.276 150.209 128.11 150.906C107.641 151.522 102.471 146.302 99.2515 146.08C97.708 145.973 109.419 160.673 143.918 161.017ZM132.847 92.9404C132.658 81.684 129.006 64.2143 127.326 65.4734C123.517 68.33 115.143 78.729 109.846 91.4319C97.4168 121.238 97.9574 140.669 98.688 140.635C100.36 140.558 102.142 129.919 111.167 119.5C120.737 108.45 129.367 105.5 131.315 104.236C132.672 103.357 132.875 94.3922 132.847 92.9404ZM83.0248 87.6559C77.9574 76.5748 67.5584 64.0876 66.6498 65.5745C65.0644 68.1682 60.0591 85.623 62.5705 103.125C62.7363 104.283 63.6611 104.516 65.3785 105.357C90.33 117.566 93.843 141.408 95.938 140.774C96.3572 140.647 97.2132 118.688 83.0248 87.6559ZM179.776 96.1811C177.986 96.2593 157.018 97.0479 156.162 98.9972C155.275 101.019 153.904 105.103 150.938 111.546C141.822 131.36 134.106 126.797 149.227 128.179C167.723 129.868 163.298 133.496 168.527 127.742C178.684 116.568 189.024 100.399 190.446 96.9279C190.985 95.6149 188.316 95.9776 179.776 96.1811ZM4.63585 96.111C1.05942 96.4521 20.3907 121.139 23.6463 125.01C29.3419 131.778 28.9645 131.145 31.5177 130.529C65.8248 122.246 54.0602 140.177 39.4848 101.681C38.3376 98.6535 38.223 98.4607 37.5207 98.3084C29.0036 96.4683 8.05051 95.7848 4.63585 96.111ZM146.602 144.859C151.485 142.373 165.88 132.927 163.069 132.034C158.181 130.48 148.115 128.945 139.59 129.412C134.571 129.687 128.483 143.563 101.71 144.144C94.5751 144.299 124.868 155.924 146.602 144.859ZM93.5168 145.174C93.6597 145.112 94.0143 144.803 93.963 144.508C93.7406 143.219 80.7587 146.313 66.6053 137.04C56.5366 130.442 57.6541 129.608 54.8596 129.399C48.8458 128.951 40.051 129.679 31.4058 132.068C29.013 132.73 47.7229 148.919 65.485 149.454C76.5001 149.787 83.9118 149.325 93.5168 145.174ZM130.024 128.99C136.949 128.063 137.345 128.388 138.836 126.924C146.385 119.516 150.333 110.452 154.121 100.322C154.268 99.9288 154.313 99.1172 153.908 99.0592C151.803 98.7586 133.456 103.794 132.885 105.98C127.805 125.413 117.732 130.318 119.296 130.917C120.52 131.385 122.471 130.001 130.024 128.99ZM41.1645 98.9015C40.6226 98.7788 40.1454 99.2925 40.2963 99.7697C41.2629 102.826 45.0011 111.923 48.0922 117.15C49.6843 119.844 55.3031 128.222 58.5182 128.215C62.9803 128.207 73.3537 130.871 75.0065 131.1C77.9992 131.514 66.7738 124.702 62.4451 108.996C61.5864 105.882 61.7388 105.206 60.5147 104.691C53.7717 101.855 47.3926 100.308 41.1645 98.9015ZM56.6255 178.475C68.4468 179.021 78.5182 168.95 76.8708 159.797C76.7172 158.942 75.4985 159.286 74.846 159.446C64.3742 162.014 57.9332 161.995 49.5819 162.478C47.3036 162.61 49.7881 167.166 53.5492 166.503C55.2006 166.212 56.031 166.025 58.9482 164.496C64.6654 161.499 67.6527 167.32 62.8954 170.375C57.1149 174.087 43.3497 172.524 39.4336 162.259C39.1411 161.491 38.2675 161.43 37.4371 161.444C34.4781 161.491 39.2179 179.002 56.6255 178.475ZM131.892 170.518C128.258 168.366 128.724 164.495 131.778 163.729C135.389 162.823 142.434 170.444 145.761 163.892C146.677 162.09 144.428 162.34 139.544 162.184C119.148 161.532 117.684 156.577 117.577 161.209C117.376 169.957 125.997 179.215 139.521 178.466C156.047 177.551 159.923 161.606 157.104 161.463C155.765 161.395 155.26 161.684 154.908 162.828C152.391 170.995 138.482 174.418 131.892 170.518ZM90.8436 133.694C85.4607 121.654 75.3704 111.765 65.1494 106.796C59.1599 103.884 71.5675 129.403 82.0636 133.664C93.1569 138.169 96.43 146.19 90.8436 133.694ZM113.089 133.392C116.495 131.997 121.811 125.705 123.981 122.745C129.063 115.81 132.558 105.49 130.314 106.443C115.044 112.928 107.495 125.696 101.274 139.23C101.179 139.434 100.965 140.082 101.228 140.294C101.998 140.91 104.084 137.083 113.089 133.392ZM113.688 135.186C109.552 138.474 105.161 140.36 102.746 141.642C98.2405 144.032 113.084 143.311 122.698 138.45C124.344 137.618 134.986 131.324 134.624 130.119C134.358 129.236 117.65 132.037 113.688 135.186ZM92.4963 142.63C92.6379 142.522 92.4505 142.014 92.2092 141.886C77.4802 134.04 81.4664 134.576 76.6444 133.109C72.8819 131.964 58.6126 128.602 59.9997 130.386C61.3829 132.165 67.5638 136.048 69.3432 137.098C78.7622 142.66 91.2804 143.563 92.4963 142.63ZM46.7563 162.594C45.876 162.242 46.8965 162.285 41.9073 162.022C39.2664 161.883 43.405 168.165 49.9647 170.085C59.2435 172.801 66.5473 167.636 63.0733 165.365C60.7628 163.856 57.6312 167.973 52.4479 167.915C48.8135 167.874 47.6366 164.643 46.7563 162.594ZM139.203 170.82C148.809 171.343 155.884 161.944 152.76 162.051C148.661 162.189 147.929 162.049 147.468 163.284C143.98 172.606 135.349 164.997 132.665 165.011C129.009 165.03 130.098 170.875 139.203 170.82Z" fill="white" fill-opacity="0.6"/>
<path id="Vector_2" d="M67.2104 37.5236C67.4072 40.2925 65.0966 43.9579 60.8259 43.9539C57.0298 43.9499 54.5183 40.8884 54.4536 37.7797C54.2676 28.8488 67.4584 29.3112 67.2104 37.5236ZM65.896 37.618C65.7235 31.0286 56.1845 31.034 55.8664 37.4872C55.7289 40.2602 58.1446 42.6908 60.9486 42.6611C63.5962 42.6328 65.8718 40.3141 65.896 37.618Z" fill="white" fill-opacity="0.6"/>
<path id="Vector_3" d="M133.795 43.9405C125.238 44.1333 125.237 31.1096 133.824 31.1608C137.197 31.181 140.083 34.0079 140.176 37.4455C140.249 40.1147 138.188 43.9418 133.795 43.9405ZM133.737 32.6396C127.441 32.4455 126.763 42.1988 133.501 42.645C135.713 42.7906 138.685 41.026 138.693 37.6046C138.7 34.8842 136.489 32.672 133.737 32.6396Z" fill="white" fill-opacity="0.6"/>
<path id="Vector_4" d="M169.325 81.258C169.693 74.0067 180.822 74.7023 180.284 81.9078C179.728 89.3424 168.905 88.419 169.325 81.258ZM178.833 81.7474C178.941 79.035 176.554 77.3985 174.772 77.4497C172.574 77.5117 170.703 79.2372 170.647 81.4238C170.506 86.8808 178.708 87.141 178.833 81.7474Z" fill="white" fill-opacity="0.6"/>
<path id="Vector_5" d="M19.5995 87.1125C12.297 86.8753 12.5288 75.991 19.9378 76.1352C27.181 76.2754 27.0462 87.0775 19.5995 87.1125ZM19.7181 85.6836C25.167 85.747 25.2775 77.5979 19.8731 77.4604C17.6326 77.4037 15.6442 79.3922 15.6739 81.6596C15.7022 83.8475 17.5221 85.658 19.7181 85.6836Z" fill="white" fill-opacity="0.6"/>
<path id="Vector_6" d="M189.131 117.927C196.606 117.904 196.136 128.45 189.327 128.443C182.39 128.436 182.224 118.116 189.131 117.927ZM193.155 123.184C193.085 117.754 185.234 118.169 185.423 123.28C185.613 128.404 193.219 128.095 193.155 123.184Z" fill="white" fill-opacity="0.6"/>
<path id="Vector_7" d="M10.5175 123.25C10.4352 130.249 -0.232056 130.089 0.00385598 122.929C0.224939 116.201 10.5997 116.248 10.5175 123.25ZM5.23706 127.011C10.5094 127.064 10.4433 119.219 5.22628 119.236C0.490508 119.25 -0.0406297 126.96 5.23706 127.011Z" fill="white" fill-opacity="0.6"/>
<path id="Vector_8" d="M28.7379 75.1553C29.9983 76.1326 29.7759 78.4365 34.0412 91.3294C34.296 92.0992 34.1046 98.3003 28.2715 76.5168C27.9911 75.4721 28.2391 75.5934 28.7379 75.1553Z" fill="white" fill-opacity="0.6"/>
<path id="Vector_9" d="M160.582 92.5952C160.28 91.7689 160.083 92.7691 161.383 88.9393C163.147 83.7384 164.033 79.3707 165.054 76.1528C165.474 74.825 166.718 75.1108 166.284 76.5883C164.33 83.2585 161.971 93.4634 160.582 92.5952Z" fill="white" fill-opacity="0.6"/>
<path id="Vector_10" d="M130.745 56.3146C129.903 56.0518 130.284 55.3508 130.868 54.7967C133.162 52.6196 139.672 47.0857 142.523 45.8967C142.992 45.7013 143.414 46.4373 142.98 46.7919C141.582 47.9364 138.223 49.7563 131.937 55.5921C131.592 55.9129 131.266 56.2809 130.745 56.3146Z" fill="white" fill-opacity="0.6"/>
<path id="Vector_11" d="M12.3791 118.761C14.017 118.761 16.8359 123.676 22.5261 128.746C23.6261 129.726 22.7647 130.596 21.6512 129.557C17.398 125.589 12.6285 120.542 12.1527 119.194C12.1136 119.085 12.305 118.893 12.3791 118.761Z" fill="white" fill-opacity="0.6"/>
<path id="Vector_12" d="M64.2381 55.8682C63.6881 57.1327 63.6908 56.0623 55.601 49.6886C53.6962 48.1882 51.9464 47.2958 51.4355 46.6002C51.1403 46.1971 51.36 45.2777 53.1354 46.4425C55.1292 47.7501 64.2193 54.2141 64.2381 55.8682Z" fill="white" fill-opacity="0.6"/>
<path id="Vector_13" d="M74.2609 38.9298C74.238 38.9905 67.9277 52.0169 67.8873 52.0776C67.6231 52.4752 66.8371 52.1975 66.9948 51.6219C67.6972 49.0673 72.8711 37.7759 73.9415 38.3434C74.0776 38.4149 74.1221 38.6548 74.2609 38.9298Z" fill="white" fill-opacity="0.6"/>
<path id="Vector_14" d="M171.574 129.941C171.105 128.798 171.825 129.78 178.754 121.719C179.543 120.801 181.117 118.965 181.799 118.725C182.066 118.63 182.516 118.932 182.437 119.392C182.321 120.047 172.144 131.328 171.574 129.941Z" fill="white" fill-opacity="0.6"/>
<path id="Vector_15" d="M127.565 51.8012C126.237 53.1546 127.561 52.6518 120.511 39.5715C119.827 38.3016 120.946 37.7071 121.675 39.0296C123.47 42.2851 126.621 48.1789 127.565 51.8012Z" fill="white" fill-opacity="0.6"/>
<path id="Vector_16" d="M176.247 93.0212C172.101 92.9188 167.976 94.0161 165.365 94.0067C165.202 94.0067 164.574 93.4486 165.103 93.1763C166.112 92.6599 178.22 90.6486 179.402 92.4011C179.928 93.1776 177.189 93.0212 176.247 93.0212Z" fill="white" fill-opacity="0.6"/>
<path id="Vector_17" d="M18.126 91.6016C19.1734 91.6932 30.1872 92.4913 29.7773 93.4552C29.7059 93.6223 29.6223 93.8731 29.4929 93.9081C29.1343 94.0065 28.7407 94.082 28.3767 94.0416C11.7348 92.188 19.3554 93.4862 15.4635 92.8135C15.4029 92.8027 15.0605 92.3026 15.4622 92.1017C16.2751 91.6959 15.8531 91.797 18.126 91.6016Z" fill="white" fill-opacity="0.6"/>
<path id="Vector_18" d="M20.303 131.492C21.546 132.445 19.2569 132.688 16.9342 133.402C9.61824 135.652 9.73417 135.799 9.20169 135.555C6.90323 134.501 18.2971 131.492 20.303 131.492Z" fill="white" fill-opacity="0.6"/>
<path id="Vector_19" d="M185.56 135.41C185.229 135.717 185.047 135.778 183.959 135.384C176.132 132.555 172.599 132.664 174.076 131.485C174.553 131.105 186.894 134.175 185.56 135.41Z" fill="white" fill-opacity="0.6"/>
<path id="Vector_20" d="M95.4903 9.39626C95.373 9.62678 94.8271 10.0851 94.6572 9.53646C94.3148 8.42565 93.696 -0.280194 94.8136 0.00694513C95.1358 0.0891774 95.4944 0.163321 95.5078 1.04496C95.5105 1.10697 95.6939 8.99588 95.4903 9.39626Z" fill="white" fill-opacity="0.6"/>
<path id="Vector_21" d="M99.3767 9.70381C98.89 9.7766 99.0626 6.33633 99.157 0.861813C99.1772 -0.297527 100.275 -0.348753 100.31 1.54259C100.462 9.9842 100.075 9.60001 99.3767 9.70381Z" fill="white" fill-opacity="0.6"/>
</g>
</g>
<path id="Vector_22" d="M74.8218 158.812C75.4743 157.594 75.8046 156.815 76.4436 155.612C77.3441 153.915 77.1324 155.058 80.3058 149.81C82.1904 146.692 82.5045 143.949 84.3163 132.006C84.5387 130.541 79.9863 120.483 78.7919 114.697C77.886 110.309 78.463 106.517 77.731 105.5C76.67 104.027 76.4692 101.733 74.5981 97.9107C73.2999 95.2591 68.8445 88.9717 65.0551 79.1294C63.9658 76.3012 60.7884 69.147 61.9276 67.1977C63.3727 64.7226 81.6781 51.7083 91.5204 43.4622C91.7051 41.7838 91.2481 41.9065 91.1847 41.1826C90.5026 33.5 91.4584 34.3614 91.7496 33.109C92.2322 31.033 91.4355 33.7399 93.5236 26.8985C94.0804 25.0759 93.9793 24.9047 95.1238 24.2198C95.8329 22.195 95.7762 22.315 95.8612 22.164C96.8102 20.4816 97.6608 21.6882 98.3079 23.5094C98.6463 24.4638 99.0184 24.0729 99.8501 24.7213C101.439 25.9588 102.611 28.9543 103.123 30.7715C103.185 30.9885 103.517 31.6679 103.668 32.1344C103.905 32.8583 103.892 33.3517 104.075 33.3449C104.692 33.3207 104.788 33.3786 105.028 33.9044C105.167 34.2077 105.179 34.5097 105.108 34.8345C103.467 42.408 103.621 41.3026 104.804 42.2044C116.743 51.2918 136.396 60.6959 135.726 66.2432C134.808 73.8396 131.367 82.1639 120.441 102.08C118.511 105.596 116.941 111.552 116.088 115.459C115.182 119.608 113.912 122.958 113.374 126.432C112.615 131.333 118.613 142.137 120.139 147.001C121.499 151.337 122.521 152.699 123.898 154.944C124.436 155.82 124.966 156.739 125.048 156.821C125.391 157.164 126.625 158.3 127.097 158.384C128.555 157.246 131.337 155.667 132.113 157.343C132.521 158.222 133.215 157.632 135.945 159.206C137.611 160.167 136.941 161.627 136.57 163.107C136.601 163.111 157.312 159.625 171.098 163.498C178.083 165.46 180.354 171.142 175.683 177.353C169.179 186.002 134.319 190.171 127.885 189.801C126.381 189.714 127.061 189.915 121.437 189.563C120.52 189.505 117.901 189.104 115.29 189.352C112.597 189.606 105.046 192.342 103.083 192.495C96.0148 193.044 87.6245 191.13 69.8272 189.083C54.5266 187.323 45.7642 187.383 35.0295 182.882C22.2997 177.544 22.4318 167.371 28.6437 165.124C32.2848 163.806 48.4185 161.772 55.3908 162.235C59.4538 162.505 59.2166 162.618 59.6722 162.382C62.5948 160.868 64.9135 161.25 66.9006 161.293C69.1276 161.341 69.8839 160.469 72.8469 159.007C73.3282 158.765 73.5695 158.812 74.8218 158.812ZM124.74 68.117C121.147 65.3077 124.861 68.4864 117.357 59.7779C115.927 58.1184 115.71 58.4959 110.616 54.1241C98.0302 43.322 104.022 48.3665 100.459 45.6838C98.5897 44.2764 98.7096 43.9731 98.2324 44.3694C86.8561 53.7884 78.1691 66.2136 74.2583 68.4055C73.8688 68.6239 73.1758 69.0971 73.0181 69.5447C73.6032 71.4683 74.1505 73.3934 75.1764 75.2955C83.7528 91.2054 86.0337 99.3518 87.6716 97.8703C88.4535 97.1626 89.3702 97.4039 90.7601 97.7058C91.9073 97.9552 92.7067 96.2203 92.793 94.8614C92.9156 92.9161 91.9882 89.9558 91.329 88.2343C90.8342 86.9428 90.4271 87.7759 87.9251 83.4554C87.2146 83.5646 86.9612 83.4459 86.6943 82.8919C86.298 82.0696 86.5891 81.587 86.9208 80.5988C85.8571 79.3586 84.9539 75.8455 86.3397 74.763C86.3869 74.2265 86.4274 73.7142 86.4813 73.2047C86.5528 72.5144 86.8156 72.8393 86.6323 72.0858C85.6981 68.2451 87.2457 62.8164 91.9639 59.5164C92.1405 59.3937 92.3036 59.2508 92.464 59.1254C92.3252 58.2438 92.6029 57.5981 93.3497 57.1694C93.9631 56.8175 91.9531 55.4748 93.7838 53.5013C95.9758 51.1381 101.7 50.2457 102.808 53.5916C103.675 56.2068 102.835 56.3039 103.355 56.614C103.807 56.8836 103.749 57.3055 103.695 57.7962C103.648 58.2343 103.642 58.2303 104.225 58.5228C107.556 60.1877 110.159 63.814 110.228 68.6037C110.265 71.227 109.652 71.5897 109.966 72.5104C110.35 73.6374 109.849 74.0337 109.351 74.6592C109.554 74.9868 110.354 75.3804 110.124 76.8027C110.005 77.5279 109.417 79.5338 108.789 79.9221C107.314 80.8347 110.405 81.6894 108.607 83.6428C108.236 84.0458 107.916 83.7924 107.461 83.5565C107.134 84.0175 107.491 83.4109 106.464 85.367C103.336 91.32 103.537 87.2515 103.91 93.113C104.006 94.608 103.785 94.7738 104.465 96.0288C104.893 96.8215 105.734 96.8134 106.775 96.6988C109.245 96.4292 108.278 98.8059 111.406 96.6233C115.648 93.6643 124.525 68.938 124.74 68.117Z" fill="white"/>
</g>
</svg>
