<svg width="88" height="85" viewBox="0 0 88 85" fill="none" xmlns="http://www.w3.org/2000/svg">
<g id="Group">
<path id="Vector" opacity="0.2" d="M2.95311 88.3083C-0.429533 82.6297 -0.279872 74.9136 3.31232 69.3695C4.87891 66.9595 7.05419 64.8804 7.93228 62.1187C9.60863 56.8229 5.9965 51.4961 4.21039 46.2416C1.50627 38.2979 3.08284 29.1853 7.32361 21.9967C11.5644 14.808 18.2299 9.4087 25.514 5.66439C36.9991 -0.241703 50.9088 -2.18626 62.7032 3.01648C74.4976 8.21922 83.2186 21.5829 81.1132 34.688C80.245 40.108 77.6906 45.2797 77.9501 50.7617C78.3093 58.1676 83.6576 64.2081 85.9028 71.252C88.7466 80.168 86.0524 90.7079 79.347 97.0278C72.6316 103.348 62.2841 105.116 53.9522 101.413C50.6993 99.9653 47.6459 97.7415 44.1136 97.4105C40.3219 97.0588 36.8494 98.8586 33.2871 99.8619C28.5175 101.207 26.3822 100.348 22.1414 98.1863C15.1865 94.6488 7.75268 96.3761 2.95311 88.3083Z" fill="url(#paint0_linear_1725_14379)"/>
<path id="Vector_2" d="M57.2753 73.6619C56.8762 74.6238 56.3274 75.5133 55.9981 76.5063C55.7886 77.1476 55.6788 77.8199 55.4094 78.4302C55.1599 78.9784 54.7907 79.4542 54.3317 79.8369C53.8727 80.2196 53.3239 80.4885 52.7552 80.6126C50.8094 81.016 48.5743 79.8472 46.9179 80.9747C46.848 81.0264 46.7881 81.0678 46.7183 81.1298C46.399 81.3781 46.1296 81.6884 45.8003 81.9263C44.3834 82.971 42.4077 82.4745 40.8311 81.6987C39.2645 80.923 37.7079 79.8679 35.9617 79.8886C35.353 79.899 34.7344 80.0438 34.1357 79.9714C33.0281 79.8576 32.1001 79.0818 31.4016 78.2026C28.5179 74.5824 28.907 68.5212 31.5413 64.87C32.0202 64.1976 32.5691 63.546 32.7387 62.7392C32.8984 61.9635 32.6788 61.1463 32.7986 60.3602C32.9582 59.2742 33.7365 58.426 34.3652 57.5468C35.1634 56.4401 35.7721 55.1885 36.1712 53.8646C36.301 53.4198 36.4107 52.975 36.5005 52.5303C36.7899 50.9788 36.8298 49.2824 37.7877 48.0619C39.4242 45.9932 42.9864 45.5588 45.3712 46.0139C48.0754 46.5518 50.55 47.8137 51.438 50.7408C51.8871 52.2303 51.8272 53.8232 51.927 55.3644C52.0267 56.9159 52.3361 58.5501 53.3638 59.6776C53.8428 60.2051 54.4614 60.6085 54.7708 61.2394C55.2697 62.2428 54.8606 63.4322 54.8007 64.5597C54.7708 65.0665 54.8107 65.5836 54.9204 66.0905C55.0701 66.7421 55.3396 67.3731 55.7187 67.9109C55.8285 68.0661 55.9382 68.2109 56.048 68.3557C56.6267 69.0797 57.3152 69.7314 57.6046 70.6106C57.9239 71.6139 57.6745 72.7103 57.2753 73.6619Z" fill="#403E3E"/>
<path id="Vector_3" d="M56.0482 68.3558C56.0482 68.3765 56.0482 68.4075 56.0382 68.4282C55.8785 69.266 55.4195 70.0004 55.0503 70.7658C53.9028 73.1034 53.5436 75.8341 54.0325 78.3993C54.1223 78.8751 54.2421 79.3612 54.3319 79.8473C53.8729 80.2301 53.3241 80.499 52.7553 80.6231C50.8096 81.0265 48.5744 79.8577 46.918 80.9851C46.8482 81.0368 46.7883 81.0782 46.7184 81.1403C46.3592 79.4646 46.5787 77.6442 46.9679 75.9479C47.0278 75.6893 47.0677 75.3686 46.8581 75.2135C46.7284 75.1204 46.5688 75.1411 46.4091 75.1411C45.2716 75.1514 44.2737 74.2309 43.8547 73.1345C43.4356 72.0381 43.4855 70.8175 43.6651 69.6487C43.8347 68.4903 44.1141 67.3318 44.1341 66.1527C44.144 64.3839 43.5254 62.6359 43.705 60.8775C43.8746 59.1709 44.8126 57.5676 46.1796 56.6264C46.5788 56.3471 48.1753 55.4472 48.6143 55.9747C48.8638 56.2747 48.315 57.9814 48.285 58.4054C48.1753 60.1638 48.5545 62.0153 49.672 63.391C50.8395 64.8287 52.6256 65.5838 54.3917 65.9665C54.5614 65.9975 54.741 66.0389 54.9007 66.0906C55.0503 66.7422 55.3197 67.3732 55.6989 67.911C55.8186 68.0662 55.9384 68.211 56.0482 68.3558Z" fill="#403E3E"/>
<path id="Vector_4" d="M36.0567 86.9724C36.1481 87.0087 36.2742 87.0572 36.4318 87.1141C36.7909 87.2439 37.3138 87.4175 37.9652 87.5913C39.2689 87.939 41.0826 88.2862 43.1257 88.2862C45.1846 88.2862 46.8928 88.1803 48.2266 87.9548C49.4762 87.7435 50.3663 87.4318 50.9116 87.0292C50.5615 85.3304 50.2616 82.6058 50.3295 79.6585M36.0567 86.9724L50.5795 79.6615M36.0567 86.9724C36.5731 83.2659 36.3314 78.9202 35.5905 76.6264L35.5905 76.6264L35.5894 76.623C35.4568 76.232 35.3114 75.8853 35.1614 75.6187L35.1615 75.6187L35.1567 75.6109C35.0721 75.4726 34.9793 75.3328 34.8897 75.198C34.8404 75.1238 34.7921 75.0511 34.7468 74.981C34.6145 74.7767 34.4958 74.5779 34.4041 74.3687L34.4034 74.3671C33.8781 73.1921 34.1919 71.7896 34.6313 70.4641C34.6531 70.4017 34.6719 70.3378 34.6886 70.2809L34.6894 70.278C34.7072 70.2174 34.7229 70.1643 34.7403 70.1145L34.7427 70.1077L34.7447 70.1008C34.9295 69.4572 35.0287 68.8271 35.1162 68.2089C35.1289 68.1193 35.1413 68.03 35.1537 67.9409C35.2274 67.4119 35.2998 66.892 35.4171 66.3622L35.4174 66.3609C35.4967 65.9932 35.6893 65.7582 35.9546 65.5915C36.23 65.4184 36.5879 65.3167 36.9934 65.2406C37.1121 65.2201 37.2345 65.2004 37.3568 65.1808C37.5288 65.1532 37.7008 65.1255 37.8627 65.0956L37.8627 65.0956L37.8649 65.0951C38.0261 65.0638 38.1798 65.034 38.3129 65.0143L38.3129 65.0143L38.3188 65.0133C38.9111 64.911 39.5289 64.8511 40.0373 64.8018C40.0847 64.7972 40.1311 64.7927 40.1765 64.7882C40.6113 64.7463 40.9456 64.717 41.1001 64.717H41.1162L41.1322 64.715C41.1761 64.7093 41.212 64.7035 41.2375 64.6991C41.2423 64.6983 41.2467 64.6975 41.2507 64.6968C41.2575 64.6956 41.2632 64.6945 41.2678 64.6936L41.2765 64.6919L41.2792 64.6914L41.2801 64.6912L41.2804 64.6911L41.2806 64.6911L41.2806 64.6911L41.2806 64.6911L41.2298 64.4463L41.2807 64.6911L41.4014 64.666L41.455 64.5549C41.4701 64.5235 41.4776 64.4889 41.4782 64.4859L41.4783 64.4857C41.4813 64.4727 41.4843 64.458 41.4871 64.4438C41.4928 64.4149 41.4991 64.3798 41.5048 64.3469C41.5106 64.3137 41.516 64.2813 41.52 64.2573L41.5247 64.2283L41.5261 64.2201L41.5264 64.2179L41.5265 64.2174L41.5265 64.2172L41.5265 64.2171L41.5265 64.2171L41.2797 64.1774L41.5265 64.2171L41.5297 64.1974V64.194L41.533 64.1725C41.537 64.1477 41.5427 64.1127 41.5497 64.0707C41.5637 63.9868 41.5823 63.8767 41.601 63.7668L41.6524 63.4662L41.6693 63.3676L41.6741 63.34L41.6753 63.3328L41.6756 63.3309L41.6757 63.3309L41.6757 63.3305L41.6758 63.3303L41.6758 63.3303L42.3143 59.6797L42.3159 59.6701L42.3169 59.6605C42.3701 59.1049 42.7263 58.7482 43.2655 58.5165C43.8121 58.2818 44.5104 58.1952 45.1472 58.1799C45.5855 58.1698 45.9833 58.19 46.2716 58.2128C46.3623 58.22 46.4419 58.2274 46.5084 58.2342L46.2486 64.498L46.2484 64.498V64.5084C46.2484 64.6009 46.2945 64.6668 46.3316 64.7028C46.3669 64.7373 46.4052 64.7569 46.4314 64.768C46.4826 64.7899 46.5398 64.8013 46.5935 64.8078C46.7038 64.8253 46.8655 64.836 47.0576 64.8472C47.1034 64.8499 47.1516 64.8526 47.2021 64.8554C47.3736 64.8651 47.5721 64.8764 47.798 64.8922L47.798 64.8923L47.8019 64.8925C47.9516 64.9006 48.1205 64.9155 48.3087 64.932C48.3523 64.9358 48.3969 64.9397 48.4426 64.9437L48.4533 64.9446H48.4641L48.4812 64.9447L48.4825 64.9447L48.5006 64.951L48.5305 64.9538C48.5847 64.9589 48.6365 64.964 48.689 64.9692L48.6892 64.9692C48.741 64.9743 48.7933 64.9795 48.8481 64.9847C49.0164 65.0027 49.1894 65.017 49.3645 65.0316C49.8204 65.0694 50.2907 65.1084 50.7287 65.2165C51.1027 65.3097 51.4138 65.4445 51.643 65.6381C51.8664 65.8267 52.023 66.0802 52.0786 66.4395L52.0788 66.4405C52.2072 67.249 52.1348 68.0916 51.98 68.9423C51.8763 69.5121 51.739 70.0708 51.6033 70.623C51.5348 70.9015 51.4668 71.1784 51.4037 71.4542C51.1525 72.5164 50.9718 73.5569 50.8314 74.6162C50.8248 74.6535 50.8216 74.6905 50.8195 74.7161L50.8193 74.7184C50.8166 74.7504 50.8148 74.7715 50.8116 74.7914L50.8115 74.7914L50.8106 74.7982C50.6203 76.2314 50.5001 77.674 50.3806 79.1198M36.0567 86.9724L50.6294 79.1443M50.3295 79.6585C50.3295 79.6576 50.3295 79.6567 50.3296 79.6557L50.5795 79.6615M50.3295 79.6585C50.3295 79.6595 50.3295 79.6605 50.3295 79.6615H50.5795M50.3295 79.6585C50.3298 79.5126 50.3489 79.3661 50.3658 79.2368C50.3712 79.1959 50.3763 79.1567 50.3806 79.1198M50.5795 79.6615C50.5795 79.5324 50.5956 79.4089 50.6121 79.2827C50.6181 79.2371 50.6241 79.1911 50.6294 79.1443M50.3806 79.1198C50.3804 79.1211 50.3803 79.1224 50.3802 79.1237L50.6294 79.1443M50.3806 79.1198C50.3807 79.1186 50.3808 79.1174 50.381 79.1161L50.6294 79.1443" fill="#F5A784" stroke="black" stroke-width="0.5"/>
<path id="Vector_5" d="M50.9994 74.2811C50.9871 74.3027 50.9756 74.3231 50.9648 74.3421C50.8478 74.2834 50.6835 74.1944 50.4859 74.0698C50.0687 73.8068 49.5038 73.3859 48.9221 72.7577C47.7616 71.5047 46.5239 69.4163 46.2689 66.0824C46.2355 65.6227 46.3746 65.2704 46.8126 64.7274C47.0552 64.4275 47.3772 64.0846 47.7947 63.6399C48.0363 63.3826 48.3099 63.0913 48.6186 62.7544C49.4532 61.8439 50.523 60.6231 51.8551 58.8997L51.8551 58.8997L51.8576 58.8964C51.9504 58.7722 52.0556 58.6569 52.1721 58.5294C52.1944 58.505 52.2172 58.48 52.2403 58.4545C52.3797 58.301 52.529 58.1303 52.6558 57.9305C54.038 55.8149 55.02 53.7477 55.6564 52.2097C55.9748 51.4402 56.207 50.8024 56.3599 50.3562C56.4363 50.1331 56.4929 49.9579 56.5306 49.838C56.5494 49.7781 56.5634 49.732 56.5729 49.7006L56.5835 49.6648L56.5863 49.6554L56.587 49.6529L56.5872 49.6521L56.5873 49.6519C56.5873 49.6519 56.5873 49.6518 56.3471 49.5825L56.5873 49.6518L56.6212 49.5345L56.5495 49.4357C56.1143 48.8358 55.1454 47.4841 54.1563 46.1041C53.0239 44.5243 51.865 42.9075 51.4503 42.3397C50.8476 41.5102 50.3055 40.6509 49.7687 39.7767C49.6523 39.5873 49.5362 39.3971 49.4197 39.2064C49 38.5189 48.5759 37.8245 48.1247 37.1371C47.8779 36.7574 47.5828 36.3768 47.2921 36.0021C47.1988 35.8818 47.106 35.7621 47.0154 35.6432C46.6363 35.1459 46.2893 34.6551 46.0572 34.1493L46.0571 34.1491C45.6689 33.3055 45.5936 32.1771 45.6259 30.9828C45.641 30.4228 45.6793 29.858 45.7164 29.3102C45.7186 29.2778 45.7208 29.2453 45.723 29.213C45.7619 28.6379 45.798 28.0812 45.8006 27.5834H45.8006V27.5821C45.8006 27.4975 45.8034 27.4646 45.8094 27.4456C45.8132 27.4404 45.8255 27.4287 45.8616 27.4234C45.9096 27.4163 45.9599 27.4287 45.9888 27.4476C46.0968 27.5231 46.1748 27.6706 46.243 27.8623L46.2429 27.8624L46.245 27.8678C46.6355 28.8899 46.8897 29.9732 46.9976 31.0667L46.9982 31.0764C47.0175 31.4071 47.0391 31.7766 47.1593 32.1292C47.4299 32.9689 48.0105 33.775 48.6444 34.5077C49.05 34.9766 49.494 35.4329 49.9025 35.8528C50.1288 36.0855 50.3443 36.3071 50.5364 36.5133L50.5375 36.5146C51.9 37.9581 53.3315 39.3276 54.7693 40.6732L54.7703 40.6741C55.2434 41.1122 55.7431 41.5527 56.2489 41.9987C56.5446 42.2593 56.8424 42.5219 57.1382 42.7869L57.1404 42.7889C58.7359 44.1843 60.2985 45.6539 61.3854 47.3387C61.6812 47.8032 61.7813 48.5637 61.6823 49.5951C61.5844 50.6161 61.2964 51.8554 60.8696 53.2359C60.0165 55.9955 58.6206 59.2814 57.1349 62.4416C55.65 65.6001 54.0791 68.6252 52.879 70.8613C52.2791 71.9791 51.7721 72.8994 51.4151 73.5401C51.2366 73.8604 51.0956 74.1109 50.9994 74.2811Z" fill="#F5A784" stroke="#403E3E" stroke-width="0.5"/>
<path id="Vector_6" d="M39.7928 37.1377C39.8508 37.0485 39.9115 36.9593 39.9742 36.8701L39.929 36.8545L40.0179 36.8085C40.2128 36.5355 40.4253 36.2632 40.6354 35.9939C40.7272 35.8761 40.8186 35.759 40.9079 35.6426C41.2896 35.1452 41.6388 34.6547 41.8707 34.1494L41.8708 34.1491C42.2588 33.3059 42.3318 32.1778 42.297 30.9834C42.2808 30.4288 42.242 29.8695 42.2043 29.3267C42.2017 29.2889 42.1991 29.2511 42.1964 29.2135C42.1566 28.6383 42.1198 28.0815 42.1173 27.5834L42.1173 27.5822C42.1173 27.4965 42.1144 27.4638 42.1082 27.4449C42.1036 27.4375 42.0912 27.4247 42.0565 27.4191C42.0139 27.4121 41.965 27.4228 41.9307 27.4465C41.8236 27.5205 41.7575 27.6599 41.6723 27.8694C41.2914 28.8928 41.0374 29.9768 40.9299 31.0704C40.9267 31.1064 40.9236 31.1429 40.9205 31.1799C40.8953 31.4805 40.8676 31.8112 40.77 32.1248L40.7689 32.1284L40.7688 32.1284C40.4936 32.968 39.913 33.7743 39.2785 34.5077C38.8606 34.9908 38.404 35.4585 37.9848 35.8879C37.7702 36.1078 37.5655 36.3176 37.3807 36.5142C36.1006 37.8805 34.7402 39.1718 33.3903 40.4533C33.3134 40.5262 33.2366 40.5991 33.1598 40.672L33.159 40.6728C32.6163 41.1832 32.0445 41.6824 31.4558 42.1892C31.3748 42.261 31.2936 42.3329 31.2124 42.4049C29.4837 43.9362 27.7123 45.5054 26.543 47.3379C26.3367 47.662 26.2258 48.1382 26.2191 48.7667C26.2124 49.3916 26.3089 50.1424 26.4935 50.9941C26.8626 52.6971 27.5762 54.7696 28.4746 56.981C30.2706 61.402 32.7901 66.342 34.7146 69.9235C35.5169 71.4164 36.2146 72.6717 36.7116 73.5536C36.9601 73.9945 37.1584 74.3421 37.2945 74.5793C37.3241 74.6308 37.3507 74.6771 37.3742 74.718C37.4725 74.6507 37.6019 74.5565 37.7545 74.433C38.1198 74.1371 38.6176 73.6728 39.1378 73.0043C40.1767 71.6692 41.3104 69.5125 41.6496 66.2408L41.6507 66.2299L41.6528 66.2192C41.6575 66.1951 41.6583 66.168 41.6583 66.101V66.0882L41.6596 66.0753C41.7088 65.5996 41.5443 65.2434 41.0393 64.6494L41.0387 64.6487C40.806 64.3731 40.5073 64.0538 40.1397 63.6607C39.2259 62.6837 37.886 61.2511 36.073 58.9002M39.7928 37.1377C39.7928 37.1377 39.7929 37.1376 39.7929 37.1376L40.0024 37.2739L39.7928 37.1377ZM39.7928 37.1377C39.3606 37.8019 38.9575 38.4637 38.558 39.1195C37.8908 40.215 37.2338 41.2938 36.468 42.3393L36.4674 42.3401C36.1212 42.8169 35.1107 44.2255 34.057 45.6942C32.9899 47.1816 31.8785 48.7308 31.3682 49.4361L31.2966 49.535L31.3306 49.6523L31.5707 49.5826M31.5707 49.5826C31.3306 49.6523 31.3307 49.6523 31.3307 49.6524L31.3307 49.6526L31.3309 49.6533L31.3317 49.6559L31.3345 49.6653L31.3452 49.7012C31.3547 49.7326 31.3689 49.7788 31.3878 49.8388C31.4257 49.959 31.4826 50.1345 31.5595 50.358C31.7131 50.8049 31.9462 51.4436 32.2653 52.2137C32.903 53.7533 33.8852 55.821 35.2629 57.9319L35.2638 57.9332C35.3945 58.1309 35.5425 58.3003 35.6825 58.4546C35.7093 58.4841 35.7356 58.5129 35.7615 58.5412C35.8741 58.6643 35.9778 58.7778 36.073 58.9002M31.5707 49.5826C31.5707 49.5826 32.7382 53.6062 35.4723 57.7953L36.6697 42.487C36.3228 42.9648 35.3137 44.3713 34.2612 45.8384C33.1945 47.3253 32.083 48.8746 31.5707 49.5826ZM36.073 58.9002C36.0731 58.9002 36.0731 58.9003 36.0732 58.9004L36.2705 58.7469L36.0725 58.8996C36.0727 58.8998 36.0728 58.9 36.073 58.9002Z" fill="#F5A784" stroke="#403E3E" stroke-width="0.5"/>
<path id="Vector_7" d="M51.1976 87.1289C50.0302 88.1115 47.2662 88.5356 43.1351 88.5356C38.9941 88.5356 35.7911 87.1289 35.7911 87.1289C36.3399 83.4053 36.1005 78.9886 35.3621 76.7027C35.2323 76.32 35.0926 75.9891 34.9529 75.7408C34.6935 75.3167 34.3842 74.9237 34.1846 74.4686C33.6158 73.1963 33.9651 71.7069 34.4041 70.3829C34.444 70.2692 34.474 70.145 34.5139 70.0313C30.6623 62.8633 24.4159 50.2339 26.3517 47.193C27.5989 45.2277 29.5148 43.5728 31.3109 41.9902C31.9196 42.6005 34.3443 45.0829 34.6137 45.3622C33.6059 46.7586 32.6081 48.1756 31.5903 49.572C31.5803 49.5927 32.7477 53.6059 35.4818 57.795C35.7213 58.157 36.0306 58.4259 36.2801 58.7466C38.8345 62.0358 40.4011 63.4942 41.2193 64.4561C41.4388 65.0147 41.6783 65.6353 41.9078 66.2559C42.307 67.3937 42.6662 68.5625 42.7659 69.2658L46.5078 64.2906L46.4978 64.5182C46.4978 64.5389 46.5377 64.5596 46.6275 64.5699C47.4158 63.608 49.0124 62.1703 51.6666 58.7466C51.9161 58.4259 52.2254 58.157 52.4549 57.795C55.1989 53.6059 56.3564 49.5823 56.3564 49.5823C55.4284 48.2894 54.5005 46.9965 53.5725 45.6932L57.3043 42.5902C58.9009 43.9969 60.4974 45.476 61.595 47.193C64.339 51.4958 51.0679 74.6548 51.0679 74.6548C51.0579 74.7065 51.0579 74.7685 51.048 74.8306C50.8584 76.258 50.7386 77.6957 50.6189 79.1438C50.6089 79.3196 50.579 79.4851 50.579 79.6506C50.5191 82.6812 50.8384 85.4636 51.1976 87.1289Z" fill="#03C0FF"/>
<g id="Group_2">
<path id="Vector_8" d="M48.1744 54.1361L48.1385 54.6313L48.5578 54.3653C48.788 54.2192 48.9957 54.1465 49.1589 54.1658C49.2929 54.1817 49.4627 54.2687 49.6094 54.6214C49.8356 55.1814 49.625 55.9044 49.1812 56.5446C48.9641 56.8579 48.702 57.1341 48.4386 57.3385C48.171 57.5461 47.9214 57.6649 47.7297 57.6924L47.5814 57.7137L47.5303 57.8544C46.378 61.0231 43.6092 61.4321 42.1899 61.3621C40.7831 61.2899 38.5098 59.4818 38.9043 54.4115L38.9043 54.4111C38.9689 53.5664 39.0552 52.7961 39.1939 52.1481C39.3335 51.4955 39.5211 50.9933 39.7717 50.665L39.7721 50.6646C40.9534 49.1105 42.7591 48.5445 44.3985 48.6859C46.0521 48.8286 47.4627 49.6796 47.9104 50.8701C48.2003 51.646 48.2735 52.7707 48.1744 54.1361Z" fill="#F5A784" stroke="black" stroke-width="0.5"/>
<path id="Vector_9" d="M43.0655 56.647C42.846 56.6056 42.347 56.709 42.2572 56.4608C42.1774 56.2539 42.5865 55.0748 42.6464 54.8782C42.7063 54.661 42.7761 54.4542 42.836 54.268C42.816 54.2576 42.7961 54.237 42.7761 54.2266C42.7262 54.1956 42.6863 54.1749 42.6364 54.1646C42.3969 54.9713 42.2074 55.8195 41.9878 56.5953C41.9679 56.6677 42.0178 56.7401 42.0876 56.7401C42.4069 56.7504 42.7163 56.8332 43.0256 56.8538C43.1353 56.8435 43.1753 56.6677 43.0655 56.647Z" fill="#262626"/>
<path id="Vector_10" d="M41.4989 52.4683C41.1996 52.2925 40.6308 52.2201 40.3913 52.5407C40.3514 52.6028 40.4013 52.6959 40.4612 52.6959C40.6108 52.6959 40.7505 52.6235 40.9102 52.6235C41.0798 52.6131 41.2295 52.6649 41.3891 52.7269C41.5288 52.7683 41.6286 52.5511 41.4989 52.4683Z" fill="#3B2645"/>
<path id="Vector_11" d="M45.7098 53.1716C45.5601 52.7165 44.8017 52.6338 44.4625 52.8924C44.3826 52.9544 44.4225 53.0785 44.5024 53.1096C44.6919 53.182 44.8915 53.1199 45.0911 53.1406C45.2607 53.1613 45.4004 53.2544 45.5501 53.3164C45.6299 53.3578 45.7397 53.2647 45.7098 53.1716Z" fill="#3B2645"/>
<path id="Vector_12" d="M43.5247 57.8881C43.2154 58.0225 42.9859 58.1984 42.6266 58.188C42.3472 58.188 42.0579 58.0329 41.7984 58.1156C41.7585 58.126 41.7286 58.1777 41.7485 58.2191C41.9381 58.5397 42.457 58.5914 42.7763 58.5811C43.1255 58.5708 43.5446 58.457 43.7442 58.126C43.834 57.9812 43.6744 57.826 43.5247 57.8881Z" fill="#262626"/>
<path id="Vector_13" d="M41.5978 54.2475C41.2485 54.3716 40.9192 54.4854 40.55 54.3509C40.3205 54.2681 40.1609 54.0716 39.9414 53.9785C39.9114 54.2992 40.2407 54.4957 40.4902 54.5888C40.8793 54.7336 41.3383 54.6819 41.7075 54.475C41.8173 54.413 41.7375 54.1957 41.5978 54.2475Z" fill="#3B2645"/>
<path id="Vector_14" d="M45.969 54.6197C45.48 54.7748 44.6618 55.1162 44.4024 54.3921C44.3625 54.2784 44.2228 54.299 44.2028 54.4232C44.1529 54.8266 44.6319 55.0438 44.9512 55.0955C45.3404 55.1576 45.8193 55.0851 46.0688 54.7542C46.1087 54.6818 46.0288 54.599 45.969 54.6197Z" fill="#3B2645"/>
</g>
<path id="Vector_15" d="M48.5142 48.1758C47.9654 47.7207 47.3667 47.3173 46.7081 47.0794C45.6105 46.707 44.4331 46.8518 43.2856 46.9863C42.0782 47.1311 40.8209 47.2862 39.7732 47.9172C38.8252 48.4964 37.4981 50.2651 38.3762 51.4443C39.2244 52.5924 41.3697 50.4306 41.9884 49.779C42.2777 50.5961 43.2157 50.9478 44.0539 51.0099C44.8921 51.0719 45.7702 50.9582 46.5485 51.2788C47.0673 51.496 47.4465 51.9408 47.8157 52.3648C47.9554 52.5303 48.1051 52.7062 48.2049 52.9027C48.3845 53.2647 48.4244 53.6785 48.4543 54.0819C48.604 53.844 48.9033 53.7923 49.1728 53.7716C49.4422 53.7509 49.7315 53.7405 49.9411 53.5543C50.0908 53.4199 50.1506 53.2234 50.2105 53.0268C50.4001 52.3545 50.2305 51.527 50.2005 50.834C50.1407 49.6031 49.4322 48.9308 48.5142 48.1758Z" fill="#403E3E"/>
<path id="Vector_16" d="M47.5957 74.6963C46.6577 76.1858 44.0833 75.3583 42.8261 75.048C42.7063 75.017 42.6165 75.1515 42.6664 75.2549C43.1653 76.2272 44.5822 76.1961 45.5002 76.1444C46.5081 76.0927 47.5558 75.9789 48.1545 75.0377C48.394 74.6757 47.8252 74.3343 47.5957 74.6963Z" fill="#262626"/>
<path id="Vector_17" d="M56.3474 49.5826C55.4194 48.2897 54.4915 46.9968 53.5635 45.6935L54.9405 44.5454C55.6689 45.6004 56.6667 47.5036 56.3474 49.5826Z" fill="#403E3E"/>
<path id="Vector_18" d="M34.6045 45.3623C33.5967 46.7587 32.5988 48.1758 31.5811 49.5721C31.6709 49.3446 32.8782 46.2002 33.5568 44.2866C33.9559 44.7107 34.3351 45.0831 34.6045 45.3623Z" fill="#403E3E"/>
<path id="Vector_19" d="M32.5288 29.1441C31.3813 29.1028 30.2138 29.3924 29.0763 29.5785C27.7891 29.7854 26.452 29.9095 25.2147 30.3439C24.9752 30.4267 25.0151 30.7991 25.2746 30.8094C26.4221 30.8508 27.5895 30.6025 28.7171 30.4474C30.0043 30.2612 31.3713 30.1888 32.5986 29.7544C32.9179 29.6303 32.868 29.1545 32.5288 29.1441Z" fill="#747474"/>
<path id="Vector_20" d="M35.4326 22.059C33.846 21.2936 32.5488 20.4765 31.1319 19.3904C29.9744 18.5009 28.7671 17.6114 27.3003 17.4666C27.0508 17.4459 26.941 17.8596 27.1705 17.963C28.7571 18.6974 30.0343 19.6283 31.4113 20.7247C32.5389 21.6246 33.7861 22.6383 35.243 22.7727C35.6022 22.7934 35.7519 22.2142 35.4326 22.059Z" fill="#747474"/>
<path id="Vector_21" d="M43.4949 12.3668C43.3452 10.3705 43.3452 8.36388 43.1556 6.37795C43.1157 6.01593 42.6368 6.00558 42.6068 6.37795C42.4172 8.45697 42.5569 10.6084 42.6966 12.6978C42.8263 14.5906 42.9162 16.5765 43.3752 18.4177C43.475 18.8107 44.0836 18.7383 44.0736 18.3246C44.0138 16.3386 43.6446 14.3527 43.4949 12.3668Z" fill="#747474"/>
<path id="Vector_22" d="M54.9503 14.7147C52.9646 16.2766 50.9589 18.097 49.2427 19.9795C48.9832 20.2588 49.3325 20.7966 49.6618 20.5484C51.6874 19.0486 53.703 17.2385 55.4691 15.418C55.8084 15.0664 55.3494 14.3941 54.9503 14.7147Z" fill="#747474"/>
<path id="Vector_23" d="M65.1973 29.0301C63.6008 28.4923 61.6849 28.606 60.0185 28.5336C58.3522 28.4612 56.4862 28.2337 54.8697 28.7198C54.7101 28.7715 54.7101 29.0094 54.8697 29.0611C56.4862 29.5576 58.3422 29.3921 60.0185 29.4852C61.7149 29.568 63.5209 29.9403 65.1973 29.7024C65.5465 29.6507 65.4767 29.1232 65.1973 29.0301Z" fill="#747474"/>
</g>
<defs>
<linearGradient id="paint0_linear_1725_14379" x1="0.513671" y1="9.6872" x2="108.316" y2="116.036" gradientUnits="userSpaceOnUse">
<stop stop-color="#25D366"/>
<stop offset="1" stop-color="#03C0FF"/>
</linearGradient>
</defs>
</svg>
