<svg width="96" height="76" viewBox="0 0 96 76" fill="none" xmlns="http://www.w3.org/2000/svg">
<g id="Group">
<path id="Vector" opacity="0.2" d="M0.609625 55.2198C0.210019 53.984 -0.174788 52.6816 0.0842158 51.4161C0.35062 50.1137 1.26084 49.0407 1.82324 47.8345C3.66588 43.8606 1.49764 39.3318 0.853829 35.0175C-0.122987 28.5054 2.74826 21.5641 8.09115 17.5532C13.434 13.5423 21.0192 12.6247 27.1983 15.237C31.9787 17.2572 35.8786 21.1867 40.9551 22.3411C44.2037 23.0811 47.593 22.5927 50.9231 22.4965C55.7775 22.3559 60.7356 23.0737 65.0721 25.2123C69.4086 27.3436 73.0864 30.9918 74.6034 35.5059C75.8393 39.1689 75.6395 43.2094 77.1417 46.7763C79.4061 52.1636 84.9562 55.3456 89.8033 58.7275C92.8966 60.8883 96.1082 63.8188 95.9972 67.541C95.901 70.5973 93.4368 72.9505 90.7209 74.1049C87.2577 75.5776 83.9646 75.0003 80.2941 75.0521C68.3207 75.2223 56.3473 75.3851 44.3739 75.5553C43.1307 75.5701 41.8505 75.5849 40.6961 75.1409C39.8081 74.8005 39.0533 74.2159 38.2614 73.7053C35.9304 72.2031 33.962 71.8923 31.3201 71.6407C28.5451 71.3743 25.8884 70.4271 23.0616 70.2643C18.3477 69.9905 12.4054 69.6353 8.26875 67.2154C3.94708 64.6698 2.05265 59.6821 0.609625 55.2198Z" fill="url(#paint0_linear_1725_14333)"/>
<path id="Vector_2" d="M38.6024 42.8022C37.263 46.6872 33.1115 52.6443 33.1115 52.6443L18.8515 46.7242C18.8885 46.2136 18.1781 43.3794 18.3039 42.373C18.3113 42.2842 18.3335 42.2102 18.3557 42.1584C18.4001 42.0474 18.4519 41.9289 18.5037 41.8179C18.7405 41.2925 18.9921 40.8041 19.1771 40.4489C19.3695 40.0863 19.5027 39.8643 19.5027 39.8643C19.5027 39.8643 19.1623 39.1539 18.1189 38.6507C17.5195 38.3547 16.6832 38.1327 15.551 38.1327C15.477 38.1327 15.4104 38.1327 15.3512 38.1253C14.1524 38.0513 14.589 37.1929 15.4474 36.2827C16.4612 35.18 18.0597 33.9886 18.0597 33.9886L21.7301 36.3641C21.9373 36.4751 22.2999 36.2087 22.6699 35.7646C23.0177 35.3576 23.3804 34.7952 23.669 34.2106C23.8614 33.8332 24.0094 33.441 24.1056 33.0932C24.224 32.6492 26.0962 33.8628 28.4568 35.5648C30.8915 37.3187 33.8589 39.5979 35.9976 41.1297C37.226 42.0104 38.1806 42.6468 38.6024 42.8022Z" fill="#F5A784"/>
<path id="Vector_3" d="M90.4988 74.1198C90.1584 76.14 86.6878 73.9496 85.8664 73.4538C85.3705 73.1504 84.9265 72.9654 84.3789 72.773C84.2827 72.736 83.2689 72.3142 83.1949 72.403C83.1949 72.403 82.1219 72.1662 80.4273 71.7222C77.6004 70.9821 73.0271 69.6575 68.8683 67.9037C62.223 65.099 57.9531 63.8632 54.7118 63.3378C54.2826 63.2712 53.7572 63.1676 53.1504 63.0492C49.184 62.2574 41.954 60.363 38.2984 57.5287C36.0709 55.8045 34.4281 54.1321 33.3699 52.948C32.4301 51.8898 31.9639 51.2164 31.9639 51.2164C31.9639 51.2164 32.6225 51.0462 33.5031 50.1064C34.1839 49.3664 35.0275 48.1602 35.7453 46.1621C35.7749 46.0807 35.7971 46.0215 35.8119 45.9697C35.8119 45.9697 36.0561 46.0511 36.4557 46.1991C38.2614 46.8726 43.2861 48.8854 43.4267 50.5578C43.4267 50.5578 43.4341 50.5652 43.4637 50.58C44.1223 50.8686 56.9245 56.5741 56.9615 56.5963C59.5219 57.7803 83.1505 69.7463 83.5649 69.9609C84.8821 70.6639 86.377 71.0709 87.7682 71.6259C88.6414 71.959 90.706 72.8544 90.4988 74.1198Z" fill="#F5A784"/>
<g id="Group_2">
<path id="Vector_4" d="M28.4421 6.60851C28.4421 6.60851 28.0054 5.30608 28.1534 3.97406C28.257 3.04164 28.1682 0.977013 27.7834 0.407204C27.7834 0.407204 27.6872 0.318402 27.5096 0.222201C27.4874 0.207401 27.4578 0.192598 27.4282 0.185198C27.2654 0.103797 27.0582 0.0297985 26.8066 0.0149982C26.7918 0.0149982 26.7696 0.00759088 26.7474 0.00759088C26.5698 0.000190756 26.3626 0.0149955 26.148 0.0815966C26.1332 0.0889967 26.111 0.0964 26.0962 0.0964C25.9334 0.148201 25.7558 0.222196 25.5782 0.333198C25.5782 0.333198 25.7706 2.42004 25.5856 3.10085C25.5856 3.10085 25.1416 1.88723 24.742 1.82803L24.4756 1.93163C24.4756 1.93163 24.8012 3.29324 24.89 3.91485C25.112 5.42448 26.2812 6.42351 26.2812 6.42351C26.2812 6.42351 27.9832 7.60753 28.4421 6.60851Z" fill="#F5A784"/>
<path id="Vector_5" d="M26.1397 0.0742188C26.1249 0.0816189 26.1027 0.0890109 26.0879 0.0890109C26.2507 1.01403 26.2581 1.93904 26.2951 2.88626C26.2951 2.90106 26.3247 2.90846 26.3321 2.88626C26.5245 1.96124 26.3691 0.999234 26.1397 0.0742188Z" fill="#E0855C"/>
<path id="Vector_6" d="M26.7994 0.00739606C26.7846 0.00739606 26.7624 0.00740012 26.7402 0C26.903 0.925015 26.9104 1.85003 26.9474 2.79725C26.9474 2.81205 26.977 2.81944 26.977 2.80464C27.1546 1.87223 27.0288 0.925011 26.7994 0.00739606Z" fill="#E0855C"/>
<path id="Vector_7" d="M27.5091 0.222061C27.4869 0.207261 27.4573 0.192459 27.4277 0.185059C27.5683 1.05827 27.5757 1.93889 27.6127 2.8343C27.6127 2.8491 27.6423 2.8565 27.6423 2.8417C27.8273 1.96849 27.7089 1.08048 27.5091 0.222061Z" fill="#E0855C"/>
<path id="Vector_8" d="M26.5105 38.2882C26.5105 38.2882 22.285 39.598 23.3876 35.6463C24.8085 30.5698 26.8583 22.4741 27.0951 19.2846C27.3319 16.0952 26.1923 5.63881 26.1923 5.63881L28.1829 5.38721C28.1829 5.38721 30.4326 15.6512 30.4548 19.6916C30.477 23.7395 29.7222 37.2669 26.5105 38.2882Z" fill="#F5A784"/>
</g>
<path id="Vector_9" d="M21.0191 35.9129C20.501 37.5631 19.1098 38.3031 18.1034 38.6435C17.504 38.3475 16.6678 38.1255 15.5356 38.1255C15.4616 38.1255 15.395 38.1255 15.3358 38.1181L14.877 37.8887C14.877 37.8887 15.0768 37.1931 15.432 36.2755C16.4458 35.1729 18.0442 33.9814 18.0442 33.9814L21.0191 35.9129Z" fill="#E0855C"/>
<g id="Group_3">
<path id="Vector_10" d="M17.2226 35.9128C17.0672 36.3494 16.8895 36.7638 16.6971 37.1338C16.2309 38.0366 15.6833 38.9468 15.6315 39.9532C15.5649 41.3371 16.4307 42.7431 15.9571 44.0455C15.7277 44.6893 15.2097 45.1777 14.9359 45.7919C14.9211 45.8141 14.9137 45.8437 14.9063 45.8659C14.5215 46.8132 14.8027 47.8714 15.0025 48.863C15.1949 49.862 15.2763 51.009 14.6029 51.7712C14.2107 52.2153 13.6187 52.4447 13.0341 52.5409C11.7095 52.7481 10.1702 52.193 9.68183 50.9424C8.97882 49.1812 10.592 46.9982 9.61523 45.3701C9.27482 44.8225 8.69761 44.4599 8.31281 43.9493C6.58118 41.6405 9.12682 39.3094 8.98622 36.9414C8.92702 35.9868 8.40161 35.0988 8.40901 34.1441C8.41641 32.4421 9.83723 30.3183 11.2803 29.4747C12.6937 28.6533 14.3217 28.6903 15.7277 29.4599C16.5121 29.8891 17.0597 30.5477 17.3854 31.3099C17.9626 32.6863 17.7406 34.4328 17.2226 35.9128Z" fill="#3B2645"/>
<path id="Vector_11" d="M15.6313 39.9531C15.5647 41.3369 16.4305 42.7429 15.9569 44.0453C15.7275 44.6891 15.2095 45.1775 14.9357 45.7918C14.5657 45.2441 14.3881 44.5781 14.4843 43.9269C14.5509 43.4903 14.7285 43.0611 14.7951 42.6245C14.9283 41.7069 14.5731 40.7893 14.1069 39.9975C13.8183 39.509 13.1597 38.6654 13.3743 38.0512C13.5815 37.437 14.4399 37.9772 14.5509 37.215C14.5731 37.0152 14.5361 36.8154 14.5361 36.6156C14.5287 36.29 14.6175 35.957 14.8321 35.7128C15.1133 35.3946 15.5647 35.2762 15.9939 35.3132C16.4601 35.3502 16.8967 35.5796 17.2297 35.9052C17.0743 36.3418 16.8967 36.7562 16.7043 37.1262C16.2307 38.0364 15.6831 38.9466 15.6313 39.9531Z" fill="#2C1C33"/>
<path id="Vector_12" d="M17.1998 31.0732C16.1268 30.5034 15.1722 30.089 14.4988 30.1482C11.5313 30.4368 10.0439 33.9741 11.2279 35.6021C11.6645 36.2089 12.5155 36.7787 13.6034 37.3189C13.3296 37.4891 12.9818 37.8221 13.2112 38.3031C13.4924 38.8877 14.7874 38.6361 15.5718 38.0959C18.1174 38.6953 19.5753 37.0081 20.1229 36.0535C20.7297 35.0175 20.4411 32.8049 17.1998 31.0732Z" fill="#F5A784"/>
<path id="Vector_13" d="M16.5566 32.6643C16.5566 32.6643 16.8156 32.4497 16.305 32.2055C15.8462 31.9909 15.7944 32.2203 15.7944 32.2203C15.7944 32.2203 15.6834 32.4127 16.083 32.6051C16.4752 32.7975 16.5566 32.6643 16.5566 32.6643Z" fill="#3B2645"/>
<path id="Vector_14" d="M15.1211 35.3132C15.1211 35.3132 15.3801 35.0986 14.8695 34.8544C14.4107 34.6398 14.3589 34.8692 14.3589 34.8692C14.3589 34.8692 14.2479 35.0616 14.6475 35.254C15.0397 35.4464 15.1211 35.3132 15.1211 35.3132Z" fill="#3B2645"/>
<path id="Vector_15" d="M16.7863 34.6991C16.8455 34.5511 17.1119 34.2773 17.0009 34.1219C16.9047 33.9961 16.0389 33.7963 15.8909 33.7519C15.7355 33.7075 15.5875 33.6705 15.4469 33.6335C15.4469 33.6187 15.4395 33.5965 15.4395 33.5817C15.4395 33.5447 15.4469 33.5077 15.4543 33.4707C16.0389 33.6335 16.6235 33.8481 17.1785 34.0035C17.2303 34.0183 17.2525 34.0775 17.2303 34.1219C17.1119 34.3217 17.0379 34.5511 16.9195 34.7509C16.8825 34.8249 16.7567 34.7731 16.7863 34.6991Z" fill="#E0855C"/>
<path id="Vector_16" d="M14.8987 32.109C14.9135 31.85 15.0985 31.4726 15.3871 31.443C15.4389 31.4356 15.4759 31.5022 15.4463 31.5466C15.3871 31.6428 15.2909 31.702 15.2243 31.7982C15.1577 31.9018 15.1207 32.0128 15.0911 32.1312C15.0689 32.2422 14.8913 32.2274 14.8987 32.109Z" fill="#3B2645"/>
<path id="Vector_17" d="M13.6408 35.0097C13.4262 34.7359 13.6778 34.2327 13.9738 34.1217C14.0404 34.0995 14.0996 34.1735 14.0848 34.2327C14.0552 34.3733 13.9294 34.4769 13.8702 34.6101C13.8184 34.7285 13.811 34.8469 13.7888 34.9653C13.7814 35.0319 13.6778 35.0615 13.6408 35.0097Z" fill="#3B2645"/>
<path id="Vector_18" d="M17.3555 35.4687C17.5627 35.3281 17.7552 35.2467 17.8958 35.0247C18.0068 34.8545 18.029 34.6103 18.1844 34.4771C18.2066 34.4549 18.251 34.4549 18.2658 34.4919C18.3842 34.7287 18.2066 35.0765 18.066 35.2763C17.918 35.4909 17.6812 35.7055 17.4073 35.7055C17.2889 35.6981 17.2519 35.5353 17.3555 35.4687Z" fill="#E0855C"/>
<path id="Vector_19" d="M10.4 36.1049C11.0809 36.7709 11.8579 37.6664 12.8273 37.844C14.8105 38.214 12.7237 35.2021 12.5535 34.6693C12.3981 34.1735 12.3907 33.6407 12.2649 33.1301C12.1983 32.8489 11.7173 32.2865 11.7543 32.0571C11.7913 31.8129 12.3167 31.5169 12.4647 31.2948C12.8569 30.7028 13.3379 30.4956 13.8633 30.8064C14.3887 31.1173 14.7513 30.0738 15.2619 30.244C15.7799 30.4142 14.4553 29.7778 14.4553 29.7778L11.9615 30.2218L10.5258 32.1089L10.1484 34.3733L10.4 36.1049Z" fill="#3B2645"/>
</g>
<path id="Vector_20" d="M22.1512 46.7985C22.2326 51.2533 21.6036 56.5814 21.2262 58.8459C20.8857 60.8365 19.7535 64.618 18.7027 67.911C17.6519 71.1967 16.6825 73.9865 16.6825 73.9865L16.5641 74.4305C16.4309 74.9115 15.9869 75.2519 15.4911 75.2371L10.052 75.1557C9.76336 75.1483 9.66716 74.7857 9.90396 74.6303C10.9918 73.9199 13.7298 73.4833 14.0332 73.2613C14.1368 73.1873 14.2996 72.8395 14.4846 72.3733C14.4846 72.3733 17.5779 61.8873 17.8591 58.7127C18.1403 55.5306 16.9267 47.6865 17.5187 43.6312C17.6001 43.0762 17.7111 42.6026 17.8443 42.203C18.1625 41.241 18.5991 40.6712 19.0135 40.3382C19.7017 39.7905 20.3455 39.8793 20.3455 39.8793C20.8413 40.131 21.2114 40.7008 21.4852 41.5C21.9218 42.7876 22.1216 44.6968 22.1512 46.7985Z" fill="#F5A784"/>
<path id="Vector_21" d="M35.9896 41.1149C35.1978 42.9205 33.7917 46.0582 31.6753 49.1736C31.6087 49.2698 31.5495 49.366 31.4829 49.4622C31.3423 49.6694 31.2017 49.8841 31.0537 50.0913C30.9649 50.2245 30.8835 50.3429 30.7873 50.4687C30.5727 50.7795 30.3433 51.0829 30.1139 51.3863L22.1809 48.0932C22.1291 47.9008 22.1587 46.7538 21.0413 45.1702C20.4123 44.2748 19.4059 43.2461 17.8223 42.1805C18.1405 41.2185 18.5771 40.6487 18.9915 40.3157C19.0433 40.3527 19.1025 40.3897 19.1617 40.4341C19.7241 40.8041 20.5529 41.2555 21.4631 41.4775C22.4991 41.7143 23.6536 41.6477 24.6452 40.7819C26.4434 39.2131 24.1938 36.9782 22.6397 35.7498C22.9876 35.3428 23.3502 34.7804 23.6388 34.1958C24.697 34.7138 26.4508 35.4168 28.434 35.55C30.8835 37.3112 33.8509 39.5831 35.9896 41.1149Z" fill="#03C0FF"/>
<path id="Vector_22" d="M91.9343 71.1892C91.1277 72.1956 89.0853 71.241 88.2417 70.8266C86.9097 70.1606 85.5998 69.317 84.1938 68.8063C83.7276 68.6361 83.2614 68.466 82.8026 68.2884C79.924 67.2005 77.0675 66.0313 74.1667 64.9805C73.9373 64.8991 34.4502 49.2774 34.4502 49.2774C35.1088 48.049 35.5084 47.0056 35.7378 46.1472C35.8784 45.6144 35.9524 45.1704 35.982 44.793C36.1004 43.5053 35.7822 42.9059 35.7822 42.9059C35.7822 42.9059 36.685 42.7949 38.2243 42.7949C39.8005 42.8023 42.0575 42.9207 44.7142 43.4017C49.539 44.2823 56.251 48.8482 59.2924 51.1867C59.5588 51.3939 59.7956 51.5789 60.0028 51.7417C62.5633 53.8063 66.3225 56.1595 72.8568 59.2306C77.1859 61.273 81.4484 63.9741 83.8312 65.5651C85.0374 66.3717 85.77 66.8971 85.77 66.8971C85.7552 67.0081 86.7469 67.4817 86.8357 67.5335C87.3463 67.8073 87.7829 68.0145 88.3453 68.1847C89.2629 68.4733 93.2146 69.5834 91.9343 71.1892Z" fill="#F5A784"/>
<path id="Vector_23" d="M59.3003 51.194C58.4715 53.155 57.6426 54.9384 56.836 56.5295C56.614 56.9661 56.3994 57.3953 56.1774 57.8023C53.0916 56.5073 39.9046 51.3864 35.7383 49.7806C36.2711 48.8926 36.8335 47.8121 37.3589 46.5393C37.8103 45.4367 38.2395 44.1935 38.5873 42.8022C40.1414 42.8244 42.2652 42.9577 44.7294 43.4091C49.5469 44.2897 56.2662 48.8556 59.3003 51.194Z" fill="#25D366"/>
<g id="Group_4">
<path id="Vector_24" d="M56.8359 56.5297C53.8537 55.1607 43.4343 50.5578 43.4343 50.5578C43.3085 49.1148 39.5418 47.4054 37.3588 46.5396C36.8334 47.805 36.2784 48.8854 35.7382 49.7808C34.4727 51.8972 33.3701 52.9481 33.3701 52.9481C34.4283 54.1321 36.0638 55.8045 38.2986 57.5287C41.9543 60.363 49.1842 62.2574 53.1506 63.0492C53.9425 61.806 54.9045 60.1928 55.9479 58.2391C51.234 55.4567 44.0189 50.9278 43.4713 50.58C44.1225 50.8612 53.9499 55.2051 56.8359 56.5297Z" fill="#25D366"/>
<path id="Vector_25" d="M81.6707 68.9616C79.125 67.6518 76.5424 66.4011 74.0189 65.0395C71.4881 63.6853 56.8728 56.5442 56.8284 56.522C56.6064 56.9586 56.3918 57.3878 56.1698 57.7948C56.0958 57.9428 56.0144 58.0834 55.9404 58.224C57.1022 58.9122 58.1161 59.4894 58.8339 59.8742C62.5339 61.8501 81.0934 68.747 81.6707 68.9616Z" fill="#E0855C"/>
<path id="Vector_26" d="M56.8359 56.5298C53.9572 55.2125 44.1225 50.8613 43.4639 50.5801C44.0115 50.9279 51.234 55.4568 55.9405 58.2392C56.0145 58.0986 56.0959 57.958 56.1699 57.81C56.3919 57.3956 56.6139 56.9664 56.8359 56.5298Z" fill="#0E863B"/>
</g>
<path id="Vector_27" d="M42.4274 50.5647C40.6958 50.6165 39.2306 49.4621 37.6692 48.8923C37.5434 48.8479 37.4397 49.0403 37.5433 49.1217C38.3204 49.7581 39.3046 50.1651 40.2296 50.5351C40.9474 50.8237 41.7096 51.1789 42.4866 50.9495C42.6938 50.8829 42.6494 50.5573 42.4274 50.5647Z" fill="#0E863B"/>
<path id="Vector_28" d="M27.1985 44.0605C27.1837 43.8755 26.9247 43.8385 26.8729 44.0235C26.6953 44.6599 26.6139 45.2741 26.1772 45.8143C25.785 46.3027 25.2078 46.6283 24.5788 46.7023C24.2902 46.7319 24.2902 47.1759 24.5862 47.1537C26.0884 47.0575 27.3243 45.5701 27.1985 44.0605Z" fill="#262626"/>
<path id="Vector_29" d="M30.6318 38.3475C30.5726 38.0958 30.1582 38.155 30.1804 38.4214C30.2396 39.0283 30.1582 39.5685 29.8178 40.0865C29.4626 40.6267 28.9742 40.7451 28.4858 41.0929C28.3082 41.2187 28.4266 41.4703 28.6412 41.4333C29.9954 41.1817 30.9722 39.7017 30.6318 38.3475Z" fill="#262626"/>
<path id="Vector_30" d="M25.0223 49.2921L22.1806 48.1081C22.1288 47.9157 22.1584 46.7613 21.041 45.1851C21.0484 45.1851 23.2388 46.3395 25.0223 49.2921Z" fill="#262626"/>
<path id="Vector_31" d="M21.9587 21.0236C21.3371 18.9072 20.4195 16.8574 19.6943 14.7705C19.0875 13.0093 18.6952 10.8929 17.5038 9.41285C17.4298 9.31665 17.2226 9.33145 17.2448 9.48685C17.2744 9.73846 17.2596 9.70885 17.4372 9.89385C17.415 10.0123 17.4742 10.1307 17.6518 10.2639C17.822 10.6117 17.9626 10.9743 18.0884 11.3369C18.2216 11.7217 18.34 12.1139 18.4584 12.4987C18.7766 13.5199 19.1022 14.5411 19.4501 15.555C20.0939 17.4346 20.7155 19.3956 21.6405 21.1642C21.7293 21.3492 22.0179 21.216 21.9587 21.0236Z" fill="#747474"/>
<path id="Vector_32" d="M50.8716 10.6339C48.5849 12.2989 46.5647 14.4006 44.5149 16.3394C42.3466 18.3892 40.1488 20.4391 38.1433 22.6443C37.9953 22.8071 38.2247 23.0217 38.3875 22.8811C40.5484 20.9349 42.5982 18.8554 44.7147 16.8648C46.8163 14.8816 49.1251 13.0242 51.0714 10.8855C51.1898 10.7523 51.027 10.5229 50.8716 10.6339Z" fill="#747474"/>
<path id="Vector_33" d="M53.7056 22.3113C51.8186 22.8515 50.05 23.8728 48.3036 24.746C46.4239 25.6784 44.4777 26.5812 42.7017 27.6912C42.5463 27.7874 42.6573 28.076 42.8423 28.002C44.6701 27.262 46.4239 26.3148 48.1925 25.4564C50.0722 24.5462 52.1072 23.7544 53.824 22.5629C53.9424 22.4741 53.861 22.2669 53.7056 22.3113Z" fill="#747474"/>
<path id="Vector_34" d="M56.1695 32.8271C53.3278 32.3165 50.1458 32.1019 47.2819 32.4423C47.0821 32.4645 47.0895 32.7383 47.2893 32.7531C50.2198 33.0195 53.1724 33.1676 56.1029 33.4266C56.4433 33.4562 56.5099 32.8863 56.1695 32.8271Z" fill="#747474"/>
<path id="Vector_35" d="M91.9345 71.189C91.1279 72.1955 89.0854 71.2408 88.2418 70.8264C86.9098 70.1604 85.6 69.3168 84.194 68.8062C83.7278 68.636 83.2615 68.4658 82.8027 68.2882C83.1949 67.4002 83.5205 66.4826 83.8314 65.5649C85.0376 66.3716 85.7702 66.897 85.7702 66.897C85.7554 67.008 86.747 67.4816 86.8358 67.5334C87.3464 67.8072 87.783 68.0144 88.3454 68.1846C89.263 68.4732 93.2147 69.5832 91.9345 71.189Z" fill="#03C0FF"/>
<path id="Vector_36" d="M90.4993 74.1197C90.1589 76.1399 86.6882 73.9495 85.8668 73.4537C85.371 73.1503 84.927 72.9653 84.3794 72.7729C84.2832 72.7359 83.2694 72.3141 83.1954 72.4029C83.1954 72.4029 82.1224 72.1661 80.4277 71.7221C80.8643 71.2633 81.375 70.8193 81.7154 70.3235C81.9374 69.9905 82.1372 69.6575 82.3222 69.3022C82.744 69.5168 83.151 69.7389 83.5654 69.9535C84.8826 70.6565 86.3774 71.0635 87.7687 71.6185C88.6419 71.9589 90.7065 72.8543 90.4993 74.1197Z" fill="#03C0FF"/>
</g>
<defs>
<linearGradient id="paint0_linear_1725_14333" x1="-9.45581e-07" y1="19.5576" x2="54.2557" y2="118.871" gradientUnits="userSpaceOnUse">
<stop stop-color="#25D366"/>
<stop offset="1" stop-color="#03C0FF"/>
</linearGradient>
</defs>
</svg>
