<svg width="183" height="116" viewBox="0 0 183 116" fill="none" xmlns="http://www.w3.org/2000/svg">
<g id="Group 1171275352">
<g id="Group" opacity="0.5">
<path id="Vector" opacity="0.5" d="M57.5846 49.876C57.5846 49.876 54.9925 28.4705 43.8665 15.6952C42.3886 13.9973 39.5576 15.0784 39.6051 17.3155C39.6064 17.353 39.6064 17.3904 39.6078 17.4293C39.753 21.2479 52.2103 37.3549 57.5846 49.876Z" fill="#08C3EE"/>
<path id="Vector_2" opacity="0.5" d="M58.9364 56.0043C58.9364 56.0043 47.8498 29.2482 28.9135 17.4161C27.7586 16.695 26.1951 16.9559 25.4202 18.0678C24.9153 18.7916 24.69 19.9209 25.2546 21.6857C26.7651 26.3915 47.8851 42.2322 58.9364 56.0043Z" fill="#08C3EE"/>
</g>
<path id="Vector_3" opacity="0.5" d="M0.137689 64.2569C1.22748 53.1046 20.0498 53.3776 20.0498 53.3776C20.0498 53.3776 35.6584 69.9568 39.3404 69.7976C43.021 69.637 28.8035 53.0538 28.8035 53.0538C35.672 51.2167 54.9259 56.6731 54.9259 56.6731C54.9259 56.6731 57.5534 78.6285 61.082 77.5795C64.6106 76.5305 57.7488 58.2559 57.7488 58.2559C64.8522 59.1216 72.5011 65.8384 72.5011 65.8384C82.5698 77.1767 67.2828 89.3379 67.2828 89.3379C67.2828 89.3379 68.3604 96.9271 74.5856 104.796C74.5856 104.796 75.9292 106.217 77.4832 108.752L75.6402 109.061C75.4054 108.6 75.1584 108.157 74.8964 107.736C74.8964 107.731 74.8937 107.73 74.891 107.727C74.8869 107.721 74.8829 107.715 74.8801 107.709C74.7051 107.449 74.4554 107.08 74.1446 106.632L74.1432 106.63C74.1432 106.629 74.1419 106.629 74.1419 106.628C73.3913 105.636 72.8729 104.896 72.5323 104.357C72.5309 104.356 72.5296 104.354 72.5296 104.352C70.255 101.223 67.0589 97.188 65.2769 96.527C65.2769 96.527 65.4317 96.2099 65.528 95.6279C65.4479 95.9142 65.3652 96.2139 65.2769 96.527C63.2724 103.719 47.6937 107.473 38.6007 107.17C29.5078 106.866 32.917 103.78 36.964 99.0224C41.0111 94.2644 51.1042 93.6476 53.7642 91.6018C56.4242 89.556 51.8764 88.7184 46.0949 90.1447C40.3135 91.571 38.3809 97.8369 29.0722 100.312C19.7635 102.788 9.52783 86.4491 9.52783 86.4491C16.4059 87.3523 27.5074 81.8343 27.5752 79.5383C27.6431 77.2423 10.334 80.3719 7.51517 80.1591C4.69908 79.9464 -0.952104 75.4092 0.137689 64.2569Z" fill="#08C3EE"/>
<path id="Vector_4" opacity="0.5" d="M182.312 61.9823C182.494 53.7401 168.716 52.3352 168.716 52.3352C168.716 52.3352 155.857 63.1209 153.181 62.6901C150.505 62.2592 162.349 51.3531 162.349 51.3531C157.49 49.4251 142.944 51.7719 142.944 51.7719C142.944 51.7719 139.099 67.5912 136.613 66.5248C134.127 65.4584 140.743 52.6885 140.743 52.6885C135.477 52.7166 129.298 56.9714 129.298 56.9714C120.946 64.3987 131.051 74.5877 131.051 74.5877C131.051 74.5877 129.599 80.0414 124.361 85.261C124.361 85.261 123.255 86.1842 121.896 87.9049L123.215 88.2875C123.427 87.9704 123.647 87.6667 123.875 87.3817C123.876 87.379 123.877 87.3777 123.879 87.3764C123.882 87.3723 123.886 87.3683 123.888 87.3643C124.039 87.189 124.253 86.9415 124.519 86.6391C124.519 86.6391 124.521 86.6391 124.521 86.6378C124.521 86.6364 124.522 86.6378 124.522 86.6364C125.157 85.9755 125.601 85.4804 125.897 85.1151C125.898 85.1138 125.898 85.1124 125.9 85.1111C127.836 83.0198 130.526 80.3424 131.885 80.0119C131.885 80.0119 131.799 79.7671 131.78 79.3336C131.814 79.5503 131.848 79.7751 131.885 80.0119C132.719 85.4376 143.773 89.5091 150.444 90.0617C157.114 90.6143 154.894 88.0694 152.355 84.2481C149.814 80.4267 142.494 79.1155 140.729 77.3935C138.965 75.6715 142.362 75.448 146.46 76.9827C150.559 78.5174 151.422 83.2606 158.007 85.8617C164.592 88.4628 173.504 77.3975 173.504 77.3975C168.399 77.4724 160.77 72.4937 160.922 70.8105C161.074 69.1259 173.447 72.8884 175.525 72.9727C177.604 73.0583 182.132 70.2244 182.312 61.9823Z" fill="#08C3EE"/>
<g id="Group_2">
<g id="Group_3">
<path id="Vector_5" d="M46.5537 60.6881V71.1179C46.5537 73.1142 44.8206 74.7479 42.7035 74.7479H34.7777C32.6606 74.7479 30.9275 73.1142 30.9275 71.1179V60.6881C30.9275 58.6918 32.6606 57.0581 34.7777 57.0581H42.7035C44.8206 57.0568 46.5537 58.6905 46.5537 60.6881Z" fill="#25D366"/>
<path id="Vector_6" d="M46.5537 60.6881V66.4991C46.5537 68.4954 44.8206 70.1291 42.7035 70.1291H34.7777C32.6606 70.1291 30.9275 68.4941 30.9275 66.4991V60.6881C30.9275 58.6918 32.6606 57.0581 34.7777 57.0581H42.7035C44.8206 57.0568 46.5537 58.6905 46.5537 60.6881Z" fill="#188842"/>
<path id="Vector_7" d="M134.368 65.9021C134.368 71.2394 133.212 76.3345 131.121 80.9721C124.849 94.8914 110.187 104.716 93.2086 104.716H81.4421C80.7363 104.716 80.0361 104.7 79.3385 104.667C70.7165 104.252 62.7731 101.304 56.332 96.6013C52.2063 93.5908 48.6967 89.8578 46.0231 85.6109C42.3805 79.8254 40.2837 73.0832 40.2837 65.9007C40.2837 60.5634 41.44 55.471 43.5314 50.8294C49.8001 36.9128 64.4641 27.0864 81.4421 27.0864H93.2086C108.649 27.0864 122.173 35.2122 129.214 47.1512C132.494 52.7187 134.368 59.1157 134.368 65.9021Z" fill="#25D366"/>
<path id="Vector_8" d="M100.174 88.2378L96.3341 111.747C95.8238 113.568 97.2801 115.351 99.2778 115.351H109.367C111.53 115.351 113.512 114.211 114.502 112.398L130.184 82.9019L100.174 88.2378Z" fill="#188842"/>
<path id="Vector_9" d="M77.3353 115.351H67.2449C65.0829 115.351 63.1001 114.212 62.1108 112.398L52.4126 96.2507L46.0217 85.6108L77.201 88.6414L78.3274 97.0923L79.3358 104.667L80.279 111.746C80.7893 113.569 79.333 115.351 77.3353 115.351Z" fill="#188842"/>
<path id="Vector_10" d="M128.172 61.4144C119.865 83.9451 112.001 95.9912 80.1583 97.0389C79.5408 97.059 78.9301 97.0777 78.3275 97.0924C69.2373 97.3266 61.8503 97.0282 56.3308 96.6013C54.899 96.4903 53.5921 96.3712 52.4127 96.2508L46.0219 85.6109C42.3793 79.8254 40.2825 73.0832 40.2825 65.9007C40.2825 60.5634 41.4388 55.471 43.5301 50.8294C49.7988 36.9128 64.4629 27.0864 81.4408 27.0864H93.2073C108.648 27.0864 122.172 35.2122 129.213 47.1512C130.188 51.6295 129.42 58.0279 128.172 61.4144Z" fill="#25D366"/>
<path id="Vector_11" d="M76.5891 36.8125H60.401C58.7683 36.8125 57.4451 35.8773 57.4451 34.7252V13.8817C57.4451 13.5258 57.5645 13.202 57.7681 12.921C58.5593 11.8372 60.6398 11.3903 62.1883 12.2186C68.3349 15.5034 78.4049 22.6443 79.5382 34.5834C79.6522 35.7889 78.2991 36.8125 76.5891 36.8125Z" fill="#25D366"/>
<path id="Vector_12" d="M61.0577 36.8124H60.3995C58.7668 36.8124 57.4436 35.8771 57.4436 34.7251V13.8816C57.4436 13.5257 57.563 13.2019 57.7666 12.9209C57.8358 12.9771 57.9037 13.0386 57.9661 13.1055C61.4825 16.7971 66.5514 24.0505 65.1237 34.21C64.9161 35.6858 63.1599 36.8124 61.0577 36.8124Z" fill="#188842"/>
<path id="Vector_13" d="M54.9368 53.0219C56.2687 53.0219 57.3485 52.0035 57.3485 50.7473C57.3485 49.491 56.2687 48.4727 54.9368 48.4727C53.6049 48.4727 52.5251 49.491 52.5251 50.7473C52.5251 52.0035 53.6049 53.0219 54.9368 53.0219Z" fill="#403E3E"/>
</g>
</g>
<g id="Group_4">
<path id="Vector_14" d="M157.432 114.824C169.707 114.824 179.659 105.013 179.659 92.91C179.659 80.8073 169.707 70.9961 157.432 70.9961C145.156 70.9961 135.204 80.8073 135.204 92.91C135.204 105.013 145.156 114.824 157.432 114.824Z" fill="#E2810E"/>
<path id="Vector_15" d="M159.371 114.824C171.647 114.824 181.598 105.013 181.598 92.91C181.598 80.8073 171.647 70.9961 159.371 70.9961C147.095 70.9961 137.143 80.8073 137.143 92.91C137.143 105.013 147.095 114.824 159.371 114.824Z" fill="#FFC76C"/>
<g id="Group_5">
<path id="Vector_16" d="M145.05 107.287C141.225 103.517 139.118 98.5017 139.118 93.1684C139.118 87.8351 141.224 82.8216 145.05 79.0511C148.874 75.2806 153.961 73.2026 159.37 73.2026C164.78 73.2026 169.865 75.2792 173.69 79.0511C177.514 82.8216 179.622 87.8364 179.622 93.1684C179.622 98.5004 177.516 103.515 173.69 107.287C169.865 111.058 164.779 113.136 159.37 113.136C153.961 113.134 148.876 111.058 145.05 107.287ZM140.327 93.1684C140.327 103.521 148.87 111.943 159.37 111.943C169.871 111.943 178.414 103.521 178.414 93.1684C178.414 82.8162 169.871 74.3935 159.37 74.3935C148.87 74.3935 140.327 82.8162 140.327 93.1684Z" fill="#FFA412"/>
</g>
<g id="Group_6">
<path id="Vector_17" d="M162.165 98.9636C162.217 98.5328 162.2 98.1461 162.118 97.8035C162.034 97.461 161.868 97.1399 161.621 96.8415C161.373 96.5418 161.041 96.2541 160.626 95.9772C160.211 95.7002 159.698 95.4165 159.086 95.1262C158.034 94.6191 157.085 94.104 156.24 93.5848C155.394 93.0643 154.685 92.4957 154.113 91.8775C153.54 91.2594 153.121 90.5663 152.856 89.7969C152.592 89.0275 152.52 88.1404 152.641 87.1356C152.745 86.2646 152.998 85.4885 153.398 84.8075C153.798 84.1264 154.321 83.5538 154.967 83.0881C155.613 82.6238 156.362 82.2719 157.214 82.0338C158.067 81.7956 159.002 81.6886 160.019 81.7153L160.416 78.4238L163.103 78.7383L162.701 82.0753C163.649 82.3107 164.491 82.664 165.23 83.135C165.968 83.6059 166.575 84.1759 167.051 84.8449C167.526 85.5139 167.862 86.2793 168.061 87.1383C168.257 87.9986 168.295 88.9406 168.172 89.9655L163.319 89.3982C163.467 88.1685 163.301 87.2159 162.819 86.5402C162.339 85.8658 161.633 85.4738 160.705 85.3654C160.201 85.3065 159.759 85.3253 159.379 85.4216C158.999 85.5166 158.676 85.6718 158.413 85.8846C158.148 86.0986 157.94 86.3622 157.79 86.6767C157.639 86.9911 157.54 87.339 157.494 87.7176C157.448 88.0963 157.463 88.4469 157.537 88.768C157.612 89.0891 157.771 89.3955 158.014 89.6899C158.257 89.9829 158.59 90.2719 159.017 90.5556C159.443 90.8392 159.976 91.1429 160.618 91.4681C161.655 91.9953 162.594 92.5211 163.434 93.0456C164.273 93.5701 164.979 94.1441 165.551 94.7676C166.123 95.3911 166.542 96.0869 166.807 96.8562C167.071 97.6256 167.145 98.5073 167.025 99.5015C166.917 100.403 166.66 101.195 166.254 101.875C165.848 102.556 165.323 103.123 164.679 103.578C164.034 104.033 163.281 104.372 162.419 104.593C161.559 104.815 160.618 104.912 159.6 104.887L159.232 107.947L156.563 107.635L156.929 104.59C156.01 104.389 155.136 104.084 154.306 103.675C153.475 103.265 152.759 102.733 152.158 102.074C151.556 101.416 151.106 100.624 150.81 99.6942C150.513 98.7656 150.438 97.6858 150.586 96.4562L155.439 97.0235C155.351 97.7514 155.382 98.3709 155.53 98.882C155.678 99.3931 155.909 99.8159 156.221 100.148C156.533 100.481 156.902 100.732 157.331 100.901C157.758 101.071 158.202 101.182 158.661 101.236C159.188 101.297 159.657 101.285 160.07 101.198C160.484 101.111 160.838 100.965 161.135 100.761C161.432 100.556 161.667 100.3 161.841 99.9925C162.01 99.6861 162.119 99.3436 162.165 98.9636Z" fill="#FFA412"/>
</g>
</g>
<g id="Group_7">
<path id="Vector_18" d="M62.5898 86.8562C62.5898 86.8562 59.7846 90.7498 57.2128 90.8033C54.641 90.8581 50.7283 88.9983 50.7283 88.9983C50.7283 88.9983 48.3669 83.8095 49.9683 81.7797C49.9683 81.7797 51.5738 81.0853 53.254 82.3123C53.5417 82.5237 53.8348 82.7899 54.1239 83.1338C54.5311 83.6168 54.9884 83.8911 55.4743 84.0356C57.3092 84.5856 59.4874 83.2917 60.3017 84.5414C60.778 85.2679 61.2951 85.8138 61.7199 86.1978C62.2247 86.6394 62.5898 86.8562 62.5898 86.8562Z" fill="#FFEDDC"/>
<path id="Vector_19" d="M26.02 114.94C26.02 114.94 35.934 91.2541 53.7806 90.8032C53.7806 90.8032 70.2537 92.6082 71.1698 114.94H26.02Z" fill="#FFEDDC"/>
<path id="Vector_20" d="M48.8923 91.527C48.8923 91.527 56.0459 93.0951 58.2526 92.1733C58.2526 92.1733 58.5865 89.2243 55.5736 89.6377C53.5121 89.9214 52.1685 88.9433 51.3786 88.5473C50.2617 87.9866 48.5951 90.2934 48.8923 91.527Z" fill="#2B478B"/>
<path id="Vector_21" d="M55.1174 87.0807C54.66 87.4192 53.2554 82.312 53.2554 82.312C53.5431 82.5234 53.8362 82.7897 54.1253 83.1335C54.5325 83.6166 54.9898 83.8909 55.4757 84.0354C55.4798 84.1852 55.5612 86.7515 55.1174 87.0807Z" fill="#E5C1A1"/>
<path id="Vector_22" d="M61.7214 86.1966C61.621 86.2555 58.3123 88.209 57.8644 88.209C57.407 88.209 60.3032 84.5415 60.3032 84.5415C60.7782 85.268 61.2953 85.8139 61.7214 86.1966Z" fill="#E5C1A1"/>
<path id="Vector_23" d="M35.7061 108.323C35.5229 108.169 42.7225 97.8721 44.7053 97.7972C46.6881 97.7222 51.1437 100.053 54.3696 100.354C57.5956 100.655 60.7225 99.752 61.3318 101.632C61.9412 103.512 63.62 110.176 62.5899 111.243C61.5612 112.308 39.6649 111.658 35.7061 108.323Z" fill="#F9DDBF"/>
</g>
<g id="Group_8">
<g id="Group_9">
<g id="Group_10">
<path id="Vector_24" d="M122.408 95.4776C122.751 95.8656 122.796 96.3004 122.625 96.7634C122.625 96.7647 122.624 96.7674 122.622 96.7701C122.307 97.6277 121.268 98.5844 120.06 99.5411C119.905 99.6642 119.768 99.7752 119.649 99.8796C119.618 99.9064 119.586 99.9345 119.556 99.9612C119.532 99.9826 119.509 100.004 119.486 100.024C118.359 101.048 118.784 101.282 116.761 103.358C114.454 105.725 112.866 105.767 112.414 105.551C112.031 105.368 112.809 104.113 113.669 102.701C113.711 102.633 113.752 102.565 113.794 102.495C113.908 102.308 114.022 102.118 114.136 101.929C115.144 100.232 114.885 99.4354 114.646 96.9079C114.452 94.8554 111.407 85.4371 111.407 85.4371L115.827 84.6865C115.827 84.6865 117.158 92.1847 118.625 93.3394C119.41 93.9549 120.288 93.9629 121.041 94.4192C121.094 94.4513 121.147 94.4834 121.199 94.5169C121.626 94.7992 122.063 95.0882 122.408 95.4776Z" fill="#FFB27D"/>
<path id="Vector_25" d="M122.408 95.4783C122.751 95.8663 122.796 96.3011 122.625 96.7641C122.625 96.7654 122.624 96.7681 122.622 96.7708C122.237 97.6271 121.223 98.5798 120.056 99.5324C119.904 99.6569 119.768 99.7719 119.649 99.879C119.618 99.9057 119.586 99.9338 119.557 99.9606C119.532 99.982 119.509 100.003 119.486 100.024C118.36 101.047 118.784 101.281 116.761 103.358C114.454 105.725 112.866 105.766 112.414 105.551C112.031 105.368 112.809 104.112 113.669 102.701C114.118 102.539 116.204 101.703 117.781 99.7131C119.17 97.9656 120.097 95.7205 121.043 94.4199C121.096 94.452 121.149 94.4841 121.2 94.5176C121.626 94.7999 122.063 95.0889 122.408 95.4783Z" fill="#233862"/>
<path id="Vector_26" d="M86.7609 92.7549C86.4882 94.0996 84.5434 93.8761 82.3692 93.3516C80.195 92.8271 80.7121 93.4506 77.6192 93.1135C74.5262 92.7763 73.5898 91.639 73.4948 91.1854C73.4106 90.7826 74.9388 90.6408 76.5782 90.4548C76.7845 90.4321 76.9908 90.4067 77.1985 90.3812C79.0496 90.1524 80.404 88.975 82.0856 88.0076C83.6775 87.0911 86.0539 83.3594 86.0539 83.3594L90.295 83.6912C90.295 83.6912 88.0692 87.0242 87.2088 88.4732C86.7026 89.3256 86.7297 90.4522 86.7922 91.3232C86.8261 91.7982 86.8573 92.2812 86.7609 92.7549Z" fill="#FFB27D"/>
<path id="Vector_27" d="M82.3692 93.3533C80.1964 92.8302 80.7121 93.4523 77.6192 93.1152C74.5262 92.778 73.5898 91.6407 73.4948 91.1871C73.4106 90.7843 74.9388 90.6425 76.5782 90.4565L76.5932 90.4873C76.5932 90.4873 78.4484 91.7838 81.0229 91.8441C83.1211 91.8949 85.3441 91.3022 86.7935 91.3249C86.8261 91.7986 86.8573 92.2816 86.7609 92.7552C86.4882 94.1013 84.542 93.8765 82.3692 93.3533Z" fill="#233862"/>
<path id="Vector_28" d="M103.015 66.0158L106.981 76.5352L112.157 90.2699C112.157 90.2699 113.562 90.4037 114.907 90.0224C116.146 89.6691 117.567 88.7459 117.567 88.7459C117.567 88.7459 116.13 73.9984 113.448 65.5328C112.761 63.3599 111.99 61.6017 111.141 60.6129C106.984 55.7693 103.015 66.0158 103.015 66.0158Z" fill="#11161E"/>
<path id="Vector_29" d="M107.048 49.3097C109.645 48.4841 117.054 49.5438 124.496 50.9808L126.054 48.4466L142.13 47.209C142.13 47.209 147.435 58.8069 144.531 66.1967C144.105 67.2831 143.256 67.9789 141.81 68.003C141.81 68.0043 141.576 68.003 141.575 68.003C141.575 68.003 132.007 67.9976 128.9 67.9976C120.905 67.9976 111.981 62.58 110.826 62.3526C108.937 61.9793 108.181 65.7056 106.29 69.618C104.401 73.5303 88.5264 86.9452 88.5264 86.9452C88.5264 86.9452 86.0863 86.9693 85.0793 86.596C83.9949 86.1959 83.5986 85.6754 83.5986 85.6754C83.5986 85.6754 101.189 51.1735 107.048 49.3097Z" fill="#403E3E"/>
<path id="Vector_30" d="M121.576 26.4123C126.646 30.4772 138.861 37.5218 138.928 37.491C138.928 37.491 142.841 39.8018 145.511 38.6685C149.961 36.7779 153.377 30.1614 147.222 22.8398C144.152 19.1884 141.607 17.9855 142.205 13.1312C142.852 7.87154 140.443 1.2591 134.303 0.982129C133.79 0.959383 130.681 0.549947 128.462 1.23635C122.807 2.98646 113.35 23.7189 121.576 26.4123Z" fill="#403E3E"/>
<path id="Vector_31" d="M143.228 48.9295C142.897 49.83 134.205 50.6328 129.26 50.309C127.69 50.2087 126.493 49.9906 126.068 49.6293C124.304 48.1187 124.48 51.441 124.239 35.5454C124.122 27.7917 130.912 20.8862 130.912 20.8862C130.912 20.8862 131.453 24.1978 138.189 20.256C138.428 20.1182 141.079 23.9891 143.632 28.7577C146.446 34.0241 143.567 48.0023 143.228 48.9295Z" fill="#08C3EE"/>
<path id="Vector_32" d="M106.981 76.5352L112.157 90.2698C112.157 90.2698 113.562 90.4036 114.907 90.0223C116.146 89.6691 117.567 88.7458 117.567 88.7458C117.567 88.7458 116.13 73.9983 113.448 65.5327L106.981 76.5352Z" fill="#403E3E"/>
<path id="Vector_33" d="M130.912 20.8848C130.912 20.8848 124.764 22.3726 123.169 24.9844C121.227 28.1662 111.542 42.511 111.542 42.511C111.542 42.511 121.09 45.84 122.717 44.2357C124.344 42.6314 128.379 29.3504 128.379 29.3504L130.912 20.8848Z" fill="#08C3EE"/>
<path id="Vector_34" d="M138.205 20.266C138.231 20.27 135.724 22.546 133.888 23.203C133.169 23.4612 131.974 23.7448 131.974 23.7448C131.974 23.7448 131.016 22.7882 131.001 22.7748C130.149 21.9907 131.005 21.7632 130.876 20.2807C130.87 20.2112 130.864 20.1389 130.856 20.0666C130.684 18.4062 130.198 16.5892 130.167 16.4714C130.165 16.4674 130.165 16.4661 130.165 16.4661L136.115 14.7896L135.924 15.1133C136.287 18.1573 137.396 20.1777 138.205 20.266Z" fill="#FFB27D"/>
<path id="Vector_35" d="M136.113 14.7896C135.536 16.4942 133.962 18.7808 130.752 19.2746C130.442 17.4455 130.195 16.5892 130.164 16.4714C130.163 16.4674 130.163 16.4661 130.163 16.4661L136.113 14.7896Z" fill="#ED975D"/>
<path id="Vector_36" d="M129.173 18.2334C129.173 18.2334 137.193 17.7075 136.784 12.789C136.376 7.87049 137.134 4.48935 131.997 4.6178C126.859 4.74624 126.022 6.70241 125.754 8.3776C125.487 10.0528 127.076 18.2427 129.173 18.2334Z" fill="#FFB27D"/>
<path id="Vector_37" d="M127.732 4.52978C127.732 4.52978 129.724 10.2939 134.455 10.9643C137.906 11.4526 139.277 10.5334 139.277 10.5334C139.277 10.5334 137.351 8.72845 136.306 5.95209C135.998 5.13322 135.271 4.53781 134.397 4.40535C131.94 4.03071 128.769 2.42777 127.732 4.52978Z" fill="#403E3E"/>
<path id="Vector_38" d="M129.431 5.55001C129.431 5.55001 127.999 6.12001 127 8.22737C126.455 9.3794 126.06 12.1223 126.396 13.2516C126.396 13.2516 124.091 7.99189 125.76 5.62227C127.531 3.10815 129.431 5.55001 129.431 5.55001Z" fill="#403E3E"/>
<path id="Vector_39" d="M130.875 20.2822C130.875 20.2822 131.365 23.2018 131.973 23.7463C131.973 23.7463 130.435 23.1857 129.705 21.2269C129.705 21.2255 130.243 20.3491 130.875 20.2822Z" fill="#0996B7"/>
<path id="Vector_40" d="M125.155 30.2086C125.155 30.2086 120.676 35.5044 121.229 37.4231C121.78 39.3418 124.881 39.3418 124.881 39.3418C124.881 39.3418 124.301 35.2555 124.881 33.1281C125.459 31.002 125.823 30.0828 125.155 30.2086Z" fill="#91B0F2"/>
<path id="Vector_41" d="M135.208 45.4695C135.208 45.4695 141.659 41.5933 141.575 39.3414C141.491 37.0895 141.577 32.9578 142.183 33.5358C142.788 34.1151 144.7 38.7567 144.517 40.0706C144.333 41.3845 137.82 50.562 137.012 50.5405C131.262 50.3827 135.208 45.4695 135.208 45.4695Z" fill="#0996B7"/>
<path id="Vector_42" d="M136.954 18.9126C136.954 18.9126 133.43 23.2812 131.973 23.7455C131.973 23.7455 136.112 23.7455 139.036 20.3389C139.036 20.3389 138.058 18.9273 136.954 18.9126Z" fill="#0996B7"/>
<g id="Group_11">
<path id="Vector_43" d="M120.662 56.8647C129.691 56.8647 137.01 49.6486 137.01 40.7471C137.01 31.8455 129.691 24.6294 120.662 24.6294C111.633 24.6294 104.314 31.8455 104.314 40.7471C104.314 49.6486 111.633 56.8647 120.662 56.8647Z" fill="#E2810E"/>
<path id="Vector_44" d="M119.236 56.8647C128.265 56.8647 135.584 49.6486 135.584 40.7471C135.584 31.8455 128.265 24.6294 119.236 24.6294C110.207 24.6294 102.887 31.8455 102.887 40.7471C102.887 49.6486 110.207 56.8647 119.236 56.8647Z" fill="#FFC76C"/>
<g id="Group_12">
<path id="Vector_45" d="M119.236 55.6215C115.257 55.6215 111.516 54.0935 108.703 51.3198C105.889 48.5461 104.34 44.8585 104.34 40.9355C104.34 37.0125 105.889 33.3249 108.703 30.5512C111.516 27.7775 115.257 26.2495 119.236 26.2495C123.215 26.2495 126.955 27.7775 129.769 30.5512C132.582 33.3249 134.132 37.0125 134.132 40.9355C134.132 44.8585 132.582 48.5461 129.769 51.3198C126.955 54.0948 123.215 55.6215 119.236 55.6215ZM119.236 27.1273C111.512 27.1273 105.229 33.3222 105.229 40.9368C105.229 48.5515 111.512 54.7464 119.236 54.7464C126.959 54.7464 133.243 48.5515 133.243 40.9368C133.243 33.3222 126.959 27.1273 119.236 27.1273Z" fill="#FFA412"/>
</g>
<g id="Group_13">
<path id="Vector_46" d="M121.286 45.1984C121.324 44.8813 121.312 44.5976 121.251 44.3461C121.19 44.0945 121.068 43.8577 120.886 43.6383C120.704 43.4189 120.46 43.2061 120.155 43.0027C119.849 42.7994 119.472 42.5906 119.021 42.3765C118.248 42.0032 117.55 41.6246 116.929 41.2432C116.307 40.8606 115.785 40.4418 115.364 39.9882C114.943 39.5346 114.635 39.0235 114.44 38.4575C114.244 37.8915 114.191 37.2399 114.281 36.5C114.358 35.8591 114.544 35.2878 114.837 34.7874C115.132 34.2869 115.516 33.8655 115.991 33.5229C116.466 33.1804 117.017 32.9222 117.644 32.7469C118.271 32.5716 118.958 32.494 119.708 32.5127L120 30.0923L121.976 30.3238L121.68 32.7777C122.378 32.9516 122.997 33.2112 123.539 33.5577C124.082 33.9043 124.529 34.3231 124.879 34.8154C125.229 35.3078 125.476 35.8698 125.621 36.5027C125.766 37.1356 125.794 37.8286 125.703 38.5819L122.133 38.1645C122.242 37.26 122.12 36.5589 121.767 36.0625C121.413 35.5661 120.894 35.2784 120.212 35.1981C119.841 35.1553 119.515 35.1687 119.236 35.2383C118.956 35.3092 118.719 35.4229 118.525 35.5795C118.331 35.736 118.177 35.9314 118.066 36.1628C117.955 36.3943 117.883 36.6499 117.849 36.9295C117.815 37.2078 117.826 37.4661 117.881 37.7015C117.936 37.937 118.054 38.1631 118.232 38.3799C118.411 38.5953 118.656 38.8081 118.968 39.0168C119.282 39.2255 119.674 39.449 120.146 39.6885C120.909 40.0765 121.6 40.4632 122.217 40.8485C122.835 41.2339 123.353 41.6567 123.774 42.1143C124.195 42.5732 124.503 43.0843 124.697 43.6503C124.892 44.2163 124.945 44.8652 124.857 45.5958C124.777 46.2594 124.588 46.8415 124.29 47.3419C123.991 47.8423 123.606 48.2598 123.131 48.5943C122.656 48.9288 122.102 49.1776 121.47 49.3409C120.836 49.5041 120.145 49.5764 119.396 49.5576L119.125 51.8082L117.161 51.578L117.431 49.3382C116.755 49.191 116.113 48.9662 115.502 48.6652C114.892 48.3641 114.365 47.9721 113.921 47.4877C113.479 47.0034 113.148 46.42 112.929 45.7376C112.711 45.0539 112.656 44.2605 112.765 43.356L116.334 43.7734C116.27 44.3086 116.292 44.7649 116.402 45.1409C116.511 45.5168 116.68 45.8273 116.91 46.0721C117.139 46.317 117.41 46.5016 117.725 46.6261C118.04 46.7505 118.366 46.8334 118.704 46.8722C119.091 46.9177 119.437 46.9084 119.741 46.8442C120.045 46.7799 120.307 46.6729 120.525 46.523C120.744 46.3732 120.916 46.1845 121.044 45.9584C121.172 45.7309 121.254 45.4781 121.286 45.1984Z" fill="#FFA412"/>
</g>
</g>
<path id="Vector_47" d="M101.75 43.4953C101.75 43.4953 101.567 40.8474 102.582 40.9517C103.828 41.0802 105.151 43.993 104.543 44.555C103.937 45.1183 101.764 44.1482 101.75 43.4953Z" fill="#FFB27D"/>
<path id="Vector_48" d="M136.517 49.6242L135.002 48.7291C135.002 48.7291 134.063 48.3598 133.509 48.4374C132.956 48.515 131.642 48.2862 131.601 48.4976C131.561 48.709 132.863 49.655 132.863 49.655C132.079 50.8418 129.237 51.0599 129.021 51.5054C128.759 52.0473 130.043 52.5558 130.739 52.8501C131.436 53.1445 133.216 53.4134 134.245 52.6441C134.997 52.0808 136.232 51.3395 136.232 51.3395L136.517 49.6242Z" fill="#FFB27D"/>
<path id="Vector_49" d="M138.19 20.2578C138.19 20.2578 144.552 20.6686 146.143 23.1145C147.733 25.5617 152.842 39.497 152.015 43.7626C151.187 48.0282 136.057 53.1474 136.057 53.1474C136.057 53.1474 135.387 52.5747 135.387 51.0467C135.387 50.1302 135.872 49.2431 135.872 49.2431C135.872 49.2431 145.156 41.595 144.517 40.071C142.157 34.4461 138.19 20.2578 138.19 20.2578Z" fill="#08C3EE"/>
</g>
</g>
</g>
</g>
</svg>
