<svg width="97" height="97" viewBox="0 0 97 97" fill="none" xmlns="http://www.w3.org/2000/svg">
<g id="Mask group">
<mask id="mask0_1725_27639" style="mask-type:alpha" maskUnits="userSpaceOnUse" x="0" y="0" width="97" height="97">
<rect id="Rectangle 41956" width="97" height="97" rx="17" fill="white"/>
</mask>
<g mask="url(#mask0_1725_27639)">
<g id="Group">
<g id="Group_2">
<path id="Vector" d="M51.0991 35.2324C51.0991 35.2324 37.8064 36.7526 36.2985 41.3885C35.7507 43.073 36.1876 47.4761 38.1844 50.4343C40.1825 53.3925 48.8791 58.6297 48.7709 60.6374C48.7298 61.4003 47.941 63.5285 46.3865 65.9964C55.6036 63.1601 63.4031 65.0912 68.4088 66.5621C66.9543 62.9834 65.478 59.1871 65.5903 58.794C65.808 58.0339 71.6587 47.0516 71.6587 47.0516C71.6587 47.0516 70.3001 41.7295 64.3974 39.189C60.0436 37.3155 51.0991 35.2324 51.0991 35.2324Z" fill="#E5886E"/>
<g id="Clip path group">
<mask id="mask1_1725_27639" style="mask-type:luminance" maskUnits="userSpaceOnUse" x="36" y="35" width="36" height="32">
<g id="XMLID_2_">
<path id="Vector_2" d="M51.0991 35.2324C51.0991 35.2324 37.8064 36.7526 36.2985 41.3885C35.7507 43.073 36.1876 47.4761 38.1844 50.4343C40.1825 53.3925 48.8791 58.6297 48.7709 60.6374C48.7298 61.4003 47.941 63.5285 46.3865 65.9964C55.6036 63.1601 63.4031 65.0912 68.4088 66.5621C66.9543 62.9834 65.478 59.1871 65.5903 58.794C65.808 58.0339 71.6587 47.0516 71.6587 47.0516C71.6587 47.0516 70.3001 41.7295 64.3974 39.189C60.0436 37.3155 51.0991 35.2324 51.0991 35.2324Z" fill="white"/>
</g>
</mask>
<g mask="url(#mask1_1725_27639)">
<path id="Vector_3" d="M57.5018 45.3069L55.6858 41.2065C55.6858 41.2065 58.0839 43.5827 59.1206 45.6041L57.5018 45.3069Z" fill="#A74C3A"/>
</g>
</g>
<g id="Clip path group_2">
<mask id="mask2_1725_27639" style="mask-type:luminance" maskUnits="userSpaceOnUse" x="36" y="35" width="36" height="32">
<g id="XMLID_2__2">
<path id="Vector_4" d="M51.0991 35.2324C51.0991 35.2324 37.8064 36.7526 36.2985 41.3885C35.7507 43.073 36.1876 47.4761 38.1844 50.4343C40.1825 53.3925 48.8791 58.6297 48.7709 60.6374C48.7298 61.4003 47.941 63.5285 46.3865 65.9964C55.6036 63.1601 63.4031 65.0912 68.4088 66.5621C66.9543 62.9834 65.478 59.1871 65.5903 58.794C65.808 58.0339 71.6587 47.0516 71.6587 47.0516C71.6587 47.0516 70.3001 41.7295 64.3974 39.189C60.0436 37.3155 51.0991 35.2324 51.0991 35.2324Z" fill="white"/>
</g>
</mask>
<g mask="url(#mask2_1725_27639)">
<path id="Vector_5" d="M41.8753 37.321L48.0519 49.3236L48.7572 57.041L65.2493 53.6952C65.2493 53.6952 67.7035 44.9411 62.6184 37.3141L58.8357 36.4376C58.8357 36.4376 62.0349 38.5714 62.7403 45.4834L49.3283 43.7701C49.3283 43.7701 45.962 35.9555 44.5582 35.2324L41.8753 37.321Z" fill="white"/>
</g>
</g>
<g id="Clip path group_3">
<mask id="mask3_1725_27639" style="mask-type:luminance" maskUnits="userSpaceOnUse" x="36" y="35" width="36" height="32">
<g id="XMLID_2__3">
<path id="Vector_6" d="M51.0991 35.2324C51.0991 35.2324 37.8064 36.7526 36.2985 41.3885C35.7507 43.073 36.1876 47.4761 38.1844 50.4343C40.1825 53.3925 48.8791 58.6297 48.7709 60.6374C48.7298 61.4003 47.941 63.5285 46.3865 65.9964C55.6036 63.1601 63.4031 65.0912 68.4088 66.5621C66.9543 62.9834 65.478 59.1871 65.5903 58.794C65.808 58.0339 71.6587 47.0516 71.6587 47.0516C71.6587 47.0516 70.3001 41.7295 64.3974 39.189C60.0436 37.3155 51.0991 35.2324 51.0991 35.2324Z" fill="white"/>
</g>
</mask>
<g mask="url(#mask3_1725_27639)">
<path id="Vector_7" d="M73.4514 64.8038C73.4514 66.5555 64.3152 59.9652 58.1071 60.8773C50.0076 62.0675 42.1998 64.7121 42.1998 62.9604C42.1998 61.2088 51.2457 55.4238 57.5223 55.4238C63.7975 55.4238 73.4514 63.0508 73.4514 64.8038Z" fill="#A74C3A"/>
</g>
</g>
</g>
<path id="Vector_8" d="M56.6622 24.6345C56.6622 26.2053 57.9359 27.479 59.5067 27.479C61.0776 27.479 62.7402 25.6219 62.7402 24.0511C62.7402 22.4802 61.0776 21.7886 59.5067 21.7886C57.9373 21.7886 56.6622 23.0623 56.6622 24.6345Z" fill="#A74C3A"/>
<g id="Group_3">
<path id="Vector_9" d="M66.2449 50.1506C66.2449 50.1506 64.937 44.3438 70.4138 44.3438C70.4138 44.3438 76.1398 53.6512 75.9974 59.017C75.9727 59.9524 73.3364 62.9599 72.6461 62.9599C71.9559 62.9599 57.4045 56.8641 57.4045 56.8641L66.2449 50.1506Z" fill="#E5886E"/>
<g id="Clip path group_4">
<mask id="mask4_1725_27639" style="mask-type:luminance" maskUnits="userSpaceOnUse" x="57" y="44" width="19" height="19">
<g id="XMLID_3_">
<path id="Vector_10" d="M66.2449 50.1506C66.2449 50.1506 64.937 44.3438 70.4138 44.3438C70.4138 44.3438 76.1398 53.6512 75.9974 59.017C75.9727 59.9524 73.3364 62.9599 72.6461 62.9599C71.9559 62.9599 57.4045 56.8641 57.4045 56.8641L66.2449 50.1506Z" fill="white"/>
</g>
</mask>
<g mask="url(#mask4_1725_27639)">
<path id="Vector_11" opacity="0.6" d="M63.6139 67.0546C57.6718 67.0546 52.8548 63.0678 52.8548 58.1499C52.8548 53.2319 57.6718 49.2451 63.6139 49.2451C69.556 49.2451 74.373 53.2319 74.373 58.1499C74.373 63.0678 69.556 67.0546 63.6139 67.0546Z" fill="#A74C3A"/>
</g>
</g>
<g id="Clip path group_5">
<mask id="mask5_1725_27639" style="mask-type:luminance" maskUnits="userSpaceOnUse" x="57" y="44" width="19" height="19">
<g id="XMLID_3__2">
<path id="Vector_12" d="M66.2449 50.1506C66.2449 50.1506 64.937 44.3438 70.4138 44.3438C70.4138 44.3438 76.1398 53.6512 75.9974 59.017C75.9727 59.9524 73.3364 62.9599 72.6461 62.9599C71.9559 62.9599 57.4045 56.8641 57.4045 56.8641L66.2449 50.1506Z" fill="white"/>
</g>
</mask>
<g mask="url(#mask5_1725_27639)">
<path id="Vector_13" opacity="0.3" d="M65.4918 53.4471L68.78 54.3825L65.2425 50.4067L61.4585 52.5651L65.4918 53.4471Z" fill="#002A37"/>
</g>
</g>
</g>
<g id="Group_4">
<path id="Vector_14" d="M42.7106 39.9829C42.7106 39.9829 38.6157 38.8407 36.4765 46.3582C36.4765 46.3582 40.3071 57.1433 48.7709 60.637C53.3657 62.5338 67.3227 52.5403 67.3227 52.5403C67.3227 52.5403 68.0088 49.0575 65.2971 49.0575C62.5854 49.0575 49.6679 53.7181 49.6679 53.7181C48.3983 50.0751 47.3233 46.5307 42.7106 39.9829Z" fill="#E5886E"/>
<g id="Clip path group_6">
<mask id="mask6_1725_27639" style="mask-type:luminance" maskUnits="userSpaceOnUse" x="36" y="39" width="32" height="22">
<g id="XMLID_4_">
<path id="Vector_15" d="M42.7106 39.9829C42.7106 39.9829 38.6157 38.8407 36.4765 46.3582C36.4765 46.3582 40.3071 57.1433 48.7709 60.637C53.3657 62.5338 67.3227 52.5403 67.3227 52.5403C67.3227 52.5403 68.0088 49.0575 65.2971 49.0575C62.5854 49.0575 49.6679 53.7181 49.6679 53.7181C48.3983 50.0751 47.3233 46.5307 42.7106 39.9829Z" fill="white"/>
</g>
</mask>
<g mask="url(#mask6_1725_27639)">
<path id="Vector_16" opacity="0.5" d="M44.0023 50.5081C44.0023 53.0363 48.0589 56.8477 52.2729 55.0851C56.7322 53.2198 61.7981 50.945 61.7981 48.4168C61.7981 45.8886 57.421 46.2831 52.8536 46.2831C48.2862 46.2831 44.0023 47.9799 44.0023 50.5081Z" fill="#A74C3A"/>
</g>
</g>
</g>
<g id="Group_5">
<path id="Vector_17" d="M55.8074 51.5843C55.8074 51.5843 50.1635 47.5373 49.5143 47.7811C48.8652 48.0249 43.9143 50.1353 43.8321 50.5407C43.7513 50.9461 44.4457 51.4898 44.6881 51.4843C45.0921 51.4761 47.8914 50.9064 47.8914 50.9064L47.0505 51.85C46.5945 52.3608 46.6356 53.1442 47.1409 53.6058L48.2653 54.6329L55.8074 51.5843Z" fill="#E5886E"/>
<g id="Clip path group_7">
<mask id="mask7_1725_27639" style="mask-type:luminance" maskUnits="userSpaceOnUse" x="43" y="47" width="13" height="8">
<g id="XMLID_5_">
<path id="Vector_18" d="M55.8074 51.5843C55.8074 51.5843 50.1635 47.5373 49.5143 47.7811C48.8652 48.0249 43.9143 50.1353 43.8321 50.5407C43.7513 50.9461 44.4457 51.4898 44.6881 51.4843C45.0921 51.4761 47.8914 50.9064 47.8914 50.9064L47.0505 51.85C46.5945 52.3608 46.6356 53.1442 47.1409 53.6058L48.2653 54.6329L55.8074 51.5843Z" fill="white"/>
</g>
</mask>
<g mask="url(#mask7_1725_27639)">
<g id="Group_6">
<path id="Vector_19" d="M46.933 53.4839C46.8837 53.4839 46.8357 53.4538 46.8165 53.4045C46.7905 53.3402 46.822 53.2676 46.8864 53.2429C46.9316 53.2251 51.3497 51.4652 52.3878 50.3422C52.4344 50.2916 52.5138 50.2888 52.5645 50.3354C52.6152 50.3819 52.6179 50.4614 52.5714 50.512C51.4949 51.6762 47.163 53.4031 46.9795 53.4757C46.9645 53.4812 46.9494 53.4839 46.933 53.4839Z" fill="#A74C3A"/>
</g>
</g>
</g>
<g id="Clip path group_8">
<mask id="mask8_1725_27639" style="mask-type:luminance" maskUnits="userSpaceOnUse" x="43" y="47" width="13" height="8">
<g id="XMLID_5__2">
<path id="Vector_20" d="M55.8074 51.5843C55.8074 51.5843 50.1635 47.5373 49.5143 47.7811C48.8652 48.0249 43.9143 50.1353 43.8321 50.5407C43.7513 50.9461 44.4457 51.4898 44.6881 51.4843C45.0921 51.4761 47.8914 50.9064 47.8914 50.9064L47.0505 51.85C46.5945 52.3608 46.6356 53.1442 47.1409 53.6058L48.2653 54.6329L55.8074 51.5843Z" fill="white"/>
</g>
</mask>
<g mask="url(#mask8_1725_27639)">
<g id="Group_7">
<path id="Vector_21" d="M47.2698 54.3233C47.2163 54.3233 47.167 54.289 47.1506 54.2356C47.1301 54.1699 47.1657 54.1 47.2314 54.0795C47.2725 54.0672 51.3373 52.773 52.4042 52.0115C52.4603 51.9718 52.5384 51.9841 52.5781 52.0403C52.6178 52.0964 52.6055 52.1745 52.5493 52.2142C51.451 52.9976 47.4752 54.263 47.3067 54.3164C47.2944 54.3205 47.2821 54.3233 47.2698 54.3233Z" fill="#A74C3A"/>
</g>
</g>
</g>
<g id="Clip path group_9">
<mask id="mask9_1725_27639" style="mask-type:luminance" maskUnits="userSpaceOnUse" x="43" y="47" width="13" height="8">
<g id="XMLID_5__3">
<path id="Vector_22" d="M55.8074 51.5843C55.8074 51.5843 50.1635 47.5373 49.5143 47.7811C48.8652 48.0249 43.9143 50.1353 43.8321 50.5407C43.7513 50.9461 44.4457 51.4898 44.6881 51.4843C45.0921 51.4761 47.8914 50.9064 47.8914 50.9064L47.0505 51.85C46.5945 52.3608 46.6356 53.1442 47.1409 53.6058L48.2653 54.6329L55.8074 51.5843Z" fill="white"/>
</g>
</mask>
<g mask="url(#mask9_1725_27639)">
<g id="Group_8">
<path id="Vector_23" d="M44.7514 51.6814C44.6939 51.6814 44.6418 51.6403 44.6295 51.5814C44.6158 51.5143 44.6583 51.4472 44.7268 51.4335C44.7761 51.424 49.7009 50.3872 51.3184 49.282C51.3759 49.2423 51.4526 49.2573 51.4923 49.3149C51.5306 49.3724 51.5169 49.4491 51.4594 49.4888C49.8009 50.6214 44.9829 51.6362 44.7788 51.6787C44.7678 51.6814 44.7596 51.6814 44.7514 51.6814Z" fill="#A74C3A"/>
</g>
</g>
</g>
</g>
<g id="Group_9">
<path id="Vector_24" d="M54.5463 27.0052C54.5463 27.0052 55.4269 36.8522 55.4297 37.6767C55.4352 40.1692 52.0729 39.7474 50.7458 38.1094C49.4188 36.4715 48.0533 24.8906 48.0533 24.8906C48.0533 24.8906 51.6237 31.3193 54.5463 27.0052Z" fill="#E5886E"/>
<g id="Clip path group_10">
<mask id="mask10_1725_27639" style="mask-type:luminance" maskUnits="userSpaceOnUse" x="48" y="24" width="8" height="16">
<g id="XMLID_7_">
<path id="Vector_25" d="M54.5463 27.0052C54.5463 27.0052 55.4269 36.8522 55.4297 37.6767C55.4352 40.1692 52.0729 39.7474 50.7458 38.1094C49.4188 36.4715 48.0533 24.8906 48.0533 24.8906C48.0533 24.8906 51.6237 31.3193 54.5463 27.0052Z" fill="white"/>
</g>
</mask>
<g mask="url(#mask10_1725_27639)">
<path id="Vector_26" d="M48.1438 25.7861C48.1438 25.7861 48.4123 37.404 59.5959 36.3987L58.8578 30.1632L48.1438 25.7861Z" fill="#A74C3A"/>
</g>
</g>
</g>
<g id="Group_10">
<path id="Vector_27" d="M55.0339 10.3501C59.9916 10.8295 62.7416 15.7009 62.1979 19.1467C61.6542 22.5925 59.9313 27.8529 59.7492 28.3062C59.604 28.6691 56.0898 31.3288 54.6833 32.3833C54.3203 32.6559 53.8561 32.7531 53.4137 32.6504C53.0535 32.5668 52.7399 32.3532 52.5208 32.056C50.9376 29.9195 49.1969 28.187 48.2807 25.852C48.2807 25.852 43.7447 24.8221 44.4966 21.1572C45.191 17.7717 47.4754 19.7507 47.4754 19.7507C47.4754 19.7507 46.6002 9.53389 55.0339 10.3501Z" fill="#E5886E"/>
<g id="Clip path group_11">
<mask id="mask11_1725_27639" style="mask-type:luminance" maskUnits="userSpaceOnUse" x="44" y="10" width="19" height="23">
<g id="XMLID_8_">
<path id="Vector_28" d="M55.0339 10.3501C59.9916 10.8295 62.7416 15.7009 62.1979 19.1467C61.6542 22.5925 59.9313 27.8529 59.7492 28.3062C59.604 28.6691 56.0898 31.3288 54.6833 32.3833C54.3203 32.6559 53.8561 32.7531 53.4137 32.6504C53.0535 32.5668 52.7399 32.3532 52.5208 32.056C50.9376 29.9195 49.1969 28.187 48.2807 25.852C48.2807 25.852 43.7447 24.8221 44.4966 21.1572C45.191 17.7717 47.4754 19.7507 47.4754 19.7507C47.4754 19.7507 46.6002 9.53389 55.0339 10.3501Z" fill="white"/>
</g>
</mask>
<g mask="url(#mask11_1725_27639)">
<path id="Vector_29" d="M46.8713 19.1466C50.3992 23.2484 50.0062 13.8917 56.4869 15.2366C60.3449 16.0364 61.5816 17.0224 62.1965 19.1466C63.5167 23.7072 63.9043 10.3007 63.9043 10.3007L53.2123 7.54932L47.8136 9.53789L45.5415 15.0476L46.8713 19.1466Z" fill="#2B1A21"/>
</g>
</g>
</g>
<g id="Group_11">
<path id="Vector_30" d="M46.3864 65.996C41.0794 70.221 35.6012 106.2 36.0806 108.553C36.4928 110.576 42.0175 132.761 43.5583 138.94C43.7911 139.876 44.6306 140.529 45.5948 140.529C46.7383 140.529 47.671 139.616 47.6929 138.472C47.8011 132.649 48.0654 116.332 47.6532 114.265C47.1492 111.744 45.3003 109.056 45.3003 109.056C45.3003 109.056 48.464 99.6442 50.4114 97.4598C52.3589 95.2754 56.9962 75.9895 56.9962 75.9895L57.6481 76.2182C57.6481 76.2182 55.8882 94.9645 57.4057 100.006C57.4057 100.006 55.9663 104.686 55.928 106.199C55.8896 107.711 57.5358 135.433 57.822 135.969C58.5219 137.281 60.3269 136.963 60.2324 135.969C60.2324 135.969 66.0817 106.848 67.9306 95.5849C69.7795 84.3218 70.541 71.9959 68.4127 66.5602C68.4086 66.5616 55.3665 58.8483 46.3864 65.996Z" fill="#25D366"/>
<g id="Clip path group_12">
<mask id="mask12_1725_27639" style="mask-type:luminance" maskUnits="userSpaceOnUse" x="36" y="62" width="34" height="79">
<g id="XMLID_9_">
<path id="Vector_31" d="M46.3864 65.996C41.0794 70.221 35.6012 106.2 36.0806 108.553C36.4928 110.576 42.0175 132.761 43.5583 138.94C43.7911 139.876 44.6306 140.529 45.5948 140.529C46.7383 140.529 47.671 139.616 47.6929 138.472C47.8011 132.649 48.0654 116.332 47.6532 114.265C47.1492 111.744 45.3003 109.056 45.3003 109.056C45.3003 109.056 48.464 99.6442 50.4114 97.4598C52.3589 95.2754 56.9962 75.9895 56.9962 75.9895L57.6481 76.2182C57.6481 76.2182 55.8882 94.9645 57.4057 100.006C57.4057 100.006 55.9663 104.686 55.928 106.199C55.8896 107.711 57.5358 135.433 57.822 135.969C58.5219 137.281 60.3269 136.963 60.2324 135.969C60.2324 135.969 66.0817 106.848 67.9306 95.5849C69.7795 84.3218 70.541 71.9959 68.4127 66.5602C68.4086 66.5616 55.3665 58.8483 46.3864 65.996Z" fill="white"/>
</g>
</mask>
<g mask="url(#mask12_1725_27639)">
<path id="Vector_32" d="M69.3538 94.3731C69.6305 86.5366 58.5084 91.2587 54.4765 96.8698L56.0871 91.897C56.0871 91.897 60.5696 81.7486 71.0356 87.0378L69.3538 94.3731Z" fill="#4E8762"/>
</g>
</g>
<g id="Clip path group_13">
<mask id="mask13_1725_27639" style="mask-type:luminance" maskUnits="userSpaceOnUse" x="36" y="62" width="34" height="79">
<g id="XMLID_9__2">
<path id="Vector_33" d="M46.3864 65.996C41.0794 70.221 35.6012 106.2 36.0806 108.553C36.4928 110.576 42.0175 132.761 43.5583 138.94C43.7911 139.876 44.6306 140.529 45.5948 140.529C46.7383 140.529 47.671 139.616 47.6929 138.472C47.8011 132.649 48.0654 116.332 47.6532 114.265C47.1492 111.744 45.3003 109.056 45.3003 109.056C45.3003 109.056 48.464 99.6442 50.4114 97.4598C52.3589 95.2754 56.9962 75.9895 56.9962 75.9895L57.6481 76.2182C57.6481 76.2182 55.8882 94.9645 57.4057 100.006C57.4057 100.006 55.9663 104.686 55.928 106.199C55.8896 107.711 57.5358 135.433 57.822 135.969C58.5219 137.281 60.3269 136.963 60.2324 135.969C60.2324 135.969 66.0817 106.848 67.9306 95.5849C69.7795 84.3218 70.541 71.9959 68.4127 66.5602C68.4086 66.5616 55.3665 58.8483 46.3864 65.996Z" fill="white"/>
</g>
</mask>
<g mask="url(#mask13_1725_27639)">
<path id="Vector_34" d="M72.6673 86.5348C72.9439 78.6983 61.8219 83.4205 57.79 89.0315L58.7089 87.5866C58.7089 87.5866 62.2314 79.205 69.9748 80.6567C71.1485 80.8759 72.3934 81.4607 73.6575 82.7289L72.6673 86.5348Z" fill="#4E8762"/>
</g>
</g>
<g id="Clip path group_14">
<mask id="mask14_1725_27639" style="mask-type:luminance" maskUnits="userSpaceOnUse" x="36" y="62" width="34" height="79">
<g id="XMLID_9__3">
<path id="Vector_35" d="M46.3864 65.996C41.0794 70.221 35.6012 106.2 36.0806 108.553C36.4928 110.576 42.0175 132.761 43.5583 138.94C43.7911 139.876 44.6306 140.529 45.5948 140.529C46.7383 140.529 47.671 139.616 47.6929 138.472C47.8011 132.649 48.0654 116.332 47.6532 114.265C47.1492 111.744 45.3003 109.056 45.3003 109.056C45.3003 109.056 48.464 99.6442 50.4114 97.4598C52.3589 95.2754 56.9962 75.9895 56.9962 75.9895L57.6481 76.2182C57.6481 76.2182 55.8882 94.9645 57.4057 100.006C57.4057 100.006 55.9663 104.686 55.928 106.199C55.8896 107.711 57.5358 135.433 57.822 135.969C58.5219 137.281 60.3269 136.963 60.2324 135.969C60.2324 135.969 66.0817 106.848 67.9306 95.5849C69.7795 84.3218 70.541 71.9959 68.4127 66.5602C68.4086 66.5616 55.3665 58.8483 46.3864 65.996Z" fill="white"/>
</g>
</mask>
<g mask="url(#mask14_1725_27639)">
<path id="Vector_36" d="M39.9735 87.0964C42.8057 79.7831 52.5555 89.1658 54.5358 96.1423L54.833 90.849C54.833 90.849 54.1893 79.5051 41.1362 79.6037L39.9735 87.0964Z" fill="#4E8762"/>
</g>
</g>
<g id="Clip path group_15">
<mask id="mask15_1725_27639" style="mask-type:luminance" maskUnits="userSpaceOnUse" x="36" y="62" width="34" height="79">
<g id="XMLID_9__4">
<path id="Vector_37" d="M46.3864 65.996C41.0794 70.221 35.6012 106.2 36.0806 108.553C36.4928 110.576 42.0175 132.761 43.5583 138.94C43.7911 139.876 44.6306 140.529 45.5948 140.529C46.7383 140.529 47.671 139.616 47.6929 138.472C47.8011 132.649 48.0654 116.332 47.6532 114.265C47.1492 111.744 45.3003 109.056 45.3003 109.056C45.3003 109.056 48.464 99.6442 50.4114 97.4598C52.3589 95.2754 56.9962 75.9895 56.9962 75.9895L57.6481 76.2182C57.6481 76.2182 55.8882 94.9645 57.4057 100.006C57.4057 100.006 55.9663 104.686 55.928 106.199C55.8896 107.711 57.5358 135.433 57.822 135.969C58.5219 137.281 60.3269 136.963 60.2324 135.969C60.2324 135.969 66.0817 106.848 67.9306 95.5849C69.7795 84.3218 70.541 71.9959 68.4127 66.5602C68.4086 66.5616 55.3665 58.8483 46.3864 65.996Z" fill="white"/>
</g>
</mask>
<g mask="url(#mask15_1725_27639)">
<path id="Vector_38" d="M40.3429 79.0807C42.7902 73.6026 53.3494 81.8321 55.3311 88.8099L55.6584 86.4694C55.6584 86.4694 49.8064 72.4138 41.2495 75.8212L40.3429 79.0807Z" fill="#4E8762"/>
</g>
</g>
</g>
<path id="Vector_39" d="M50.0076 20.2123C50.0076 20.2123 51.2512 18.8304 52.6248 19.4577C53.9998 20.0849 53.9683 20.7464 54.7818 20.4177C55.5953 20.0891 54.4436 18.3949 53.1891 18.3758C51.9359 18.3566 50.7198 18.6949 50.0076 20.2123Z" fill="#2B1A21"/>
<path id="Vector_40" d="M61.116 21.5833C61.116 21.5833 60.5873 20.1508 59.4328 20.6219C58.2783 21.093 58.1263 21.7257 57.6277 21.3368C57.1292 20.9478 58.4056 19.44 59.3136 19.5372C60.2203 19.6358 61.005 20.07 61.116 21.5833Z" fill="#2B1A21"/>
<path id="Vector_41" d="M58.1056 25.1621C57.7827 25.1621 57.5208 24.6593 57.5208 24.039C57.5208 23.4188 57.7827 22.916 58.1056 22.916C58.4286 22.916 58.6904 23.4188 58.6904 24.039C58.6904 24.6593 58.4286 25.1621 58.1056 25.1621Z" fill="#2B1A21"/>
<g id="Group_12">
<path id="Vector_42" d="M56.3909 28.9995C56.3841 29.0009 56.3759 29.0009 56.3676 29.0009C53.8271 28.9488 52.8753 26.9685 52.8657 26.9493C52.8383 26.8904 52.8644 26.8206 52.9219 26.7932C52.9821 26.7658 53.0506 26.7918 53.078 26.8493C53.0862 26.8685 53.9819 28.7174 56.3717 28.7653C56.4361 28.7667 56.4882 28.8201 56.4868 28.8845C56.4868 28.9433 56.4443 28.9899 56.3909 28.9995Z" fill="#A74C3A"/>
</g>
<path id="Vector_43" d="M60.5161 22.8298C60.5161 22.8298 58.5125 22.1985 57.2155 22.9613C57.3128 23.1695 57.499 23.2749 57.714 23.2434L60.5161 22.8298Z" fill="#2B1A21"/>
<g id="Group_13">
<path id="Vector_44" d="M50.6978 20.9136C50.6978 20.9136 53.7299 21.1354 55.0132 22.3516C54.7639 22.5036 54.4544 22.5269 54.186 22.4105L50.6978 20.9136Z" fill="#2B1A21"/>
<path id="Vector_45" d="M53.2139 24.4551C52.8826 24.4551 52.614 23.8254 52.614 23.0486C52.614 22.2718 52.8826 21.6421 53.2139 21.6421C53.5452 21.6421 53.8137 22.2718 53.8137 23.0486C53.8137 23.8254 53.5452 24.4551 53.2139 24.4551Z" fill="#2B1A21"/>
</g>
<path id="Vector_46" d="M54.9422 26.7822C54.9422 26.7822 55.4311 27.2451 56.0337 27.2451C56.6363 27.2451 57.1252 26.7822 57.1252 26.7822C57.1252 26.7822 56.6528 26.8151 56.0502 26.8151C55.4476 26.8151 54.9422 26.7822 54.9422 26.7822Z" fill="#A74C3A"/>
<path id="Vector_47" d="M51.4223 25.1621C50.8573 25.1621 50.3992 24.9469 50.3992 24.6814C50.3992 24.4159 50.8573 24.2007 51.4223 24.2007C51.9873 24.2007 52.4453 24.4159 52.4453 24.6814C52.4453 24.9469 51.9873 25.1621 51.4223 25.1621Z" fill="#A74C3A"/>
<path id="Vector_48" d="M59.465 25.3297C60.0007 25.5091 60.3667 25.8586 60.2824 26.1103C60.1981 26.3621 59.6955 26.4207 59.1598 26.2413C58.624 26.0619 58.258 25.7124 58.3423 25.4607C58.4266 25.209 58.9293 25.1503 59.465 25.3297Z" fill="#A74C3A"/>
<g id="Group_14">
<path id="Vector_49" d="M49.1216 13.0237C49.1216 13.0237 46.8892 8.55076 41.3974 9.03695C35.9069 9.52313 42.2999 22.2982 37.9215 25.1551C33.543 28.0119 22.4977 21.8476 26.1051 18.3512C26.1051 18.3512 13.4806 21.0971 25.1395 27.5203C40.7153 36.1018 45.4019 28.1064 42.0712 21.03C36.1507 8.45352 43.0942 10.0422 48.6409 13.7441L49.1216 13.0237Z" fill="#2B1A21"/>
<path id="Vector_50" d="M62.0718 17.6981C63.2825 15.5698 62.432 13.3183 60.3695 12.1733C61.1036 12.8033 61.7733 13.6168 61.9404 14.581C62.1115 15.4657 61.8061 16.4285 61.2611 17.1119C61.2624 17.1133 62.0718 17.6981 62.0718 17.6981Z" fill="#2B1A21"/>
<path id="Vector_51" d="M60.23 13.0965C58.3496 10.6984 55.0435 8.42088 51.9744 9.95339C52.7002 9.66442 53.485 9.53842 54.2492 9.62333C56.5528 9.89861 58.4058 11.6571 59.6822 13.4759L60.23 13.0965Z" fill="#2B1A21"/>
<path id="Vector_52" d="M25.1328 26.5492C22.3554 25.6508 19.226 23.402 19.6108 20.1206C19.4807 20.8903 19.5177 21.6983 19.7683 22.4557C20.5681 24.7661 22.7484 26.2575 24.9205 27.1806L25.1328 26.5492Z" fill="#2B1A21"/>
<path id="Vector_53" d="M42.3161 24.5523C42.6899 27.4475 41.9915 31.237 38.8607 32.2902C39.6126 32.0806 40.3275 31.7013 40.9054 31.1521C42.6543 29.4429 43.0707 26.8339 42.9775 24.4756L42.3161 24.5523Z" fill="#2B1A21"/>
</g>
</g>
</g>
</g>
</svg>
