<svg width="97" height="97" viewBox="0 0 97 97" fill="none" xmlns="http://www.w3.org/2000/svg">
<g id="Mask group">
<mask id="mask0_1725_27753" style="mask-type:alpha" maskUnits="userSpaceOnUse" x="0" y="0" width="97" height="97">
<rect id="Rectangle 41956" width="97" height="97" rx="17" fill="white"/>
</mask>
<g mask="url(#mask0_1725_27753)">
<g id="Group">
<path id="Vector" d="M48.9935 22.4857C47.5823 22.4857 46.4384 21.3418 46.4384 19.9306C46.4384 18.5195 47.5823 17.3755 48.9935 17.3755C50.4046 17.3755 51.5486 18.5195 51.5486 19.9306C51.5486 21.3418 50.4046 22.4857 48.9935 22.4857Z" fill="#A74C3A"/>
<path id="Vector_2" d="M46.4312 10.8481C45.1965 11.3422 43.0362 12.0215 45.1352 13.4094C47.2343 14.7985 48.7202 15.0756 48.7202 15.0756L48.9937 11.4023L46.4312 10.8481Z" fill="#2B1A21"/>
<g id="Group_2">
<path id="Vector_3" d="M58.5481 86.5657C58.5481 86.5657 61.3435 93.2882 60.7305 94.0729C60.1175 94.8576 59.9262 97.2275 60.6949 99.2444C61.4649 101.261 68.2953 122.419 68.2953 122.419L71.8926 121.074C71.8926 121.074 70.0915 91.4994 69.0812 90.0968C68.0709 88.6941 67.8478 85.1091 67.8478 85.1091C67.8478 85.1091 61.6378 84.6346 58.5481 86.5657Z" fill="#E5886E"/>
<g id="Clip path group">
<mask id="mask1_1725_27753" style="mask-type:luminance" maskUnits="userSpaceOnUse" x="58" y="85" width="14" height="38">
<g id="XMLID_11_">
<path id="Vector_4" d="M58.5481 86.5657C58.5481 86.5657 61.3435 93.2882 60.7305 94.0729C60.1175 94.8576 59.9262 97.2275 60.6949 99.2444C61.4649 101.261 68.2953 122.419 68.2953 122.419L71.8926 121.074C71.8926 121.074 70.0915 91.4994 69.0812 90.0968C68.0709 88.6941 67.8478 85.1091 67.8478 85.1091C67.8478 85.1091 61.6378 84.6346 58.5481 86.5657Z" fill="white"/>
</g>
</mask>
<g mask="url(#mask1_1725_27753)">
<path id="Vector_5" d="M64.5324 87.284C64.5324 87.284 63.071 93.7429 63.071 95.8308C63.071 97.9188 68.1003 131.87 68.1003 131.87L50.3579 128.14V81.812L71.5234 79.127L69.0811 90.0965" fill="#A74C3A"/>
</g>
</g>
<g id="Clip path group_2">
<mask id="mask2_1725_27753" style="mask-type:luminance" maskUnits="userSpaceOnUse" x="58" y="85" width="14" height="38">
<g id="XMLID_11__2">
<path id="Vector_6" d="M58.5481 86.5657C58.5481 86.5657 61.3435 93.2882 60.7305 94.0729C60.1175 94.8576 59.9262 97.2275 60.6949 99.2444C61.4649 101.261 68.2953 122.419 68.2953 122.419L71.8926 121.074C71.8926 121.074 70.0915 91.4994 69.0812 90.0968C68.0709 88.6941 67.8478 85.1091 67.8478 85.1091C67.8478 85.1091 61.6378 84.6346 58.5481 86.5657Z" fill="white"/>
</g>
</mask>
<g mask="url(#mask2_1725_27753)">
<path id="Vector_7" d="M66.8422 91.8279C65.3152 91.8279 64.0774 91.2905 64.0774 90.6276C64.0774 89.9646 65.3152 89.4272 66.8422 89.4272C68.3691 89.4272 69.6069 89.9646 69.6069 90.6276C69.6069 91.2905 68.3691 91.8279 66.8422 91.8279Z" fill="#A74C3A"/>
</g>
</g>
</g>
<g id="Group_3">
<path id="Vector_8" d="M43.9484 88.4575C43.9484 88.4575 42.7456 92.2853 43.1833 92.7218C43.621 93.1595 45.5889 97.0964 45.3706 98.19C45.1524 99.2837 39.7405 120.827 38.9473 120.936C38.154 121.045 34.9822 120.389 34.9822 120.389C34.9822 120.389 36.8458 100.084 36.0758 93.8154C35.3059 87.5466 38.9473 83.3179 38.9473 83.3179L43.9484 88.4575Z" fill="#E5886E"/>
<g id="Clip path group_3">
<mask id="mask3_1725_27753" style="mask-type:luminance" maskUnits="userSpaceOnUse" x="34" y="83" width="12" height="38">
<g id="XMLID_12_">
<path id="Vector_9" d="M43.9484 88.4575C43.9484 88.4575 42.7456 92.2853 43.1833 92.7218C43.621 93.1595 45.5889 97.0964 45.3706 98.19C45.1524 99.2837 39.7405 120.827 38.9473 120.936C38.154 121.045 34.9822 120.389 34.9822 120.389C34.9822 120.389 36.8458 100.084 36.0758 93.8154C35.3059 87.5466 38.9473 83.3179 38.9473 83.3179L43.9484 88.4575Z" fill="white"/>
</g>
</mask>
<g mask="url(#mask3_1725_27753)">
<path id="Vector_10" d="M28.49 86.9532C28.49 86.9532 37.1877 89.8308 38.6063 91.7815C40.0249 93.7321 34.6228 124.595 34.6228 124.595L47.4781 126.623L52.3774 95.505L48.8893 79.3713L35.4713 78.6626L28.49 86.9532Z" fill="#A74C3A"/>
</g>
</g>
</g>
<g id="Group_4">
<path id="Vector_11" d="M38.9458 63.6716C36.8836 76.5306 32.8609 83.9372 32.8609 90.9908C32.8609 90.9908 40.1841 94.0596 48.7126 90.927L49.8909 80.6232C49.9399 80.199 50.2182 79.8361 50.6155 79.6803C51.2028 79.4498 51.8648 79.7331 52.1039 80.3167L56.1156 90.0958C56.1156 90.0958 57.3343 91.3451 65.2203 90.6168C70.4532 90.1338 71.8926 88.6245 71.8926 88.6245C71.8926 88.6245 67.7877 81.2019 66.8228 66.6939C66.8228 66.6963 57.6212 58.1642 38.9458 63.6716Z" fill="#25D366"/>
<g id="Clip path group_4">
<mask id="mask4_1725_27753" style="mask-type:luminance" maskUnits="userSpaceOnUse" x="32" y="61" width="40" height="32">
<g id="SVGID_4_">
<path id="Vector_12" d="M38.9458 63.6716C36.8836 76.5306 32.8609 83.9372 32.8609 90.9908C32.8609 90.9908 40.1841 94.0596 48.7126 90.927L49.8909 80.6232C49.9399 80.199 50.2182 79.8361 50.6155 79.6803C51.2028 79.4498 51.8648 79.7331 52.1039 80.3167L56.1156 90.0958C56.1156 90.0958 57.3343 91.3451 65.2203 90.6168C70.4532 90.1338 71.8926 88.6245 71.8926 88.6245C71.8926 88.6245 67.7877 81.2019 66.8228 66.6939C66.8228 66.6963 57.6212 58.1642 38.9458 63.6716Z" fill="white"/>
</g>
</mask>
<g mask="url(#mask4_1725_27753)">
<path id="Vector_13" opacity="0.3" d="M60.7599 95.6901C55.1494 146.881 24.1741 72.4219 35.2614 72.4219C46.3487 72.4219 62.545 79.4043 60.7599 95.6901Z" fill="#002A37"/>
</g>
</g>
<g id="Clip path group_5">
<mask id="mask5_1725_27753" style="mask-type:luminance" maskUnits="userSpaceOnUse" x="32" y="61" width="40" height="32">
<g id="SVGID_4__2">
<path id="Vector_14" d="M38.9458 63.6716C36.8836 76.5306 32.8609 83.9372 32.8609 90.9908C32.8609 90.9908 40.1841 94.0596 48.7126 90.927L49.8909 80.6232C49.9399 80.199 50.2182 79.8361 50.6155 79.6803C51.2028 79.4498 51.8648 79.7331 52.1039 80.3167L56.1156 90.0958C56.1156 90.0958 57.3343 91.3451 65.2203 90.6168C70.4532 90.1338 71.8926 88.6245 71.8926 88.6245C71.8926 88.6245 67.7877 81.2019 66.8228 66.6939C66.8228 66.6963 57.6212 58.1642 38.9458 63.6716Z" fill="white"/>
</g>
</mask>
<g mask="url(#mask5_1725_27753)">
<path id="Vector_15" opacity="0.3" d="M64.139 65.8457C64.139 65.8457 41.9742 66.9001 30.7717 75.1417L32.1571 61.2344L71.1631 60.3247L64.139 65.8457Z" fill="#002A37"/>
</g>
</g>
<g id="Clip path group_6">
<path id="Vector_16" d="M69.2612 92.4364L69.8252 92.2378C69.8105 92.1961 68.3368 88.0018 66.9427 82.4318C65.659 77.3007 64.1816 69.9173 64.4379 63.89L63.8408 63.8643C63.5821 69.9651 65.0705 77.411 66.364 82.5826C67.7642 88.1783 69.2465 92.3948 69.2612 92.4364Z" fill="#2B1A21"/>
</g>
</g>
<g id="Group_5">
<path id="Vector_17" d="M56.9199 29.6865C56.9199 29.6865 62.8246 28.4322 65.7512 28.4469C68.6778 28.4616 72.2309 30.3841 72.4811 34.587C72.6208 36.9398 70.474 41.5658 68.679 44.2227C66.8853 46.8795 64.0421 51.1205 64.1389 52.924C64.237 54.7264 66.8228 64.5496 66.8228 66.6952C56.7176 64.7359 46.708 72.7507 38.5179 66.1202C39.6348 57.3072 42.2488 50.4891 43.0237 50.6987C43.709 50.8839 36.5832 39.6789 36.5832 39.6789C36.5832 39.6789 38.2972 35.3705 44.9743 33.2396C49.0314 31.9461 56.9199 29.6865 56.9199 29.6865Z" fill="white"/>
<g id="Clip path group_7">
<mask id="mask6_1725_27753" style="mask-type:luminance" maskUnits="userSpaceOnUse" x="21" y="-4" width="42" height="49">
<g id="XMLID_15_">
<path id="Vector_18" d="M52.522 36.2706C52.522 36.2706 48.6802 40.9264 46.3801 42.7358C44.08 44.5452 40.1024 45.2511 37.2915 42.1166C35.7182 40.3618 34.5205 35.4049 34.2725 32.2082C34.0235 29.0124 33.6105 23.9235 32.4125 22.5719C31.2143 21.2221 23.0782 15.1414 21.7432 13.4618C30.8726 8.70802 33.7213 -3.79391 44.258 -3.6994C48.8671 3.89433 51.0631 10.858 50.3261 11.176C49.6744 11.4575 62.2243 15.795 62.2243 15.795C62.2243 15.795 63.5632 20.2341 59.6622 26.0567C57.2912 29.5936 52.522 36.2706 52.522 36.2706Z" fill="white"/>
</g>
</mask>
<g mask="url(#mask6_1725_27753)">
<path id="Vector_19" d="M51.7816 29.9622C53.8986 28.2794 56.4161 27.9234 57.4045 29.1669C58.3929 30.4104 57.4779 32.7826 55.3609 34.4654C53.2438 36.1481 50.7263 36.5041 49.7379 35.2606C48.7495 34.0171 49.6645 31.6449 51.7816 29.9622Z" fill="#E5886E"/>
</g>
</g>
<g id="Clip path group_8">
<mask id="mask7_1725_27753" style="mask-type:luminance" maskUnits="userSpaceOnUse" x="36" y="28" width="37" height="41">
<g id="XMLID_15__2">
<path id="Vector_20" d="M56.9199 29.6865C56.9199 29.6865 62.8246 28.4322 65.7512 28.4469C68.6778 28.4616 72.2309 30.3841 72.4811 34.587C72.6208 36.9398 70.474 41.5658 68.679 44.2227C66.8853 46.8795 64.0421 51.1205 64.1389 52.924C64.237 54.7264 66.8228 64.5496 66.8228 66.6952C56.7176 64.7359 46.708 72.7507 38.5179 66.1202C39.6348 57.3072 42.2488 50.4891 43.0237 50.6987C43.709 50.8839 36.5832 39.6789 36.5832 39.6789C36.5832 39.6789 38.2972 35.3705 44.9743 33.2396C49.0314 31.9461 56.9199 29.6865 56.9199 29.6865Z" fill="white"/>
</g>
</mask>
<g mask="url(#mask7_1725_27753)">
<path id="Vector_21" opacity="0.2" d="M54.9827 17.8575C54.9827 29.6425 47.8028 39.1972 38.9457 39.1972C30.0887 39.1972 22.9088 29.6437 22.9088 17.8575C22.9088 6.0714 30.6661 21.5419 39.5232 21.5419C48.3803 21.5419 54.9827 6.0714 54.9827 17.8575Z" fill="#002A37"/>
</g>
</g>
<g id="Clip path group_9">
<mask id="mask8_1725_27753" style="mask-type:luminance" maskUnits="userSpaceOnUse" x="36" y="28" width="37" height="41">
<g id="XMLID_15__3">
<path id="Vector_22" d="M56.9199 29.6865C56.9199 29.6865 62.8246 28.4322 65.7512 28.4469C68.6778 28.4616 72.2309 30.3841 72.4811 34.587C72.6208 36.9398 70.474 41.5658 68.679 44.2227C66.8853 46.8795 64.0421 51.1205 64.1389 52.924C64.237 54.7264 66.8228 64.5496 66.8228 66.6952C56.7176 64.7359 46.708 72.7507 38.5179 66.1202C39.6348 57.3072 42.2488 50.4891 43.0237 50.6987C43.709 50.8839 36.5832 39.6789 36.5832 39.6789C36.5832 39.6789 38.2972 35.3705 44.9743 33.2396C49.0314 31.9461 56.9199 29.6865 56.9199 29.6865Z" fill="white"/>
</g>
</mask>
<g mask="url(#mask8_1725_27753)">
<path id="Vector_23" opacity="0.2" d="M60.3394 54.5901C59.5988 55.0658 37.6057 59.113 32.8608 73.7571C28.116 88.4012 26.7869 61.0796 26.7869 61.0796L53.9724 45.9917L60.3394 54.5901Z" fill="#002A37"/>
</g>
</g>
</g>
<path id="Vector_24" d="M57.8764 29.5161C59.1221 30.1953 58.5936 31.8039 57.9181 32.7235C55.7725 35.807 54.0952 39.1971 52.6816 42.6742C50.7775 47.3001 49.5367 52.2731 49.5159 57.295L49.5759 57.2987C50.2356 52.3552 51.4273 47.5294 53.1291 42.8483C54.4483 39.3626 56.0459 35.9615 58.0713 32.824C58.5495 32.0479 59.0228 31.0205 58.5777 30.1242C58.4293 29.8386 58.1927 29.6032 57.9021 29.4634L57.8764 29.5161Z" fill="#2B1A21"/>
<path id="Vector_25" d="M52.2143 30.7778C49.6457 31.5319 48.4037 33.534 48.2565 36.1259C48.0457 38.4861 48.1818 40.8524 48.2872 43.2113C48.4172 45.5666 48.5251 47.9219 48.7323 50.2686C48.9419 52.6152 49.1847 54.9583 49.5157 57.2976L49.5758 57.2939C49.6261 52.5711 49.1467 47.8765 48.7359 43.1831C48.5618 40.2737 48.1916 37.2993 48.7249 34.4131C49.132 32.6942 50.5554 31.3443 52.2302 30.8367C52.229 30.8367 52.2143 30.7778 52.2143 30.7778Z" fill="#2B1A21"/>
<path id="Vector_26" d="M49.349 60.4387C48.6272 60.4387 48.042 59.5747 48.042 58.5089C48.042 57.4431 48.6272 56.5791 49.349 56.5791C50.0709 56.5791 50.656 57.4431 50.656 58.5089C50.656 59.5747 50.0709 60.4387 49.349 60.4387Z" fill="#2B1A21"/>
<path id="Vector_27" d="M49.1192 56.8103L48.7429 57.1865L48.2358 56.6794L48.612 56.3031L49.1192 56.8103Z" fill="#2B1A21"/>
<path id="Vector_28" d="M50.2812 56.5188L50.6575 56.895L50.1503 57.4022L49.774 57.0259L50.2812 56.5188Z" fill="#2B1A21"/>
<g id="Group_6">
<path id="Vector_29" d="M44.1344 44.631C44.1344 44.631 44.3134 40.1816 36.5843 39.6802C36.5843 39.6802 30.5607 54.1355 30.8623 55.0391C31.1639 55.9427 33.5731 59.0544 34.2756 59.0544C34.9782 59.0544 49.7976 52.8469 49.7976 52.8469L44.1344 44.631Z" fill="#A74C3A"/>
<g id="Clip path group_10">
<mask id="mask9_1725_27753" style="mask-type:luminance" maskUnits="userSpaceOnUse" x="30" y="39" width="20" height="21">
<g id="XMLID_16_">
<path id="Vector_30" d="M44.1344 44.631C44.1344 44.631 44.3134 40.1816 36.5843 39.6802C36.5843 39.6802 30.5607 54.1355 30.8623 55.0391C31.1639 55.9427 33.5731 59.0544 34.2756 59.0544C34.9782 59.0544 49.7976 52.8469 49.7976 52.8469L44.1344 44.631Z" fill="white"/>
</g>
</mask>
<g mask="url(#mask9_1725_27753)">
<path id="Vector_31" opacity="0.3" d="M41.5611 49.3671L38.2128 50.3197L41.8137 46.27L45.6685 48.4684L41.5611 49.3671Z" fill="#002A37"/>
</g>
</g>
<g id="Clip path group_11">
<mask id="mask10_1725_27753" style="mask-type:luminance" maskUnits="userSpaceOnUse" x="30" y="39" width="20" height="21">
<g id="XMLID_16__2">
<path id="Vector_32" d="M44.1344 44.631C44.1344 44.631 44.3134 40.1816 36.5843 39.6802C36.5843 39.6802 30.5607 54.1355 30.8623 55.0391C31.1639 55.9427 33.5731 59.0544 34.2756 59.0544C34.9782 59.0544 49.7976 52.8469 49.7976 52.8469L44.1344 44.631Z" fill="white"/>
</g>
</mask>
<g mask="url(#mask10_1725_27753)">
<path id="Vector_33" d="M37.8684 39.3038C37.8684 39.3038 31.9784 53.8143 31.6792 54.8994C31.3813 55.9844 34.4636 59.6026 34.4636 59.6026C34.4636 59.6026 26.1705 61.5213 25.9229 61.026C25.6752 60.5307 26.9135 44.316 27.0374 43.2027C27.1612 42.0882 31.7405 36.7046 31.7405 36.7046L37.8684 39.3038Z" fill="#E5886E"/>
</g>
</g>
</g>
<g id="Group_7">
<path id="Vector_34" d="M52.8003 24.9785C52.8003 24.9785 52.0977 31.7366 52.0965 32.4097C52.0916 34.4462 55.8581 33.507 57.1969 32.1682C58.5358 30.8293 59.8943 20.3979 59.8943 20.3979C59.8943 20.3979 55.749 28.5047 52.8003 24.9785Z" fill="#E5886E"/>
<g id="Clip path group_12">
<mask id="mask11_1725_27753" style="mask-type:luminance" maskUnits="userSpaceOnUse" x="52" y="20" width="8" height="14">
<g id="XMLID_17_">
<path id="Vector_35" d="M52.8003 24.9785C52.8003 24.9785 52.0977 31.7366 52.0965 32.4097C52.0916 34.4462 55.8581 33.507 57.1969 32.1682C58.5358 30.8293 59.8943 20.3979 59.8943 20.3979C59.8943 20.3979 55.749 28.5047 52.8003 24.9785Z" fill="white"/>
</g>
</mask>
<g mask="url(#mask11_1725_27753)">
<path id="Vector_36" d="M58.7307 23.3833C58.7307 23.3833 57.3073 32.1104 48.0088 31.4324L49.8221 26.332L58.7307 23.3833Z" fill="#A74C3A"/>
</g>
</g>
</g>
<path id="Vector_37" d="M53.3865 7.33764C48.9347 7.76799 46.4629 12.1438 46.9521 15.2384C47.4413 18.333 48.9886 23.0582 49.1517 23.4653C49.2743 23.7718 51.6161 26.5292 52.7637 27.8705C53.1462 28.318 53.7457 28.513 54.3183 28.3793L54.3943 28.3622C54.8149 28.2641 55.2084 28.0667 55.5333 27.7835C57.9095 25.7139 58.6304 23.3598 59.4531 21.262C59.4531 21.262 63.3262 20.7692 64.03 17.4833C64.86 13.6077 60.7171 15.2396 60.7171 15.2396C60.7171 15.2396 60.9611 6.60445 53.3865 7.33764Z" fill="#E5886E"/>
<g id="Group_8">
<path id="Vector_38" d="M62.9939 36.1304C62.9939 36.1304 67.6211 34.7511 69.0813 42.4618C69.0813 42.4618 67.3145 54.2725 56.8881 57.2126C52.5907 58.4252 39.0158 45.9144 39.0158 45.9144C39.0158 45.9144 38.3991 42.7867 40.834 42.7867C43.269 42.7867 56.7434 48.4683 56.7434 48.4683C57.8861 45.1947 58.851 42.0106 62.9939 36.1304Z" fill="#E5886E"/>
<g id="Clip path group_13">
<mask id="mask12_1725_27753" style="mask-type:luminance" maskUnits="userSpaceOnUse" x="38" y="36" width="32" height="22">
<g id="XMLID_18_">
<path id="Vector_39" d="M62.9939 36.1304C62.9939 36.1304 67.6211 34.7511 69.0813 42.4618C69.0813 42.4618 67.3145 54.2725 56.8881 57.2126C52.5907 58.4252 39.0158 45.9144 39.0158 45.9144C39.0158 45.9144 38.3991 42.7867 40.834 42.7867C43.269 42.7867 56.7434 48.4683 56.7434 48.4683C57.8861 45.1947 58.851 42.0106 62.9939 36.1304Z" fill="white"/>
</g>
</mask>
<g mask="url(#mask12_1725_27753)">
<path id="Vector_40" opacity="0.5" d="M61.9641 45.641C61.9641 47.9116 58.3202 51.336 54.5354 49.7519C50.5311 48.0759 45.9799 46.0333 45.9799 43.7626C45.9799 41.492 49.9119 41.8451 54.0143 41.8451C58.1167 41.8451 61.9641 43.3703 61.9641 45.641Z" fill="#A74C3A"/>
</g>
</g>
</g>
<g id="Group_9">
<path id="Vector_41" d="M51.025 46.1905C51.025 46.1905 56.0936 42.5552 56.6772 42.7747C57.2608 42.9929 61.7077 44.8884 61.7801 45.2538C61.8524 45.6179 61.2296 46.1059 61.0113 46.101C60.6484 46.0936 58.135 45.5811 58.135 45.5811L58.8902 46.4296C59.2998 46.8894 59.263 47.5919 58.8093 48.0063L57.799 48.9283L51.025 46.1905Z" fill="#E5886E"/>
<g id="Clip path group_14">
<mask id="mask13_1725_27753" style="mask-type:luminance" maskUnits="userSpaceOnUse" x="51" y="42" width="11" height="7">
<g id="XMLID_19_">
<path id="Vector_42" d="M51.025 46.1905C51.025 46.1905 56.0936 42.5552 56.6772 42.7747C57.2608 42.9929 61.7077 44.8884 61.7801 45.2538C61.8524 45.6179 61.2296 46.1059 61.0113 46.101C60.6484 46.0936 58.135 45.5811 58.135 45.5811L58.8902 46.4296C59.2998 46.8894 59.263 47.5919 58.8093 48.0063L57.799 48.9283L51.025 46.1905Z" fill="white"/>
</g>
</mask>
<g mask="url(#mask13_1725_27753)">
<path id="Vector_43" d="M58.9955 47.8973C59.0397 47.8973 59.0826 47.8703 59.0997 47.8261C59.123 47.7685 59.0948 47.7035 59.0372 47.6802C58.9967 47.6643 55.0292 46.0839 54.0962 45.0749C54.0545 45.0295 53.9834 45.027 53.938 45.0687C53.8926 45.1104 53.8902 45.1815 53.9319 45.2269C54.898 46.2727 58.7895 47.8237 58.9551 47.8887C58.9673 47.8936 58.982 47.8973 58.9955 47.8973Z" fill="#A74C3A"/>
</g>
</g>
<g id="Clip path group_15">
<mask id="mask14_1725_27753" style="mask-type:luminance" maskUnits="userSpaceOnUse" x="51" y="42" width="11" height="7">
<g id="XMLID_19__2">
<path id="Vector_44" d="M51.025 46.1905C51.025 46.1905 56.0936 42.5552 56.6772 42.7747C57.2608 42.9929 61.7077 44.8884 61.7801 45.2538C61.8524 45.6179 61.2296 46.1059 61.0113 46.101C60.6484 46.0936 58.135 45.5811 58.135 45.5811L58.8902 46.4296C59.2998 46.8894 59.263 47.5919 58.8093 48.0063L57.799 48.9283L51.025 46.1905Z" fill="white"/>
</g>
</mask>
<g mask="url(#mask14_1725_27753)">
<path id="Vector_45" d="M58.6941 48.65C58.7419 48.65 58.786 48.6194 58.8007 48.5716C58.8191 48.5127 58.7872 48.4489 58.7272 48.4306C58.6904 48.4183 55.0392 47.256 54.0804 46.5731C54.0301 46.5363 53.9602 46.5486 53.9234 46.5988C53.8879 46.6491 53.8989 46.719 53.9492 46.7558C54.9362 47.4595 58.5065 48.5961 58.6585 48.6439C58.672 48.6488 58.683 48.65 58.6941 48.65Z" fill="#A74C3A"/>
</g>
</g>
<g id="Clip path group_16">
<mask id="mask15_1725_27753" style="mask-type:luminance" maskUnits="userSpaceOnUse" x="51" y="42" width="11" height="7">
<g id="XMLID_19__3">
<path id="Vector_46" d="M51.025 46.1905C51.025 46.1905 56.0936 42.5552 56.6772 42.7747C57.2608 42.9929 61.7077 44.8884 61.7801 45.2538C61.8524 45.6179 61.2296 46.1059 61.0113 46.101C60.6484 46.0936 58.135 45.5811 58.135 45.5811L58.8902 46.4296C59.2998 46.8894 59.263 47.5919 58.8093 48.0063L57.799 48.9283L51.025 46.1905Z" fill="white"/>
</g>
</mask>
<g mask="url(#mask15_1725_27753)">
<path id="Vector_47" d="M60.9562 46.2776C61.0077 46.2776 61.0543 46.2408 61.0653 46.1881C61.0776 46.128 61.0396 46.0679 60.9783 46.0557C60.9341 46.0471 56.5105 45.1153 55.0576 44.1234C55.0061 44.0879 54.9362 44.1013 54.9019 44.1528C54.8676 44.2043 54.8798 44.2742 54.9313 44.3085C56.421 45.3262 60.749 46.2371 60.9329 46.2751C60.9403 46.2776 60.9489 46.2776 60.9562 46.2776Z" fill="#A74C3A"/>
</g>
</g>
</g>
<path id="Vector_48" d="M58.1582 16.586C58.1582 16.586 57.0413 15.344 55.8066 15.908C54.572 16.472 54.6002 17.0654 53.8694 16.7699C53.1387 16.4744 54.1735 14.9529 55.3002 14.9357C56.427 14.9186 57.5194 15.2226 58.1582 16.586Z" fill="#2B1A21"/>
<path id="Vector_49" d="M48.1806 17.8168C48.1806 17.8168 48.6551 16.5307 49.6923 16.9537C50.7296 17.3767 50.8657 17.9444 51.3132 17.5962C51.7607 17.2467 50.6143 15.8919 49.799 15.9802C48.9849 16.0672 48.2799 16.4584 48.1806 17.8168Z" fill="#2B1A21"/>
<path id="Vector_50" d="M50.8837 21.0328C50.5932 21.0328 50.3577 20.581 50.3577 20.0237C50.3577 19.4664 50.5932 19.0146 50.8837 19.0146C51.1742 19.0146 51.4097 19.4664 51.4097 20.0237C51.4097 20.581 51.1742 21.0328 50.8837 21.0328Z" fill="#2B1A21"/>
<path id="Vector_51" d="M52.4249 24.4779C52.431 24.4792 52.4384 24.4792 52.4457 24.4792C54.7274 24.4326 55.582 22.6548 55.5906 22.6364C55.6151 22.5837 55.5918 22.5211 55.5391 22.4966C55.4851 22.4721 55.4238 22.4954 55.3993 22.5469C55.392 22.564 54.5877 24.2241 52.4408 24.2683C52.3832 24.2695 52.3366 24.3173 52.3378 24.3762C52.3391 24.4277 52.3758 24.4693 52.4249 24.4779Z" fill="#A74C3A"/>
<path id="Vector_52" d="M48.72 18.9375C48.72 18.9375 50.5198 18.3699 51.6846 19.0552C51.5975 19.2428 51.4308 19.3372 51.2358 19.309L48.72 18.9375Z" fill="#2B1A21"/>
<path id="Vector_53" d="M57.5378 17.2163C57.5378 17.2163 54.8148 17.4149 53.6623 18.5086C53.8866 18.6459 54.1637 18.6655 54.4053 18.5613L57.5378 17.2163Z" fill="#2B1A21"/>
<path id="Vector_54" d="M55.2782 20.3978C54.9809 20.3978 54.7399 19.8318 54.7399 19.1337C54.7399 18.4356 54.9809 17.8696 55.2782 17.8696C55.5754 17.8696 55.8164 18.4356 55.8164 19.1337C55.8164 19.8318 55.5754 20.3978 55.2782 20.3978Z" fill="#2B1A21"/>
<path id="Vector_55" d="M59.8465 17.9222C59.8465 17.9222 61.2663 15.4713 60.5833 11.8765C61.9492 8.4374 57.9951 5.17116 56.0972 7.29348C56.0972 7.29348 40.9357 5.48381 46.8907 12.0678C48.883 14.271 57.8075 11.3346 57.8075 11.3346L59.8465 17.9222Z" fill="#2B1A21"/>
<path id="Vector_56" d="M53.7261 22.4868C53.7261 22.4868 53.2871 22.9025 52.7452 22.9025C52.2033 22.9025 51.7644 22.4868 51.7644 22.4868C51.7644 22.4868 52.1886 22.5162 52.7305 22.5162C53.2724 22.5162 53.7261 22.4868 53.7261 22.4868Z" fill="#A74C3A"/>
<path id="Vector_57" d="M56.8881 21.0326C56.3809 21.0326 55.9698 20.8388 55.9698 20.5998C55.9698 20.3608 56.3809 20.167 56.8881 20.167C57.3953 20.167 57.8064 20.3608 57.8064 20.5998C57.8064 20.8388 57.3953 21.0326 56.8881 21.0326Z" fill="#A74C3A"/>
<path id="Vector_58" d="M49.9413 22.0055C49.4604 22.1666 49.009 22.1134 48.9331 21.8868C48.8571 21.6601 49.1855 21.3458 49.6664 21.1847C50.1473 21.0236 50.5987 21.0768 50.6746 21.3034C50.7505 21.5301 50.4222 21.8444 49.9413 22.0055Z" fill="#A74C3A"/>
<path id="Vector_59" d="M56.6919 7.34747C54.9852 6.27712 52.8359 5.70822 50.884 6.36172C51.8477 6.14716 52.8506 6.20233 53.7873 6.49658C54.6971 6.77613 55.5921 7.2408 56.3302 7.82441L56.6919 7.34747Z" fill="#2B1A21"/>
<path id="Vector_60" d="M46.0889 10.5229C43.8329 11.4388 41.9865 13.3723 45.0381 14.8277C44.4386 14.3409 43.481 13.5047 44.1002 12.7237C44.6421 12.1181 45.6365 11.8348 46.4224 11.6705L46.0889 10.5229Z" fill="#2B1A21"/>
</g>
</g>
</g>
</svg>
