<?xml version="1.0" encoding="UTF-8"?>
<!DOCTYPE svg PUBLIC "-//W3C//DTD SVG 1.1//EN" "http://www.w3.org/Graphics/SVG/1.1/DTD/svg11.dtd">
<!-- Creator: CorelDRAW -->
<svg xmlns="http://www.w3.org/2000/svg" xml:space="preserve" width="1.70666in" height="1.70666in" version="1.1" style="shape-rendering:geometricPrecision; text-rendering:geometricPrecision; image-rendering:optimizeQuality; fill-rule:evenodd; clip-rule:evenodd"
viewBox="0 0 1707 1707"
 xmlns:xlink="http://www.w3.org/1999/xlink">
 <defs>
  <style type="text/css">
   <![CDATA[
    .fil0 {fill:black}
   ]]>
  </style>
 </defs>
 <g id="Layer_x0020_1">
  <metadata id="CorelCorpID_0Corel-Layer"/>
  <g id="_481380520">
   <g>
    <path class="fil0" d="M1086 982c-14,0 -25,-11 -25,-25l0 -240c0,-29 -24,-51 -52,-51l-80 0c-14,0 -25,-11 -25,-25 0,-14 11,-25 25,-25l80 0c56,0 100,45 100,100l0 243c0,12 -11,23 -23,23zm-466 0c-14,0 -25,-11 -25,-25l0 -240c0,-55 45,-99 101,-99l80 0c14,0 25,11 25,25 0,13 -11,24 -25,24l-80 0c-29,0 -53,24 -53,52l0 240c2,12 -9,23 -23,23z"/>
   </g>
   <g>
    <path class="fil0" d="M853 684c-109,0 -196,-87 -196,-195 0,-109 87,-196 196,-196 108,0 195,87 195,196 0,106 -87,195 -195,195zm0 -342c-81,0 -147,65 -147,147 0,81 65,147 147,147 81,0 147,-67 147,-147 0,-82 -67,-147 -147,-147z"/>
   </g>
   <g>
    <path class="fil0" d="M1086 982l-466 0c-14,0 -25,-11 -25,-25 0,-14 11,-25 25,-25l464 0c14,0 25,11 25,25 0,14 -11,25 -23,25z"/>
   </g>
   <g>
    <path class="fil0" d="M1391 1706l-1076 0c-53,0 -96,-43 -96,-95l0 -1514c0,-54 43,-97 96,-97l1076 0c54,0 97,43 97,97l0 1514c0,52 -43,95 -97,95zm-1076 -1657c-27,0 -48,22 -48,48l0 1514c0,26 21,47 48,47l1076 0c26,0 48,-21 48,-47l0 -1514c0,-26 -22,-48 -48,-48l-1076 0z"/>
   </g>
   <g>
    <path class="fil0" d="M1012 1206l-317 0c-14,0 -25,-12 -25,-25 0,-14 11,-25 25,-25l319 0c13,0 24,11 24,25 0,13 -12,25 -26,25z"/>
   </g>
   <g>
    <path class="fil0" d="M1285 1364l-865 0c-14,0 -25,-11 -25,-25 0,-14 11,-25 25,-25l867 0c14,0 25,11 25,25 0,14 -13,25 -27,25z"/>
   </g>
   <g>
    <path class="fil0" d="M1285 1523l-865 0c-14,0 -25,-11 -25,-25 0,-14 11,-25 25,-25l867 0c14,0 25,11 25,25 0,14 -13,25 -27,25z"/>
   </g>
  </g>
 </g>
</svg>
