<svg width="25" height="25" viewBox="0 0 25 25" fill="none" xmlns="http://www.w3.org/2000/svg">
<g id="clipboard">
<path id="Vector" d="M16.0428 4.03418H18.0481C18.58 4.03418 19.09 4.24669 19.4661 4.62497C19.8422 5.00325 20.0535 5.51631 20.0535 6.05127V20.1709C20.0535 20.7059 19.8422 21.219 19.4661 21.5972C19.09 21.9755 18.58 22.188 18.0481 22.188H6.01604C5.48419 22.188 4.97412 21.9755 4.59805 21.5972C4.22197 21.219 4.0107 20.7059 4.0107 20.1709V6.05127C4.0107 5.51631 4.22197 5.00325 4.59805 4.62497C4.97412 4.24669 5.48419 4.03418 6.01604 4.03418H8.02139" stroke="#868788" stroke-width="2" stroke-linecap="round" stroke-linejoin="round"/>
<path id="Vector_2" d="M15.0401 2.01709H9.02407C8.47031 2.01709 8.02139 2.46863 8.02139 3.02564V5.04273C8.02139 5.59974 8.47031 6.05128 9.02407 6.05128H15.0401C15.5939 6.05128 16.0428 5.59974 16.0428 5.04273V3.02564C16.0428 2.46863 15.5939 2.01709 15.0401 2.01709Z" stroke="#868788" stroke-width="2" stroke-linecap="round" stroke-linejoin="round"/>
</g>
</svg>
