<svg width="143" height="232" viewBox="0 0 143 232" fill="none" xmlns="http://www.w3.org/2000/svg">
<g id="Clip path group" opacity="0.25">
<mask id="mask0_1725_20889" style="mask-type:luminance" maskUnits="userSpaceOnUse" x="-48" y="-1" width="191" height="233">
<g id="SVGID_21_">
<path id="Vector" d="M-21.9231 0.499694L-21.9226 0.499694L129.118 0.499687C136.461 0.499687 142.36 6.07139 142.36 12.874L142.36 218.74C142.36 225.531 136.462 231.103 129.118 231.103L-21.9226 231.103C-36.0855 231.103 -47.5 220.364 -47.5 207.173L-47.5 24.4169C-47.5 11.2382 -36.0725 0.487686 -21.9231 0.499694Z" fill="white" stroke="white"/>
</g>
</mask>
<g mask="url(#mask0_1725_20889)">
<g id="Group" opacity="0.4">
<path id="Vector_2" d="M7.91066 34.9015C46.5882 34.9015 77.9386 66.7922 77.9386 106.125C77.9386 145.457 46.5882 177.348 7.91067 177.348C-30.7668 177.348 -62.1172 145.457 -62.1172 106.125C-62.1055 66.7804 -30.7668 34.9015 7.91066 34.9015Z" stroke="#25D366" stroke-width="2" stroke-miterlimit="10" stroke-linecap="round" stroke-linejoin="round"/>
<path id="Vector_3" d="M30.3127 38.6636L30.2656 38.6636" stroke="#25D366" stroke-width="2" stroke-miterlimit="10" stroke-linecap="round" stroke-linejoin="round"/>
<path id="Vector_4" d="M7.91006 95.0515C13.9071 95.0515 18.7841 100.013 18.7841 106.125C18.7841 112.237 13.9071 117.198 7.91006 117.198C1.88967 117.198 -2.9873 112.237 -2.98731 106.125C-2.98731 100.013 1.88967 95.0515 7.91006 95.0515Z" stroke="#25D366" stroke-width="2" stroke-miterlimit="10" stroke-linecap="round" stroke-linejoin="round"/>
<path id="Vector_5" d="M22.227 182.439C30.1025 197.203 8.26107 198.924 7.91105 208.49C7.56103 198.936 -14.2804 197.203 -6.40486 182.439" stroke="#25D366" stroke-width="2" stroke-miterlimit="10" stroke-linecap="round" stroke-linejoin="round"/>
<path id="Vector_6" d="M57.8362 164.933C71.8954 173.716 53.8343 186.308 58.2329 194.771C53.2159 186.664 33.4746 196.29 33.0312 179.496" stroke="#25D366" stroke-width="2" stroke-miterlimit="10" stroke-linecap="round" stroke-linejoin="round"/>
<path id="Vector_7" d="M80.0503 131.666C96.5481 132.117 87.0974 152.222 95.0663 157.302C86.7474 152.827 74.3799 171.2 65.7344 156.886" stroke="#25D366" stroke-width="2" stroke-miterlimit="10" stroke-linecap="round" stroke-linejoin="round"/>
<path id="Vector_8" d="M82.9561 91.5493C97.4587 83.5618 99.1505 105.768 108.566 106.124C99.1505 106.468 97.4587 128.674 82.9561 120.687" stroke="#25D366" stroke-width="2" stroke-miterlimit="10" stroke-linecap="round" stroke-linejoin="round"/>
<path id="Vector_9" d="M65.7344 55.3388C74.3799 41.0372 86.7474 59.4097 95.0663 54.9352C87.0974 60.0268 96.5481 80.1084 80.0503 80.5713" stroke="#25D366" stroke-width="2" stroke-miterlimit="10" stroke-linecap="round" stroke-linejoin="round"/>
<path id="Vector_10" d="M33.0303 32.7291C33.4736 15.947 53.2266 25.5724 58.2319 17.4662C53.8333 25.9166 71.8945 38.5091 57.8352 47.3037" stroke="#25D366" stroke-width="2" stroke-miterlimit="10" stroke-linecap="round" stroke-linejoin="round"/>
<path id="Vector_11" d="M-6.41692 29.7856C-14.2691 15.0212 7.57233 13.3121 7.92235 3.74603C8.27237 13.3002 30.1021 15.0212 22.2383 29.7856" stroke="#25D366" stroke-width="2" stroke-miterlimit="10" stroke-linecap="round" stroke-linejoin="round"/>
<path id="Vector_12" d="M41.5829 167.022L-62.1055 106.124L41.5829 45.2151L41.5829 167.022Z" stroke="#25D366" stroke-width="2" stroke-miterlimit="10" stroke-linecap="round" stroke-linejoin="round"/>
<path id="Vector_13" d="M-25.7734 45.2151L77.9149 106.124L-25.7734 167.022L-25.7734 45.2151Z" stroke="#25D366" stroke-width="2" stroke-miterlimit="10" stroke-linecap="round" stroke-linejoin="round"/>
<path id="Vector_14" d="M31.1055 119.737L7.9107 133.362L-15.2725 119.737L-15.2725 92.4989L7.9107 78.8738L31.1055 92.4989L31.1055 119.737Z" stroke="#25D366" stroke-width="2" stroke-miterlimit="10" stroke-linecap="round" stroke-linejoin="round" stroke-dasharray="6 8"/>
</g>
</g>
</g>
</svg>
