<svg width="24" height="24" viewBox="0 0 24 24" fill="none" xmlns="http://www.w3.org/2000/svg">
<g id="coach_1 1">
<path id="Vector" d="M19.8366 11.6503C19.6655 11.5871 19.5619 11.3836 19.5637 11.2308C19.567 10.9425 19.5736 10.65 19.5802 10.3674L19.5806 10.3542C19.5909 9.91736 19.6012 9.46549 19.5989 9.02018C19.5928 7.86939 19.4348 6.78283 19.1297 5.79096C18.6544 4.24689 17.8256 3.12143 16.5961 2.35033C15.6431 1.75268 14.5561 1.40158 13.2731 1.27643C12.8053 1.23096 12.3497 1.20752 11.9198 1.20752C10.9003 1.20752 9.98531 1.33221 9.12187 1.58861C7.45172 2.08502 6.26297 2.98689 5.48672 4.3458C4.82344 5.50736 4.48078 6.85736 4.40953 8.59408C4.38375 9.21752 4.39031 9.85924 4.39687 10.4794C4.39969 10.7639 4.40297 11.0583 4.40297 11.3522V11.536L4.18406 11.6316C4.14562 11.648 4.10062 11.6672 4.05609 11.6883C3.27094 12.0572 2.84906 12.6521 2.80172 13.4555C2.75531 14.2392 3.00187 14.9766 3.55594 15.7092C3.86625 16.1194 4.21078 16.358 4.60969 16.4377C4.7414 16.4639 4.89281 16.4644 5.0264 16.4644C5.09297 16.4644 5.15531 16.4649 5.21578 16.4672L5.385 16.4747L5.45719 16.628C5.5664 16.86 5.67047 17.0911 5.77078 17.3152C5.99437 17.813 6.20437 18.2803 6.45422 18.7261C7.33969 20.3049 8.43 21.436 9.78703 22.1841C11.1309 22.9247 12.4894 22.9875 13.8239 22.3702C14.9283 21.8592 15.9009 21.0324 16.7967 19.8417C17.4975 18.9103 18.0403 17.8655 18.457 16.6472L18.5222 16.4569H18.7233C18.7509 16.4569 18.7777 16.4564 18.8039 16.456H18.8142C18.8934 16.4546 18.96 16.4536 19.0317 16.4588C19.4386 16.4883 19.8098 16.3402 20.167 16.006C20.5959 15.6047 20.8922 15.0806 21.0998 14.3578C21.442 13.1663 20.9227 12.0525 19.8366 11.6503ZM5.4764 8.73471C5.4825 8.65643 5.48812 8.5819 5.49328 8.51018L5.49422 8.50033C5.50547 8.34658 5.51625 8.20174 5.52937 8.05549C5.59875 7.29752 5.71312 6.40924 6.03469 5.57111C6.63047 4.01955 7.74609 3.00518 9.34969 2.55611C9.65297 2.47127 9.97828 2.40377 10.3167 2.35549C10.6022 2.31471 10.8909 2.28846 11.1698 2.26314C11.2922 2.25189 11.4127 2.24111 11.5327 2.22893L12.7805 2.25799L12.8681 2.26736C13.8384 2.32408 14.6414 2.50174 15.3741 2.81955C16.8652 3.46689 17.8195 4.68143 18.2105 6.4294C18.3619 7.10674 18.4308 7.77893 18.5034 8.49049L18.5747 9.18471L18.1233 8.97096C16.1663 8.04471 14.2477 7.57783 12.2569 7.54455L11.9381 7.53893L11.7919 7.54127C9.72328 7.57596 7.78969 8.05549 5.8814 9.00752L5.43703 9.22877L5.4764 8.73471ZM5.7239 10.1667C7.09219 9.48705 8.355 9.04924 9.58406 8.82799C10.1297 8.73002 10.6852 8.66299 11.2223 8.59783L11.2284 8.59736C11.4684 8.5683 11.7239 8.57346 11.9625 8.54205L12.1233 8.53408L12.2372 8.56924C14.2561 8.62221 16.2375 9.1519 18.293 10.1883C18.4444 10.2647 18.5883 10.4738 18.562 10.6631C18.5128 11.0185 18.457 11.4206 18.3628 11.8116C18.3197 11.9892 18.2508 12.1852 18.0652 12.2897C17.9902 12.3319 17.9044 12.3535 17.8102 12.3535C17.6995 12.3535 17.5931 12.3239 17.5125 12.2986C16.9252 12.1111 16.3903 11.9203 15.878 11.715L15.8137 11.6892C14.9705 11.3508 14.0981 11.0006 13.1953 10.823C12.0802 10.6031 10.9308 10.6903 9.77953 11.0822C9.25406 11.2608 8.72672 11.468 8.21672 11.6681L8.20922 11.671C7.84687 11.813 7.47187 11.9602 7.095 12.098C6.88875 12.1735 6.67828 12.2091 6.47484 12.2433C6.40359 12.2555 6.33234 12.2672 6.26203 12.2808C5.9625 12.3394 5.7014 12.1613 5.6414 11.8575C5.55422 11.4183 5.48531 11.0161 5.43047 10.6285C5.4 10.4133 5.59406 10.231 5.7239 10.1667ZM20.1511 13.8333C20.0602 14.1956 19.9106 14.5772 19.7062 14.9681C19.5131 15.3371 19.2872 15.5264 18.7022 15.4027C18.4439 15.3478 18.1917 15.2902 17.9245 15.2288L17.8237 15.2058L17.7638 15.4041C17.6817 15.6741 17.5997 15.945 17.5162 16.215C17.0175 17.8346 16.1831 19.2094 15.0361 20.3021C14.3123 20.9916 13.5773 21.435 12.7889 21.6586C12.5231 21.7336 12.2531 21.7721 11.9864 21.7721C11.4225 21.7721 10.8609 21.6085 10.2703 21.2724C8.78109 20.4244 7.67015 19.1171 6.87422 17.2758C6.66609 16.7949 6.51141 16.2896 6.36141 15.8011C6.30141 15.6056 6.24 15.4046 6.17484 15.2063L6.04875 15.2321C5.70234 15.3033 5.37562 15.3708 5.04 15.4242C4.83375 15.4571 4.60734 15.3488 4.49015 15.225C4.0875 14.8003 3.8564 14.2631 3.80297 13.6285C3.76359 13.1611 4.06453 12.7716 4.60781 12.5874L4.79953 12.5222L4.92187 12.6835C5.36437 13.2656 5.99625 13.4611 6.75 13.2483C7.41234 13.0608 8.07516 12.8133 8.71594 12.5733L8.72812 12.5686C8.94094 12.4889 9.16125 12.4064 9.37875 12.3277C10.1133 12.061 10.9453 11.7586 11.8495 11.7267C12.7781 11.6939 13.6177 11.9733 14.468 12.2878C14.6653 12.361 14.8627 12.4346 15.06 12.5086L15.0797 12.5161C15.795 12.7842 16.5347 13.0613 17.2711 13.29C17.8181 13.4602 18.3464 13.3613 18.7978 13.0041C18.8625 12.953 18.9244 12.8803 18.9905 12.803C19.0223 12.766 19.0617 12.7196 19.103 12.675L19.2197 12.5489L19.3856 12.5953C20.0053 12.7697 20.2988 13.2441 20.1511 13.8333Z" fill="url(#paint0_linear_658_4529)" stroke="url(#paint1_linear_658_4529)" stroke-width="0.5"/>
</g>
<defs>
<linearGradient id="paint0_linear_658_4529" x1="2.79621" y1="3.23094" x2="25.3153" y2="25.8617" gradientUnits="userSpaceOnUse">
<stop stop-color="#25D366"/>
<stop offset="1" stop-color="#03C0FF"/>
</linearGradient>
<linearGradient id="paint1_linear_658_4529" x1="2.79621" y1="3.23094" x2="25.3153" y2="25.8617" gradientUnits="userSpaceOnUse">
<stop stop-color="#25D366"/>
<stop offset="1" stop-color="#03C0FF"/>
</linearGradient>
</defs>
</svg>
