<svg width="24" height="25" viewBox="0 0 24 25" fill="none" xmlns="http://www.w3.org/2000/svg">
<g id="Facebook logo 2019" clip-path="url(#clip0_1725_20954)">
<path id="Vector" d="M24 12.3888C24 5.72086 18.6274 0.31543 12 0.31543C5.37258 0.31543 0 5.72086 0 12.3888C0 18.415 4.38823 23.4097 10.125 24.3154V15.8787H7.07812V12.3888H10.125V9.72888C10.125 6.70299 11.9165 5.03159 14.6576 5.03159C15.9705 5.03159 17.3438 5.26739 17.3438 5.26739V8.23857H15.8306C14.3399 8.23857 13.875 9.16923 13.875 10.124V12.3888H17.2031L16.6711 15.8787H13.875V24.3154C19.6118 23.4097 24 18.415 24 12.3888Z" fill="#1877F2"/>
</g>
<defs>
<clipPath id="clip0_1725_20954">
<rect width="24" height="24" fill="white" transform="translate(0 0.31543)"/>
</clipPath>
</defs>
</svg>
