<svg width="26" height="24" viewBox="0 0 26 24" fill="none" xmlns="http://www.w3.org/2000/svg">
<g id="file-text">
<path id="Vector" d="M14.8023 2H6.58839C6.04377 2 5.52146 2.21071 5.13636 2.58579C4.75126 2.96086 4.53491 3.46957 4.53491 4V20C4.53491 20.5304 4.75126 21.0391 5.13636 21.4142C5.52146 21.7893 6.04377 22 6.58839 22H18.9092C19.4539 22 19.9762 21.7893 20.3613 21.4142C20.7464 21.0391 20.9627 20.5304 20.9627 20V8L14.8023 2Z" stroke="#403E3E" stroke-width="2" stroke-linecap="round" stroke-linejoin="round"/>
<path id="Vector_2" d="M14.8022 2V8H20.9627" stroke="#403E3E" stroke-width="2" stroke-linecap="round" stroke-linejoin="round"/>
<path id="Vector_3" d="M16.8557 13H8.64185" stroke="#403E3E" stroke-width="2" stroke-linecap="round" stroke-linejoin="round"/>
<path id="Vector_4" d="M16.8557 17H8.64185" stroke="#403E3E" stroke-width="2" stroke-linecap="round" stroke-linejoin="round"/>
<path id="Vector_5" d="M10.6953 9H9.66858H8.64185" stroke="#403E3E" stroke-width="2" stroke-linecap="round" stroke-linejoin="round"/>
</g>
</svg>
