<svg width="24" height="25" viewBox="0 0 24 25" fill="none" xmlns="http://www.w3.org/2000/svg">
<g id="Google" clip-path="url(#clip0_1725_20956)">
<path id="Vector" d="M23.725 12.5656C23.725 11.5731 23.6451 10.8488 23.4724 10.0977H12.2407V14.5775H18.8335C18.7006 15.6908 17.9828 17.3674 16.3878 18.494L16.3654 18.644L19.9167 21.4201L20.1627 21.4449C22.4223 19.339 23.725 16.2407 23.725 12.5656Z" fill="#4285F4"/>
<path id="Vector_2" d="M12.2391 24.2327C15.5433 24.2327 18.3171 23.1697 20.3432 21.3361L16.4815 18.4127C15.4481 19.117 14.0611 19.6086 12.2391 19.6086C9.00291 19.6086 6.25622 17.5225 5.27711 14.6392L5.13359 14.6511L1.35604 17.5079L1.30664 17.6421C3.31906 21.5486 7.45273 24.2327 12.2391 24.2327Z" fill="#34A853"/>
<path id="Vector_3" d="M5.27726 14.6392C5.01892 13.8951 4.8694 13.0978 4.8694 12.274C4.8694 11.4502 5.01892 10.6529 5.26367 9.90885L5.25683 9.75037L1.43194 6.84766L1.3068 6.90582C0.477385 8.52692 0.00146484 10.3474 0.00146484 12.274C0.00146484 14.2007 0.477385 16.0211 1.3068 17.6422L5.27726 14.6392Z" fill="#FBBC05"/>
<path id="Vector_4" d="M12.2391 4.93946C14.5371 4.93946 16.0871 5.90944 16.971 6.72004L20.4248 3.42471C18.3036 1.49803 15.5433 0.31543 12.2391 0.31543C7.45273 0.31543 3.31906 2.99949 1.30664 6.90599L5.26351 9.90902C6.25622 7.02563 9.00291 4.93946 12.2391 4.93946Z" fill="#EB4335"/>
</g>
<defs>
<clipPath id="clip0_1725_20956">
<rect width="24" height="24" fill="white" transform="translate(0 0.31543)"/>
</clipPath>
</defs>
</svg>
