<svg width="61" height="61" viewBox="0 0 61 61" fill="none" xmlns="http://www.w3.org/2000/svg">
<g id="Group 1171275112">
<path id="Vector (Stroke)" fill-rule="evenodd" clip-rule="evenodd" d="M30.5 5.54545C16.718 5.54545 5.54545 16.718 5.54545 30.5C5.54545 44.282 16.718 55.4545 30.5 55.4545C44.282 55.4545 55.4545 44.282 55.4545 30.5C55.4545 16.718 44.282 5.54545 30.5 5.54545ZM0 30.5C0 13.6553 13.6553 0 30.5 0C47.3447 0 61 13.6553 61 30.5C61 47.3447 47.3447 61 30.5 61C13.6553 61 0 47.3447 0 30.5Z" fill="url(#paint0_linear_1725_24562)"/>
<path id="Vector (Stroke)_2" fill-rule="evenodd" clip-rule="evenodd" d="M21.4457 34.5802C20.5067 33.3577 18.7421 33.1124 17.4971 34.0339C16.2481 34.9583 15.995 36.7068 16.9317 37.9393L19.1932 36.2656C16.9317 37.9393 16.9324 37.9402 16.9331 37.9412L16.9346 37.9431L16.9379 37.9474L16.9456 37.9575L16.966 37.9837L17.0262 38.0598C17.0749 38.1205 17.1409 38.2011 17.2239 38.2987C17.3897 38.4936 17.6243 38.7576 17.9252 39.0675C18.5247 39.6848 19.4008 40.4979 20.534 41.3112C22.7896 42.9301 26.188 44.6344 30.5004 44.6344C34.8127 44.6344 38.2111 42.9301 40.4667 41.3112C41.6 40.4979 42.476 39.6848 43.0755 39.0675C43.3764 38.7576 43.611 38.4936 43.7768 38.2987C43.8598 38.2011 43.9258 38.1205 43.9745 38.0598L44.0347 37.9837L44.0551 37.9575L44.0629 37.9474L44.0661 37.9431L44.0676 37.9412C44.0683 37.9402 44.069 37.9393 41.8075 36.2656L44.069 37.9393C45.0057 36.7068 44.7526 34.9583 43.5036 34.0339C42.2586 33.1124 40.494 33.3577 39.555 34.5802L39.5419 34.5967C39.525 34.6177 39.4931 34.657 39.4463 34.712C39.3526 34.8222 39.2007 34.994 38.9937 35.2072C38.5773 35.636 37.9516 36.2177 37.1414 36.7991C35.5102 37.9699 33.255 39.0552 30.5004 39.0552C27.7457 39.0552 25.4905 37.9699 23.8593 36.7991C23.0491 36.2177 22.4234 35.636 22.007 35.2072C21.8 34.994 21.6481 34.8222 21.5544 34.712C21.5077 34.657 21.4757 34.6177 21.4589 34.5967L21.4457 34.5802Z" fill="url(#paint1_linear_1725_24562)"/>
<path id="Vector (Stroke)_3" fill-rule="evenodd" clip-rule="evenodd" d="M19.3418 22.3167C19.3418 20.6733 20.6674 19.3411 22.3026 19.3411H22.3322C23.9674 19.3411 25.293 20.6733 25.293 22.3167C25.293 23.9601 23.9674 25.2923 22.3322 25.2923H22.3026C20.6674 25.2923 19.3418 23.9601 19.3418 22.3167Z" fill="url(#paint2_linear_1725_24562)"/>
<path id="Vector (Stroke)_4" fill-rule="evenodd" clip-rule="evenodd" d="M35.707 22.3167C35.707 20.6733 37.0326 19.3411 38.6678 19.3411H38.6974C40.3327 19.3411 41.6583 20.6733 41.6583 22.3167C41.6583 23.9601 40.3327 25.2923 38.6974 25.2923H38.6678C37.0326 25.2923 35.707 23.9601 35.707 22.3167Z" fill="url(#paint3_linear_1725_24562)"/>
</g>
<defs>
<linearGradient id="paint0_linear_1725_24562" x1="-6.00838e-07" y1="5.71875" x2="62.7988" y2="79.7148" gradientUnits="userSpaceOnUse">
<stop stop-color="#25D366"/>
<stop offset="1" stop-color="#03C0FF"/>
</linearGradient>
<linearGradient id="paint1_linear_1725_24562" x1="16.3662" y1="34.5219" x2="23.3797" y2="55.4575" gradientUnits="userSpaceOnUse">
<stop stop-color="#25D366"/>
<stop offset="1" stop-color="#03C0FF"/>
</linearGradient>
<linearGradient id="paint2_linear_1725_24562" x1="19.3418" y1="19.899" x2="25.4685" y2="27.1181" gradientUnits="userSpaceOnUse">
<stop stop-color="#25D366"/>
<stop offset="1" stop-color="#03C0FF"/>
</linearGradient>
<linearGradient id="paint3_linear_1725_24562" x1="35.707" y1="19.899" x2="41.8337" y2="27.1181" gradientUnits="userSpaceOnUse">
<stop stop-color="#25D366"/>
<stop offset="1" stop-color="#03C0FF"/>
</linearGradient>
</defs>
</svg>
