<svg width="24" height="26" viewBox="0 0 24 26" fill="none" xmlns="http://www.w3.org/2000/svg">
<g id="Group">
<path id="Vector" d="M17.9832 25.168H6.01681C2.81969 25.168 0.787235 23.2611 0.604542 20.0754L0.0107911 10.6553C-0.0805552 9.22804 0.410431 7.85785 1.3924 6.81878C2.36296 5.77972 3.73315 5.18597 5.14902 5.18597C5.51441 5.18597 5.86837 4.96902 6.03965 4.62647L6.86176 2.99366C7.53544 1.65772 9.22534 0.618652 10.6983 0.618652H13.3131C14.7861 0.618652 16.4646 1.65772 17.1382 2.98224L17.9604 4.64931C18.1316 4.96902 18.4742 5.18597 18.851 5.18597C20.2668 5.18597 21.637 5.77972 22.6076 6.81878C23.5896 7.86927 24.0806 9.22804 23.9892 10.6553L23.3955 20.0868C23.1899 23.3182 21.2146 25.168 17.9832 25.168ZM10.6983 2.3314C9.85337 2.3314 8.78004 2.99366 8.39182 3.75868L7.5697 5.40292C7.09013 6.3278 6.16525 6.89871 5.14902 6.89871C4.18989 6.89871 3.29925 7.28693 2.637 7.98345C1.98616 8.67996 1.65502 9.59343 1.72353 10.5411L2.31729 19.9727C2.45429 22.2791 3.6989 23.4552 6.01681 23.4552H17.9832C20.2897 23.4552 21.5343 22.2791 21.6827 19.9727L22.2765 10.5411C22.3336 9.59343 22.0138 8.67996 21.363 7.98345C20.7007 7.28693 19.8101 6.89871 18.851 6.89871C17.8348 6.89871 16.9099 6.3278 16.4303 5.42575L15.5968 3.75868C15.22 3.00507 14.1466 2.34281 13.3017 2.34281H10.6983V2.3314Z" fill="#403E3E"/>
<path id="Vector_2" d="M13.7135 9.18247H10.288C9.81986 9.18247 9.43164 8.79425 9.43164 8.3261C9.43164 7.85795 9.81986 7.46973 10.288 7.46973H13.7135C14.1816 7.46973 14.5699 7.85795 14.5699 8.3261C14.5699 8.79425 14.1816 9.18247 13.7135 9.18247Z" fill="#403E3E"/>
<path id="Vector_3" d="M11.9999 20.6005C9.47649 20.6005 7.43262 18.5566 7.43262 16.0331C7.43262 13.5097 9.47649 11.4658 11.9999 11.4658C14.5234 11.4658 16.5672 13.5097 16.5672 16.0331C16.5672 18.5566 14.5234 20.6005 11.9999 20.6005ZM11.9999 13.1786C10.4242 13.1786 9.14536 14.4574 9.14536 16.0331C9.14536 17.6089 10.4242 18.8877 11.9999 18.8877C13.5757 18.8877 14.8545 17.6089 14.8545 16.0331C14.8545 14.4574 13.5757 13.1786 11.9999 13.1786Z" fill="#403E3E"/>
</g>
</svg>
