<svg width="24" height="25" viewBox="0 0 24 25" fill="none" xmlns="http://www.w3.org/2000/svg">
<g id="Group">
<path id="Vector" d="M8.00117 17.9817L8.00102 17.9801C7.98101 17.775 8.1309 17.5869 8.34694 17.5664L8.34929 17.5661C8.53939 17.5471 8.74109 17.7054 8.76187 17.9123C8.93769 19.8135 9.48425 21.2358 10.6533 22.1589C11.8041 23.0676 13.4593 23.411 15.6523 23.411H15.8045C18.2217 23.411 20.0078 22.9887 21.1706 21.8259C22.3333 20.6631 22.7556 18.877 22.7556 16.4598V8.82606C22.7556 6.40882 22.3333 4.62273 21.1706 3.45996C20.0078 2.29719 18.2217 1.87487 15.8045 1.87487H15.6523C13.4472 1.87487 11.784 2.22414 10.6323 3.15017C9.4654 4.08837 8.92669 5.53208 8.7623 7.46175C8.73064 7.69171 8.54389 7.83191 8.34694 7.81316L8.34696 7.81302L8.33516 7.81217C8.13412 7.79781 7.97554 7.61905 7.99017 7.4015C8.18277 5.15398 8.87725 3.61687 10.0716 2.62834C11.2772 1.63048 13.0789 1.11865 15.6405 1.11865H15.7928C18.6096 1.11865 20.5015 1.72296 21.6987 2.92015C22.8959 4.11734 23.5002 6.00924 23.5002 8.82606V16.4598C23.5002 19.2766 22.8959 21.1685 21.6987 22.3657C20.5015 23.5629 18.6096 24.1672 15.7928 24.1672H15.6405C13.0958 24.1672 11.3045 23.6639 10.1012 22.6817C8.90902 21.7086 8.21012 20.1955 8.00117 17.9817Z" fill="#403E3E" stroke="#403E3E"/>
<path id="Vector_2" d="M15.5096 13.0209H2.18573C1.98184 13.0209 1.80762 12.8467 1.80762 12.6428C1.80762 12.4389 1.98184 12.2646 2.18573 12.2646H15.5096C15.7134 12.2646 15.8877 12.4389 15.8877 12.6428C15.8877 12.8467 15.7134 13.0209 15.5096 13.0209Z" fill="#403E3E" stroke="#403E3E"/>
<path id="Vector_3" d="M1.76269 12.2896L1.40914 12.6431L1.76269 12.9967L5.06439 16.2984C5.20866 16.4427 5.20866 16.6881 5.06439 16.8323L5.0583 16.8384L5.05242 16.8447C4.99826 16.9028 4.90523 16.9435 4.79741 16.9435C4.70041 16.9435 4.60735 16.9092 4.53044 16.8323L0.608206 12.9101C0.463932 12.7658 0.463932 12.5204 0.608206 12.3762L4.53043 8.45391C4.67471 8.30963 4.92012 8.30963 5.06439 8.45391C5.20866 8.59818 5.20866 8.84359 5.06439 8.98787L5.41794 9.34142L5.06439 8.98787L1.76269 12.2896Z" fill="#403E3E" stroke="#403E3E"/>
</g>
</svg>
