<svg width="26" height="27" viewBox="0 0 26 27" fill="none" xmlns="http://www.w3.org/2000/svg">
<g id="Group">
<path id="Vector" d="M10 15.7187C10 16.8827 10.9 17.8187 12.004 17.8187H14.26C15.22 17.8187 16 17.0027 16 15.9827C16 14.8907 15.52 14.4948 14.812 14.2428L11.2 12.9828C10.492 12.7308 10.012 12.3468 10.012 11.2428C10.012 10.2347 10.792 9.40674 11.752 9.40674H14.008C15.112 9.40674 16.012 10.3427 16.012 11.5067" stroke="#403E3E" stroke-width="2" stroke-linecap="round" stroke-linejoin="round"/>
<path id="Vector_2" d="M13 8.21875V19.0188" stroke="#403E3E" stroke-width="2" stroke-linecap="round" stroke-linejoin="round"/>
<path id="Vector_3" d="M25 13.6187C25 20.2427 19.624 25.6187 13 25.6187C6.376 25.6187 1 20.2427 1 13.6187C1 6.99465 6.376 1.61865 13 1.61865" stroke="#403E3E" stroke-width="2" stroke-linecap="round" stroke-linejoin="round"/>
<path id="Vector_4" d="M25.0002 6.41865V1.61865H20.2002" stroke="#403E3E" stroke-width="2" stroke-linecap="round" stroke-linejoin="round"/>
<path id="Vector_5" d="M19 7.61865L25 1.61865" stroke="#403E3E" stroke-width="2" stroke-linecap="round" stroke-linejoin="round"/>
</g>
</svg>
