<svg width="24" height="24" viewBox="0 0 24 24" fill="none" xmlns="http://www.w3.org/2000/svg">
<g id="Group">
<path id="Vector" d="M6.72688 23.1929L6.72479 23.1918C6.17324 22.9015 5.8314 22.3185 5.8314 21.694V20.109V19.8833L5.60692 19.8603C3.97782 19.693 2.64261 19.013 1.71417 17.9581C0.785387 16.9029 0.25 15.457 0.25 13.7349V7.03726C0.25 5.17453 0.874336 3.63647 1.94608 2.56473C3.01782 1.49299 4.55587 0.868652 6.4186 0.868652H17.5814C19.4441 0.868652 20.9822 1.49299 22.0539 2.56473C23.1257 3.63647 23.75 5.17453 23.75 7.03726V13.7349C23.75 15.5976 23.1257 17.1357 22.0539 18.2074C20.9822 19.2792 19.4441 19.9035 17.5814 19.9035H13.373H13.2973L13.2343 19.9455L8.48063 23.1147C8.48037 23.1149 8.4801 23.1151 8.47983 23.1152C8.19723 23.3002 7.8657 23.3974 7.53488 23.3974C7.26301 23.3974 6.98008 23.3293 6.72688 23.1929ZM7.27231 22.1429L7.27233 22.1429C7.385 22.2105 7.60129 22.2709 7.82539 22.1282L7.82542 22.1283L7.82963 22.1255L12.7971 18.8213L12.7973 18.8211C12.8937 18.7569 13.0134 18.718 13.1274 18.718H17.5926C19.0875 18.718 20.341 18.2331 21.2214 17.3527C22.1018 16.4723 22.5867 15.2188 22.5867 13.7238V7.02608C22.5867 5.53114 22.1018 4.27761 21.2214 3.39721C20.341 2.51682 19.0875 2.0319 17.5926 2.0319H6.4186C4.92366 2.0319 3.67013 2.51682 2.78974 3.39721C1.90934 4.27761 1.42442 5.53114 1.42442 7.02608V13.7238C1.42442 15.2188 1.90934 16.4723 2.78974 17.3527C3.67013 18.2331 4.92366 18.718 6.4186 18.718C6.73821 18.718 7.00581 18.9856 7.00581 19.3052V21.6829C7.00581 21.9593 7.18799 22.0923 7.27231 22.1429Z" fill="#403E3E" stroke="#403E3E" stroke-width="0.5"/>
<path id="Vector_2" d="M11.9998 12.2505C11.5421 12.2505 11.1625 11.8709 11.1625 11.4132V11.1788C11.1625 9.88394 12.1114 9.24765 12.4686 9.00207C12.8816 8.723 13.0156 8.53324 13.0156 8.24301C13.0156 7.68487 12.5579 7.22715 11.9998 7.22715C11.4416 7.22715 10.9839 7.68487 10.9839 8.24301C10.9839 8.70069 10.6044 9.08022 10.1467 9.08022C9.68911 9.08022 9.30957 8.70069 9.30957 8.24301C9.30957 6.75836 10.5151 5.55273 11.9998 5.55273C13.4844 5.55273 14.69 6.75836 14.69 8.24301C14.69 9.51557 13.7523 10.1518 13.4063 10.3863C12.9709 10.6765 12.837 10.8663 12.837 11.1788V11.4132C12.837 11.8821 12.4574 12.2505 11.9998 12.2505Z" fill="#403E3E"/>
<path id="Vector_3" d="M12.0003 15.0299C11.5315 15.0299 11.1631 14.6504 11.1631 14.1927C11.1631 13.735 11.5426 13.3555 12.0003 13.3555C12.458 13.3555 12.8375 13.735 12.8375 14.1927C12.8375 14.6504 12.4691 15.0299 12.0003 15.0299Z" fill="#403E3E"/>
</g>
</svg>
