<svg width="24" height="24" viewBox="0 0 24 24" fill="none" xmlns="http://www.w3.org/2000/svg">
<g id="Group">
<path id="Vector" d="M18.6974 10.5309C18.2397 10.5309 17.8602 10.154 17.8602 9.6995V7.48247C17.8602 3.99065 16.8667 1.66277 11.9997 1.66277C7.13275 1.66277 6.13926 3.99065 6.13926 7.48247V9.6995C6.13926 10.154 5.75973 10.5309 5.30205 10.5309C4.84438 10.5309 4.46484 10.154 4.46484 9.6995V7.48247C4.46484 4.26778 5.24624 0 11.9997 0C18.7532 0 19.5346 4.26778 19.5346 7.48247V9.6995C19.5346 10.154 19.1551 10.5309 18.6974 10.5309Z" fill="#B7BBBF"/>
<path id="Vector_2" d="M12 19.9534C10.0018 19.9534 8.37207 18.335 8.37207 16.3507C8.37207 14.3665 10.0018 12.748 12 12.748C13.9981 12.748 15.6279 14.3665 15.6279 16.3507C15.6279 18.335 13.9981 19.9534 12 19.9534ZM12 14.4108C10.9283 14.4108 10.0465 15.2865 10.0465 16.3507C10.0465 17.4149 10.9283 18.2906 12 18.2906C13.0716 18.2906 13.9535 17.4149 13.9535 16.3507C13.9535 15.2865 13.0716 14.4108 12 14.4108Z" fill="#B7BBBF"/>
<path id="Vector_3" d="M17.5814 23.8331H6.4186C1.49581 23.8331 0 22.3477 0 17.4591V15.2421C0 10.3536 1.49581 8.86816 6.4186 8.86816H17.5814C22.5042 8.86816 24 10.3536 24 15.2421V17.4591C24 22.3477 22.5042 23.8331 17.5814 23.8331ZM6.4186 10.5309C2.42233 10.5309 1.67442 11.2847 1.67442 15.2421V17.4591C1.67442 21.4165 2.42233 22.1703 6.4186 22.1703H17.5814C21.5777 22.1703 22.3256 21.4165 22.3256 17.4591V15.2421C22.3256 11.2847 21.5777 10.5309 17.5814 10.5309H6.4186Z" fill="#B7BBBF"/>
</g>
</svg>
