<svg width="23" height="22" viewBox="0 0 23 22" fill="none" xmlns="http://www.w3.org/2000/svg">
<g id="Group 1171275016">
<path id="Vector" d="M13.4182 3.17999C13.2618 2.77667 13.0445 2.4225 12.7884 2.15326C12.5324 1.88402 12.2465 1.70925 11.9598 1.64659C10.925 1.47619 7.10609 2.27087 7.10609 2.27087C7.10609 2.27087 3.28721 3.06555 2.42025 3.66844C2.18436 3.83985 1.99586 4.11333 1.87378 4.46126C1.7517 4.80919 1.70038 5.21925 1.72499 5.65001C1.8833 7.22026 2.13567 8.79409 2.47893 10.3517C2.81365 11.9233 3.23954 13.4735 3.75117 14.9823C3.91159 15.3712 4.1287 15.7102 4.3815 15.9665C4.6343 16.2228 4.91426 16.3877 5.19432 16.4454C6.2368 16.6509 10.0557 15.8562 10.0557 15.8562C10.0557 15.8562 13.8746 15.0615 14.7415 14.4586C14.9774 14.2872 15.1659 14.0138 15.288 13.6658C15.4101 13.3179 15.4614 12.9078 15.4368 12.4771C15.2796 10.9187 15.0298 9.3567 14.6905 7.81055C14.3558 6.2389 13.9299 4.68879 13.4182 3.17999Z" stroke="#25D366" stroke-width="2" stroke-linecap="round" stroke-linejoin="round"/>
<g id="Group 1171275014">
<g id="Group 1171275015">
<rect id="Rectangle 41943" x="7.56543" y="7.11084" width="14.9992" height="13.8889" fill="white"/>
<g id="Group 1171275013">
<path id="Vector_2" d="M20.275 9.2849C20.1969 8.85855 20.0378 8.4679 19.8137 8.15242C19.5897 7.83694 19.3087 7.60781 18.999 7.48816C17.8678 7.11084 13.3427 7.11084 13.3427 7.11084C13.3427 7.11084 8.81759 7.11084 7.68632 7.52409C7.3767 7.64374 7.09567 7.87288 6.87163 8.18835C6.6476 8.50383 6.48848 8.89448 6.41035 9.32084C6.20331 10.889 6.10203 12.4798 6.1078 14.0732C6.10042 15.6787 6.2017 17.2816 6.41035 18.8616C6.49648 19.2747 6.65917 19.6505 6.88268 19.9526C7.1062 20.2548 7.38299 20.4731 7.68632 20.5864C8.81759 20.9997 13.3427 20.9997 13.3427 20.9997C13.3427 20.9997 17.8678 20.9997 18.999 20.5864C19.3087 20.4668 19.5897 20.2377 19.8137 19.9222C20.0378 19.6067 20.1969 19.2161 20.275 18.7897C20.4805 17.2333 20.5817 15.6547 20.5776 14.0732C20.5849 12.4678 20.4837 10.8649 20.275 9.2849Z" fill="white" stroke="#25D366" stroke-width="2" stroke-linecap="round" stroke-linejoin="round"/>
<path id="Vector_3" d="M11.8623 16.7077L15.6442 14.4368L11.8623 12.166V16.7077Z" fill="white" stroke="#25D366" stroke-width="2" stroke-linecap="round" stroke-linejoin="round"/>
</g>
</g>
</g>
</g>
</svg>
