<svg width="26" height="27" viewBox="0 0 26 27" fill="none" xmlns="http://www.w3.org/2000/svg">
<g id="Group">
<path id="Vector" d="M21.4719 21.6225L18.9039 16.4985L16.3359 21.6225" stroke="#403E3E" stroke-width="2" stroke-linecap="round" stroke-linejoin="round"/>
<path id="Vector_2" d="M16.8037 20.7104H21.0277" stroke="#403E3E" stroke-width="2" stroke-linecap="round" stroke-linejoin="round"/>
<path id="Vector_3" d="M18.9036 25.6187C15.5436 25.6187 12.8076 22.8946 12.8076 19.5226C12.8076 16.1626 15.5316 13.4268 18.9036 13.4268C22.2636 13.4268 24.9996 16.1506 24.9996 19.5226C24.9996 22.8946 22.2756 25.6187 18.9036 25.6187Z" stroke="#403E3E" stroke-width="2" stroke-linecap="round" stroke-linejoin="round"/>
<path id="Vector_4" d="M4.62398 1.61865H9.32796C11.8119 1.61865 13.0119 2.81867 12.9519 5.24266V9.94661C13.0119 12.4306 11.8119 13.6306 9.32796 13.5706H4.62398C2.19999 13.6186 1 12.4186 1 9.9346V5.23065C1 2.81866 2.19999 1.61865 4.62398 1.61865Z" stroke="#403E3E" stroke-width="2" stroke-linecap="round" stroke-linejoin="round"/>
<path id="Vector_5" d="M9.41201 6.23828H4.54004" stroke="#403E3E" stroke-width="2" stroke-linecap="round" stroke-linejoin="round"/>
<path id="Vector_6" d="M6.96387 5.42236V6.23835" stroke="#403E3E" stroke-width="2" stroke-linecap="round" stroke-linejoin="round"/>
<path id="Vector_7" d="M8.1883 6.22656C8.1883 8.32655 6.54431 10.0305 4.52832 10.0305" stroke="#403E3E" stroke-width="2" stroke-linecap="round" stroke-linejoin="round"/>
<path id="Vector_8" d="M9.41138 10.0309C8.53539 10.0309 7.7434 9.56284 7.19141 8.81885" stroke="#403E3E" stroke-width="2" stroke-linecap="round" stroke-linejoin="round"/>
<path id="Vector_9" d="M1 17.2183C1 21.8622 4.75598 25.6182 9.39996 25.6182L8.13996 23.5182" stroke="#403E3E" stroke-width="2" stroke-linecap="round" stroke-linejoin="round"/>
<path id="Vector_10" d="M24.9996 10.0186C24.9996 5.37463 21.2436 1.61865 16.5996 1.61865L17.8596 3.71864" stroke="#403E3E" stroke-width="2" stroke-linecap="round" stroke-linejoin="round"/>
</g>
</svg>
