<svg width="21" height="25" viewBox="0 0 21 25" fill="none" xmlns="http://www.w3.org/2000/svg">
<g id="Group">
<path id="Vector" d="M10.419 22.0886C7.92316 22.0886 5.42738 21.678 3.06015 20.8569C2.16038 20.5352 1.47485 19.8805 1.17493 19.0261C0.864293 18.1718 0.971407 17.2286 1.46414 16.3853L2.69595 14.2661C2.95303 13.8222 3.18868 12.9346 3.18868 12.4131V9.20642C3.18868 5.07881 6.43426 1.7168 10.419 1.7168C14.4036 1.7168 17.6492 5.07881 17.6492 9.20642V12.4131C17.6492 12.9235 17.8849 13.8222 18.1419 14.2772L19.363 16.3853C19.8236 17.1842 19.9093 18.1496 19.5987 19.0261C19.2881 19.9027 18.6132 20.5684 17.767 20.8569C15.4105 21.678 12.9147 22.0886 10.419 22.0886ZM10.419 3.38116C7.32331 3.38116 4.7954 5.98866 4.7954 9.20642V12.4131C4.7954 13.2231 4.47406 14.4214 4.07774 15.1204L2.84592 17.2397C2.61026 17.6503 2.54599 18.083 2.68524 18.4492C2.81378 18.8264 3.13513 19.1149 3.5743 19.2702C8.05169 20.8236 12.7969 20.8236 17.2743 19.2702C17.6599 19.1371 17.9598 18.8375 18.0991 18.4381C18.2383 18.0386 18.2062 17.6059 17.992 17.2397L16.7602 15.1204C16.3531 14.3992 16.0425 13.212 16.0425 12.402V9.20642C16.0425 5.98866 13.5253 3.38116 10.419 3.38116Z" fill="#403E3E" stroke="#403E3E" stroke-width="0.5"/>
<path id="Vector_2" d="M12.4114 3.68108C12.3364 3.68108 12.2614 3.66998 12.1864 3.64779C11.8758 3.55902 11.5759 3.49245 11.2867 3.44807C10.3762 3.32601 9.49786 3.39259 8.67308 3.64779C8.37316 3.74765 8.05185 3.64779 7.84833 3.41478C7.64481 3.18177 7.58054 2.8489 7.69837 2.54931C8.13754 1.38426 9.20866 0.618652 10.4298 0.618652C11.6509 0.618652 12.722 1.37316 13.1612 2.54931C13.2683 2.8489 13.2147 3.18177 13.0112 3.41478C12.8506 3.59231 12.6256 3.68108 12.4114 3.68108Z" fill="#403E3E" stroke="#403E3E" stroke-width="0.5"/>
<path id="Vector_3" d="M10.4181 24.6184C9.3577 24.6184 8.3294 24.1746 7.57963 23.3979C6.82983 22.6212 6.40137 21.556 6.40137 20.4575H8.00809C8.00809 21.1122 8.26513 21.7557 8.71501 22.2217C9.1649 22.6878 9.78616 22.9541 10.4181 22.9541C11.7464 22.9541 12.8282 21.8334 12.8282 20.4575H14.4349C14.4349 22.7543 12.6354 24.6184 10.4181 24.6184Z" fill="#403E3E" stroke="#403E3E" stroke-width="0.5"/>
</g>
</svg>
