<svg width="25" height="24" viewBox="0 0 25 24" fill="none" xmlns="http://www.w3.org/2000/svg">
<g id="headphones">
<path id="Vector" d="M3.42798 18V12C3.42798 9.61305 4.37619 7.32387 6.06402 5.63604C7.75184 3.94821 10.041 3 12.428 3C14.8149 3 17.1041 3.94821 18.7919 5.63604C20.4798 7.32387 21.428 9.61305 21.428 12V18" stroke="#403E3E" stroke-width="2" stroke-linecap="round" stroke-linejoin="round"/>
<path id="Vector_2" d="M21.428 19C21.428 19.5304 21.2173 20.0391 20.8422 20.4142C20.4671 20.7893 19.9584 21 19.428 21H18.428C17.8975 21 17.3888 20.7893 17.0138 20.4142C16.6387 20.0391 16.428 19.5304 16.428 19V16C16.428 15.4696 16.6387 14.9609 17.0138 14.5858C17.3888 14.2107 17.8975 14 18.428 14H21.428V19ZM3.42798 19C3.42798 19.5304 3.63869 20.0391 4.01376 20.4142C4.38884 20.7893 4.89755 21 5.42798 21H6.42798C6.95841 21 7.46712 20.7893 7.84219 20.4142C8.21726 20.0391 8.42798 19.5304 8.42798 19V16C8.42798 15.4696 8.21726 14.9609 7.84219 14.5858C7.46712 14.2107 6.95841 14 6.42798 14H3.42798V19Z" stroke="#403E3E" stroke-width="2" stroke-linecap="round" stroke-linejoin="round"/>
</g>
</svg>
