<svg width="25" height="24" viewBox="0 0 25 24" fill="none" xmlns="http://www.w3.org/2000/svg">
<g id="help-circle">
<path id="Vector" d="M12.428 22C17.9508 22 22.428 17.5228 22.428 12C22.428 6.47715 17.9508 2 12.428 2C6.90513 2 2.42798 6.47715 2.42798 12C2.42798 17.5228 6.90513 22 12.428 22Z" stroke="#403E3E" stroke-width="2" stroke-linecap="round" stroke-linejoin="round"/>
<path id="Vector_2" d="M9.51807 9.00008C9.75317 8.33175 10.2172 7.76819 10.828 7.40921C11.4388 7.05024 12.157 6.91902 12.8552 7.03879C13.5535 7.15857 14.1869 7.52161 14.6431 8.06361C15.0994 8.60561 15.3491 9.2916 15.3481 10.0001C15.3481 12.0001 12.3481 13.0001 12.3481 13.0001" stroke="#403E3E" stroke-width="2" stroke-linecap="round" stroke-linejoin="round"/>
<path id="Vector_3" d="M12.428 17H12.438" stroke="#403E3E" stroke-width="2" stroke-linecap="round" stroke-linejoin="round"/>
</g>
</svg>
