<svg xmlns="http://www.w3.org/2000/svg" width="19" height="19" viewBox="0 0 19 19" fill="none">
  <path d="M11.5239 15.5008C11.5239 15.9456 11.3422 16.3723 11.0186 16.6868C10.6951 17.0014 10.2563 17.1781 9.79872 17.1781C9.34116 17.1781 8.90234 17.0014 8.57879 16.6868C8.25525 16.3723 8.07349 15.9456 8.07349 15.5008C8.07349 15.0559 8.25525 14.6293 8.57879 14.3148C8.90234 14.0002 9.34116 13.8235 9.79872 13.8235C10.2563 13.8235 10.6951 14.0002 11.0186 14.3148C11.3422 14.6293 11.5239 15.0559 11.5239 15.5008ZM11.5239 9.90984C11.5239 10.3547 11.3422 10.7813 11.0186 11.0959C10.6951 11.4104 10.2563 11.5871 9.79872 11.5871C9.34116 11.5871 8.90234 11.4104 8.57879 11.0959C8.25525 10.7813 8.07349 10.3547 8.07349 9.90984C8.07349 9.465 8.25525 9.03837 8.57879 8.72382C8.90234 8.40927 9.34116 8.23255 9.79872 8.23255C10.2563 8.23255 10.6951 8.40927 11.0186 8.72382C11.3422 9.03837 11.5239 9.465 11.5239 9.90984ZM11.5239 4.31889C11.5239 4.76373 11.3422 5.19036 11.0186 5.50491C10.6951 5.81946 10.2563 5.99617 9.79872 5.99617C9.34116 5.99617 8.90234 5.81946 8.57879 5.50491C8.25525 5.19036 8.07349 4.76373 8.07349 4.31889C8.07349 3.87404 8.25525 3.44742 8.57879 3.13287C8.90234 2.81832 9.34116 2.6416 9.79872 2.6416C10.2563 2.6416 10.6951 2.81832 11.0186 3.13287C11.3422 3.44742 11.5239 3.87404 11.5239 4.31889Z" fill="url(#paint0_linear_70_3746)"/>
  <defs>
    <linearGradient id="paint0_linear_70_3746" x1="11.5239" y1="9.90986" x2="8.07349" y2="9.90986" gradientUnits="userSpaceOnUse">
      <stop stop-color="#25D366"/>
      <stop offset="1" stop-color="#03C0FF"/>
    </linearGradient>
  </defs>
</svg>