<svg width="24" height="25" viewBox="0 0 24 25" fill="none" xmlns="http://www.w3.org/2000/svg">
<g id="Linkedin" clip-path="url(#clip0_1725_20959)">
<path id="Vector" d="M12 0.31543C5.37253 0.31543 0 5.68797 0 12.3154C0 18.9429 5.37253 24.3154 12 24.3154C18.6274 24.3154 24 18.9429 24 12.3154C24 5.68797 18.6273 0.31543 12 0.31543ZM8.79836 18.1169H6.16364V9.60484H8.79836V18.1169ZM7.46845 8.49013C6.60798 8.49013 5.91041 7.78688 5.91041 6.91951C5.91041 6.05205 6.60807 5.34885 7.46845 5.34885C8.32882 5.34885 9.02638 6.05205 9.02638 6.91951C9.02643 7.78693 8.32887 8.49013 7.46845 8.49013ZM18.672 18.1169H16.05V13.6488C16.05 12.4233 15.5845 11.7392 14.6155 11.7392C13.5609 11.7392 13.01 12.4517 13.01 13.6488V18.1169H10.483V9.60484H13.01V10.7513C13.01 10.7513 13.7701 9.3452 15.575 9.3452C17.3799 9.3452 18.672 10.4473 18.672 12.7272L18.672 18.1169Z" fill="url(#paint0_linear_1725_20959)"/>
</g>
<defs>
<linearGradient id="paint0_linear_1725_20959" x1="3.51471" y1="3.83014" x2="20.4853" y2="20.8007" gradientUnits="userSpaceOnUse">
<stop stop-color="#2489BE"/>
<stop offset="1" stop-color="#0575B3"/>
</linearGradient>
<clipPath id="clip0_1725_20959">
<rect width="24" height="24" fill="white" transform="translate(0 0.31543)"/>
</clipPath>
</defs>
</svg>
