<svg width="25" height="24" viewBox="0 0 25 24" fill="none" xmlns="http://www.w3.org/2000/svg">
<g id="settings" clip-path="url(#clip0_1725_26362)">
<path id="Vector" d="M12.428 15C14.0848 15 15.428 13.6569 15.428 12C15.428 10.3431 14.0848 9 12.428 9C10.7711 9 9.42798 10.3431 9.42798 12C9.42798 13.6569 10.7711 15 12.428 15Z" stroke="#403E3E" stroke-width="2" stroke-linecap="round" stroke-linejoin="round"/>
<path id="Vector_2" d="M19.828 15C19.6949 15.3016 19.6552 15.6362 19.714 15.9606C19.7728 16.285 19.9274 16.5843 20.158 16.82L20.218 16.88C20.4039 17.0657 20.5515 17.2863 20.6521 17.5291C20.7527 17.7719 20.8046 18.0322 20.8046 18.295C20.8046 18.5578 20.7527 18.8181 20.6521 19.0609C20.5515 19.3037 20.4039 19.5243 20.218 19.71C20.0322 19.896 19.8117 20.0435 19.5689 20.1441C19.3261 20.2448 19.0658 20.2966 18.803 20.2966C18.5401 20.2966 18.2799 20.2448 18.0371 20.1441C17.7943 20.0435 17.5737 19.896 17.388 19.71L17.328 19.65C17.0923 19.4195 16.793 19.2648 16.4686 19.206C16.1442 19.1472 15.8096 19.1869 15.508 19.32C15.2122 19.4468 14.96 19.6572 14.7823 19.9255C14.6046 20.1938 14.5093 20.5082 14.508 20.83V21C14.508 21.5304 14.2973 22.0391 13.9222 22.4142C13.5471 22.7893 13.0384 23 12.508 23C11.9775 23 11.4688 22.7893 11.0938 22.4142C10.7187 22.0391 10.508 21.5304 10.508 21V20.91C10.5002 20.579 10.3931 20.258 10.2005 19.9887C10.0079 19.7194 9.73871 19.5143 9.42798 19.4C9.12636 19.2669 8.79179 19.2272 8.46739 19.286C8.143 19.3448 7.84366 19.4995 7.60798 19.73L7.54798 19.79C7.36223 19.976 7.14166 20.1235 6.89886 20.2241C6.65606 20.3248 6.39581 20.3766 6.13298 20.3766C5.87015 20.3766 5.60989 20.3248 5.3671 20.2241C5.1243 20.1235 4.90373 19.976 4.71798 19.79C4.53203 19.6043 4.38451 19.3837 4.28386 19.1409C4.18321 18.8981 4.13141 18.6378 4.13141 18.375C4.13141 18.1122 4.18321 17.8519 4.28386 17.6091C4.38451 17.3663 4.53203 17.1457 4.71798 16.96L4.77798 16.9C5.00852 16.6643 5.16316 16.365 5.22198 16.0406C5.2808 15.7162 5.24109 15.3816 5.10798 15.08C4.98122 14.7842 4.77073 14.532 4.50244 14.3543C4.23415 14.1766 3.91977 14.0813 3.59798 14.08H3.42798C2.89755 14.08 2.38884 13.8693 2.01377 13.4942C1.63869 13.1191 1.42798 12.6104 1.42798 12.08C1.42798 11.5496 1.63869 11.0409 2.01377 10.6658C2.38884 10.2907 2.89755 10.08 3.42798 10.08H3.51798C3.84897 10.0723 4.16998 9.96512 4.43928 9.77251C4.70857 9.5799 4.91369 9.31074 5.02798 9C5.16109 8.69838 5.2008 8.36381 5.14198 8.03941C5.08316 7.71502 4.92852 7.41568 4.69798 7.18L4.63798 7.12C4.45203 6.93425 4.30451 6.71368 4.20386 6.47088C4.10321 6.22808 4.05141 5.96783 4.05141 5.705C4.05141 5.44217 4.10321 5.18192 4.20386 4.93912C4.30451 4.69632 4.45203 4.47575 4.63798 4.29C4.82373 4.10405 5.0443 3.95653 5.2871 3.85588C5.52989 3.75523 5.79015 3.70343 6.05298 3.70343C6.31581 3.70343 6.57606 3.75523 6.81886 3.85588C7.06166 3.95653 7.28223 4.10405 7.46798 4.29L7.52798 4.35C7.76366 4.58054 8.063 4.73519 8.38739 4.794C8.71179 4.85282 9.04636 4.81312 9.34798 4.68H9.42798C9.72375 4.55324 9.976 4.34276 10.1537 4.07447C10.3313 3.80618 10.4267 3.49179 10.428 3.17V3C10.428 2.46957 10.6387 1.96086 11.0138 1.58579C11.3888 1.21071 11.8975 1 12.428 1C12.9584 1 13.4671 1.21071 13.8422 1.58579C14.2173 1.96086 14.428 2.46957 14.428 3V3.09C14.4293 3.41179 14.5246 3.72618 14.7023 3.99447C14.88 4.26276 15.1322 4.47324 15.428 4.6C15.7296 4.73312 16.0642 4.77282 16.3886 4.714C16.713 4.65519 17.0123 4.50054 17.248 4.27L17.308 4.21C17.4937 4.02405 17.7143 3.87653 17.9571 3.77588C18.1999 3.67523 18.4601 3.62343 18.723 3.62343C18.9858 3.62343 19.2461 3.67523 19.4889 3.77588C19.7317 3.87653 19.9522 4.02405 20.138 4.21C20.3239 4.39575 20.4715 4.61632 20.5721 4.85912C20.6727 5.10192 20.7246 5.36217 20.7246 5.625C20.7246 5.88783 20.6727 6.14808 20.5721 6.39088C20.4715 6.63368 20.3239 6.85425 20.138 7.04L20.078 7.1C19.8474 7.33568 19.6928 7.63502 19.634 7.95941C19.5752 8.28381 19.6149 8.61838 19.748 8.92V9C19.8747 9.29577 20.0852 9.54802 20.3535 9.72569C20.6218 9.90337 20.9362 9.99872 21.258 10H21.428C21.9584 10 22.4671 10.2107 22.8422 10.5858C23.2173 10.9609 23.428 11.4696 23.428 12C23.428 12.5304 23.2173 13.0391 22.8422 13.4142C22.4671 13.7893 21.9584 14 21.428 14H21.338C21.0162 14.0013 20.7018 14.0966 20.4335 14.2743C20.1652 14.452 19.9547 14.7042 19.828 15Z" stroke="#403E3E" stroke-width="2" stroke-linecap="round" stroke-linejoin="round"/>
</g>
<defs>
<clipPath id="clip0_1725_26362">
<rect width="24" height="24" fill="white" transform="translate(0.427979)"/>
</clipPath>
</defs>
</svg>
