<svg width="20" height="20" viewBox="0 0 20 20" fill="none" xmlns="http://www.w3.org/2000/svg">
<g id="time">
<g id="Group">
<path id="Vector" d="M10 20C4.48372 20 0 15.5163 0 10C0 4.48372 4.48372 0 10 0C15.5163 0 20 4.48372 20 10C20 15.5163 15.5163 20 10 20ZM10 1.39535C5.25581 1.39535 1.39535 5.25581 1.39535 10C1.39535 14.7442 5.25581 18.6047 10 18.6047C14.7442 18.6047 18.6047 14.7442 18.6047 10C18.6047 5.25581 14.7442 1.39535 10 1.39535Z" fill="#403E3E"/>
<path id="Vector_2" d="M13.4505 13.6557C13.3296 13.6557 13.2087 13.6278 13.097 13.5534L10.2133 11.8325C9.49703 11.4045 8.9668 10.465 8.9668 9.63711V5.82316C8.9668 5.44177 9.28308 5.12549 9.66447 5.12549C10.0459 5.12549 10.3621 5.44177 10.3621 5.82316V9.63711C10.3621 9.97199 10.6412 10.465 10.9296 10.6325L13.8133 12.3534C14.1482 12.5487 14.2505 12.9766 14.0552 13.3115C13.9156 13.5348 13.6831 13.6557 13.4505 13.6557Z" fill="#403E3E"/>
</g>
</g>
</svg>
