<svg xmlns="http://www.w3.org/2000/svg" width="22" height="20" viewBox="0 0 22 20" fill="none">
  <path d="M9.36333 2.25819L1.25653 15.7919C1.08938 16.0813 1.00094 16.4095 1.00001 16.7437C0.999072 17.078 1.08567 17.4066 1.25119 17.697C1.41671 17.9874 1.65538 18.2294 1.94346 18.3989C2.23153 18.5684 2.55897 18.6595 2.8932 18.6632H19.1068C19.441 18.6595 19.7685 18.5684 20.0565 18.3989C20.3446 18.2294 20.5833 17.9874 20.7488 17.697C20.9143 17.4066 21.0009 17.078 21 16.7437C20.9991 16.4095 20.9106 16.0813 20.7435 15.7919L12.6367 2.25819C12.466 1.9769 12.2258 1.74433 11.9391 1.58293C11.6524 1.42152 11.329 1.33673 11 1.33673C10.671 1.33673 10.3476 1.42152 10.0609 1.58293C9.7742 1.74433 9.53395 1.9769 9.36333 2.25819V2.25819Z" stroke="#403E3E" stroke-width="1.5" stroke-linecap="round" stroke-linejoin="round"/>
  <path d="M11 7.1778V11.0063" stroke="#403E3E" stroke-width="1.5" stroke-linecap="round" stroke-linejoin="round"/>
  <path d="M11 13.877V14.3556" stroke="#403E3E" stroke-width="1.5" stroke-linecap="round" stroke-linejoin="round"/>
</svg>