<svg width="24" height="24" viewBox="0 0 24 24" fill="none" xmlns="http://www.w3.org/2000/svg">
<rect width="24" height="24" fill="#D8D8D8"/>
<g id="My Session" clip-path="url(#clip0_70_812)">
<rect width="430" height="932" transform="translate(-203 -861)" fill="white"/>
<g id="Bottom bars" filter="url(#filter0_d_70_812)">
<rect x="-203" y="-17" width="430" height="80" rx="8" fill="white" shape-rendering="crispEdges"/>
<g id="Frame 1171274990">
<g id="Group 1171275341">
<g id="Group 1171275184">
<path id="Vector" d="M11 22C16.5228 22 21 17.5228 21 12C21 6.47715 16.5228 2 11 2C5.47715 2 1 6.47715 1 12C1 17.5228 5.47715 22 11 22Z" stroke="url(#paint0_linear_70_812)" stroke-width="2" stroke-linecap="round" stroke-linejoin="round"/>
<path id="Vector_2" d="M11 6V12L15 14" stroke="url(#paint1_linear_70_812)" stroke-width="2" stroke-linecap="round" stroke-linejoin="round"/>
</g>
</g>
</g>
</g>
</g>
<defs>
<filter id="filter0_d_70_812" x="-211" y="-29" width="446" height="96" filterUnits="userSpaceOnUse" color-interpolation-filters="sRGB">
<feFlood flood-opacity="0" result="BackgroundImageFix"/>
<feColorMatrix in="SourceAlpha" type="matrix" values="0 0 0 0 0 0 0 0 0 0 0 0 0 0 0 0 0 0 127 0" result="hardAlpha"/>
<feOffset dy="-4"/>
<feGaussianBlur stdDeviation="4"/>
<feComposite in2="hardAlpha" operator="out"/>
<feColorMatrix type="matrix" values="0 0 0 0 0 0 0 0 0 0 0 0 0 0 0 0 0 0 0.1 0"/>
<feBlend mode="normal" in2="BackgroundImageFix" result="effect1_dropShadow_70_812"/>
<feBlend mode="normal" in="SourceGraphic" in2="effect1_dropShadow_70_812" result="shape"/>
</filter>
<linearGradient id="paint0_linear_70_812" x1="21" y1="12" x2="1" y2="12" gradientUnits="userSpaceOnUse">
<stop stop-color="#25D366"/>
<stop offset="1" stop-color="#03C0FF"/>
</linearGradient>
<linearGradient id="paint1_linear_70_812" x1="15" y1="10" x2="11" y2="10" gradientUnits="userSpaceOnUse">
<stop stop-color="#25D366"/>
<stop offset="1" stop-color="#03C0FF"/>
</linearGradient>
<clipPath id="clip0_70_812">
<rect width="430" height="932" fill="white" transform="translate(-203 -861)"/>
</clipPath>
</defs>
</svg>
