<svg width="21" height="28" viewBox="0 0 21 28" fill="none" xmlns="http://www.w3.org/2000/svg">
<g id="&#240;&#159;&#166;&#134; icon &#34;notification&#34;">
<g id="Group">
<path id="Vector" d="M20.5164 17.05L19.1513 14.7839C18.8647 14.2788 18.6053 13.3233 18.6053 12.7636V9.30991C18.6053 6.10195 16.7215 3.33082 14.0049 2.03398C13.2951 0.778101 11.9846 0 10.483 0C8.99506 0 7.65733 0.805403 6.94748 2.07494C4.28556 3.39907 2.44268 6.1429 2.44268 9.30991V12.7636C2.44268 13.3233 2.18332 14.2788 1.89665 14.7703L0.517909 17.05C-0.0281266 17.9646 -0.150984 18.9747 0.190288 19.903C0.517909 20.8176 1.29601 21.5275 2.30618 21.8687C4.95445 22.7697 7.73923 23.2065 10.524 23.2065C13.3087 23.2065 16.0935 22.7697 18.7418 21.8824C19.6974 21.5684 20.4345 20.8449 20.7894 19.903C21.1444 18.9611 21.0488 17.9236 20.5164 17.05Z" fill="#403E3E"/>
<path id="Vector_2" d="M14.3593 24.5854C13.7859 26.1689 12.2707 27.302 10.496 27.302C9.41763 27.302 8.35286 26.8651 7.60205 26.087C7.16522 25.6775 6.8376 25.1315 6.64648 24.5718C6.82395 24.5991 7.00141 24.6127 7.19252 24.64C7.50649 24.681 7.83412 24.7219 8.16175 24.7492C8.93985 24.8175 9.7316 24.8584 10.5234 24.8584C11.3015 24.8584 12.0796 24.8175 12.844 24.7492C13.1307 24.7219 13.4173 24.7083 13.6904 24.6673C13.9088 24.64 14.1272 24.6127 14.3593 24.5854Z" fill="#292D32"/>
</g>
</g>
</svg>
