<svg width="26" height="26" viewBox="0 0 26 26" fill="none" xmlns="http://www.w3.org/2000/svg">
<g id="&#240;&#159;&#166;&#134; icon &#34;folder&#34;">
<path id="Vector" d="M19.0465 26H6.95349C1.62047 26 0 24.3795 0 19.0465V6.95349C0 1.62047 1.62047 0 6.95349 0H8.76744C10.8837 0 11.5488 0.689302 12.3953 1.81395L14.2093 4.23256C14.6084 4.76465 14.6688 4.83721 15.4186 4.83721H19.0465C24.3795 4.83721 26 6.45767 26 11.7907V19.0465C26 24.3795 24.3795 26 19.0465 26ZM6.95349 1.81395C2.63628 1.81395 1.81395 2.63628 1.81395 6.95349V19.0465C1.81395 23.3637 2.63628 24.186 6.95349 24.186H19.0465C23.3637 24.186 24.186 23.3637 24.186 19.0465V11.7907C24.186 7.47349 23.3637 6.65116 19.0465 6.65116H15.4186C13.8707 6.65116 13.3628 6.11907 12.7581 5.32093L10.9442 2.90233C10.3153 2.06791 10.134 1.81395 8.76744 1.81395H6.95349Z" fill="#B7BBBF"/>
</g>
</svg>
